<?xml version="1.0" encoding="utf-8" standalone="no"?>
<!DOCTYPE svg PUBLIC "-//W3C//DTD SVG 1.1//EN"
  "http://www.w3.org/Graphics/SVG/1.1/DTD/svg11.dtd">
<svg xmlns:xlink="http://www.w3.org/1999/xlink" width="684pt" height="363.677812pt" viewBox="0 0 684 363.677812" xmlns="http://www.w3.org/2000/svg" version="1.1">
 <metadata>
  <rdf:RDF xmlns:dc="http://purl.org/dc/elements/1.1/" xmlns:cc="http://creativecommons.org/ns#" xmlns:rdf="http://www.w3.org/1999/02/22-rdf-syntax-ns#">
   <cc:Work>
    <dc:type rdf:resource="http://purl.org/dc/dcmitype/StillImage"/>
    <dc:date>2025-12-31T23:05:56.640145</dc:date>
    <dc:format>image/svg+xml</dc:format>
    <dc:creator>
     <cc:Agent>
      <dc:title>Matplotlib v3.10.7, https://matplotlib.org/</dc:title>
     </cc:Agent>
    </dc:creator>
   </cc:Work>
  </rdf:RDF>
 </metadata>
 <defs>
  <style type="text/css">*{stroke-linejoin: round; stroke-linecap: butt}</style>
 </defs>
 <g id="figure_1">
  <g id="patch_1">
   <path d="M 0 363.677812 
L 684 363.677812 
L 684 -0 
L 0 -0 
z
" style="fill: #ffffff"/>
  </g>
  <g id="axes_1">
   <g id="patch_2">
    <path d="M 40.68 156.893812 
L 141.12 156.893812 
L 141.12 73.733812 
L 40.68 73.733812 
z
" clip-path="url(#pe1b4615a2e)" style="fill: #e8f4fd; stroke: #000000; stroke-width: 2; stroke-linejoin: miter"/>
   </g>
   <g id="patch_3">
    <path d="M 174.6 156.893812 
L 275.04 156.893812 
L 275.04 73.733812 
L 174.6 73.733812 
z
" clip-path="url(#pe1b4615a2e)" style="fill: #fff3cd; stroke: #000000; stroke-width: 2; stroke-linejoin: miter"/>
   </g>
   <g id="patch_4">
    <path d="M 308.52 156.893812 
L 429.048 156.893812 
L 429.048 73.733812 
L 308.52 73.733812 
z
" clip-path="url(#pe1b4615a2e)" style="fill: #d4edda; stroke: #000000; stroke-width: 2; stroke-linejoin: miter"/>
   </g>
   <g id="patch_5">
    <path d="M 462.528 156.893812 
L 562.968 156.893812 
L 562.968 73.733812 
L 462.528 73.733812 
z
" clip-path="url(#pe1b4615a2e)" style="fill: #fff3cd; stroke: #000000; stroke-width: 2; stroke-linejoin: miter"/>
   </g>
   <g id="patch_6">
    <path d="M 596.448 156.893812 
L 663.408 156.893812 
L 663.408 73.733812 
L 596.448 73.733812 
z
" clip-path="url(#pe1b4615a2e)" style="fill: #d4edda; stroke: #000000; stroke-width: 2; stroke-linejoin: miter"/>
   </g>
   <g id="patch_7">
    <path d="M 40.68 306.581812 
L 141.12 306.581812 
L 141.12 223.421812 
L 40.68 223.421812 
z
" clip-path="url(#pe1b4615a2e)" style="fill: #e8f4fd; stroke: #000000; stroke-width: 2; stroke-linejoin: miter"/>
   </g>
   <g id="patch_8">
    <path d="M 174.6 306.581812 
L 275.04 306.581812 
L 275.04 223.421812 
L 174.6 223.421812 
z
" clip-path="url(#pe1b4615a2e)" style="fill: #fff3cd; stroke: #000000; stroke-width: 2; stroke-linejoin: miter"/>
   </g>
   <g id="patch_9">
    <path d="M 308.52 306.581812 
L 408.96 306.581812 
L 408.96 223.421812 
L 308.52 223.421812 
z
" clip-path="url(#pe1b4615a2e)" style="fill: #d4edda; stroke: #000000; stroke-width: 2; stroke-linejoin: miter"/>
   </g>
   <g id="patch_10">
    <path d="M 442.44 306.581812 
L 562.968 306.581812 
L 562.968 223.421812 
L 442.44 223.421812 
z
" clip-path="url(#pe1b4615a2e)" style="fill: #fff3cd; stroke: #000000; stroke-width: 2; stroke-linejoin: miter"/>
   </g>
   <g id="text_1">
    <!-- CIF File -->
    <g transform="translate(69.978906 118.073187) scale(0.1 -0.1)">
     <defs>
      <path id="DejaVuSans-Bold-43" d="M 4288 256 
Q 3956 84 3597 -3 
Q 3238 -91 2847 -91 
Q 1681 -91 1000 561 
Q 319 1213 319 2328 
Q 319 3447 1000 4098 
Q 1681 4750 2847 4750 
Q 3238 4750 3597 4662 
Q 3956 4575 4288 4403 
L 4288 3438 
Q 3953 3666 3628 3772 
Q 3303 3878 2944 3878 
Q 2300 3878 1931 3465 
Q 1563 3053 1563 2328 
Q 1563 1606 1931 1193 
Q 2300 781 2944 781 
Q 3303 781 3628 887 
Q 3953 994 4288 1222 
L 4288 256 
z
" transform="scale(0.015625)"/>
      <path id="DejaVuSans-Bold-49" d="M 588 4666 
L 1791 4666 
L 1791 0 
L 588 0 
L 588 4666 
z
" transform="scale(0.015625)"/>
      <path id="DejaVuSans-Bold-46" d="M 588 4666 
L 3834 4666 
L 3834 3756 
L 1791 3756 
L 1791 2888 
L 3713 2888 
L 3713 1978 
L 1791 1978 
L 1791 0 
L 588 0 
L 588 4666 
z
" transform="scale(0.015625)"/>
      <path id="DejaVuSans-Bold-20" transform="scale(0.015625)"/>
      <path id="DejaVuSans-Bold-69" d="M 538 3500 
L 1656 3500 
L 1656 0 
L 538 0 
L 538 3500 
z
M 538 4863 
L 1656 4863 
L 1656 3950 
L 538 3950 
L 538 4863 
z
" transform="scale(0.015625)"/>
      <path id="DejaVuSans-Bold-6c" d="M 538 4863 
L 1656 4863 
L 1656 0 
L 538 0 
L 538 4863 
z
" transform="scale(0.015625)"/>
      <path id="DejaVuSans-Bold-65" d="M 4031 1759 
L 4031 1441 
L 1416 1441 
Q 1456 1047 1700 850 
Q 1944 653 2381 653 
Q 2734 653 3104 758 
Q 3475 863 3866 1075 
L 3866 213 
Q 3469 63 3072 -14 
Q 2675 -91 2278 -91 
Q 1328 -91 801 392 
Q 275 875 275 1747 
Q 275 2603 792 3093 
Q 1309 3584 2216 3584 
Q 3041 3584 3536 3087 
Q 4031 2591 4031 1759 
z
M 2881 2131 
Q 2881 2450 2695 2645 
Q 2509 2841 2209 2841 
Q 1884 2841 1681 2658 
Q 1478 2475 1428 2131 
L 2881 2131 
z
" transform="scale(0.015625)"/>
     </defs>
     <use xlink:href="#DejaVuSans-Bold-43"/>
     <use xlink:href="#DejaVuSans-Bold-49" transform="translate(73.388672 0)"/>
     <use xlink:href="#DejaVuSans-Bold-46" transform="translate(110.595703 0)"/>
     <use xlink:href="#DejaVuSans-Bold-20" transform="translate(178.90625 0)"/>
     <use xlink:href="#DejaVuSans-Bold-46" transform="translate(213.720703 0)"/>
     <use xlink:href="#DejaVuSans-Bold-69" transform="translate(282.03125 0)"/>
     <use xlink:href="#DejaVuSans-Bold-6c" transform="translate(316.308594 0)"/>
     <use xlink:href="#DejaVuSans-Bold-65" transform="translate(350.585938 0)"/>
    </g>
   </g>
   <g id="text_2">
    <!-- parse_cif() -->
    <g transform="translate(195.110625 117.934125) scale(0.1 -0.1)">
     <defs>
      <path id="DejaVuSans-Bold-70" d="M 1656 506 
L 1656 -1331 
L 538 -1331 
L 538 3500 
L 1656 3500 
L 1656 2988 
Q 1888 3294 2169 3439 
Q 2450 3584 2816 3584 
Q 3463 3584 3878 3070 
Q 4294 2556 4294 1747 
Q 4294 938 3878 423 
Q 3463 -91 2816 -91 
Q 2450 -91 2169 54 
Q 1888 200 1656 506 
z
M 2400 2772 
Q 2041 2772 1848 2508 
Q 1656 2244 1656 1747 
Q 1656 1250 1848 986 
Q 2041 722 2400 722 
Q 2759 722 2948 984 
Q 3138 1247 3138 1747 
Q 3138 2247 2948 2509 
Q 2759 2772 2400 2772 
z
" transform="scale(0.015625)"/>
      <path id="DejaVuSans-Bold-61" d="M 2106 1575 
Q 1756 1575 1579 1456 
Q 1403 1338 1403 1106 
Q 1403 894 1545 773 
Q 1688 653 1941 653 
Q 2256 653 2472 879 
Q 2688 1106 2688 1447 
L 2688 1575 
L 2106 1575 
z
M 3816 1997 
L 3816 0 
L 2688 0 
L 2688 519 
Q 2463 200 2181 54 
Q 1900 -91 1497 -91 
Q 953 -91 614 226 
Q 275 544 275 1050 
Q 275 1666 698 1953 
Q 1122 2241 2028 2241 
L 2688 2241 
L 2688 2328 
Q 2688 2594 2478 2717 
Q 2269 2841 1825 2841 
Q 1466 2841 1156 2769 
Q 847 2697 581 2553 
L 581 3406 
Q 941 3494 1303 3539 
Q 1666 3584 2028 3584 
Q 2975 3584 3395 3211 
Q 3816 2838 3816 1997 
z
" transform="scale(0.015625)"/>
      <path id="DejaVuSans-Bold-72" d="M 3138 2547 
Q 2991 2616 2845 2648 
Q 2700 2681 2553 2681 
Q 2122 2681 1889 2404 
Q 1656 2128 1656 1613 
L 1656 0 
L 538 0 
L 538 3500 
L 1656 3500 
L 1656 2925 
Q 1872 3269 2151 3426 
Q 2431 3584 2822 3584 
Q 2878 3584 2943 3579 
Q 3009 3575 3134 3559 
L 3138 2547 
z
" transform="scale(0.015625)"/>
      <path id="DejaVuSans-Bold-73" d="M 3272 3391 
L 3272 2541 
Q 2913 2691 2578 2766 
Q 2244 2841 1947 2841 
Q 1628 2841 1473 2761 
Q 1319 2681 1319 2516 
Q 1319 2381 1436 2309 
Q 1553 2238 1856 2203 
L 2053 2175 
Q 2913 2066 3209 1816 
Q 3506 1566 3506 1031 
Q 3506 472 3093 190 
Q 2681 -91 1863 -91 
Q 1516 -91 1145 -36 
Q 775 19 384 128 
L 384 978 
Q 719 816 1070 734 
Q 1422 653 1784 653 
Q 2113 653 2278 743 
Q 2444 834 2444 1013 
Q 2444 1163 2330 1236 
Q 2216 1309 1875 1350 
L 1678 1375 
Q 931 1469 631 1722 
Q 331 1975 331 2491 
Q 331 3047 712 3315 
Q 1094 3584 1881 3584 
Q 2191 3584 2531 3537 
Q 2872 3491 3272 3391 
z
" transform="scale(0.015625)"/>
      <path id="DejaVuSans-Bold-5f" d="M 3200 -916 
L 3200 -1509 
L 0 -1509 
L 0 -916 
L 3200 -916 
z
" transform="scale(0.015625)"/>
      <path id="DejaVuSans-Bold-63" d="M 3366 3391 
L 3366 2478 
Q 3138 2634 2908 2709 
Q 2678 2784 2431 2784 
Q 1963 2784 1702 2511 
Q 1441 2238 1441 1747 
Q 1441 1256 1702 982 
Q 1963 709 2431 709 
Q 2694 709 2930 787 
Q 3166 866 3366 1019 
L 3366 103 
Q 3103 6 2833 -42 
Q 2563 -91 2291 -91 
Q 1344 -91 809 395 
Q 275 881 275 1747 
Q 275 2613 809 3098 
Q 1344 3584 2291 3584 
Q 2566 3584 2833 3536 
Q 3100 3488 3366 3391 
z
" transform="scale(0.015625)"/>
      <path id="DejaVuSans-Bold-66" d="M 2841 4863 
L 2841 4128 
L 2222 4128 
Q 1984 4128 1890 4042 
Q 1797 3956 1797 3744 
L 1797 3500 
L 2753 3500 
L 2753 2700 
L 1797 2700 
L 1797 0 
L 678 0 
L 678 2700 
L 122 2700 
L 122 3500 
L 678 3500 
L 678 3744 
Q 678 4316 997 4589 
Q 1316 4863 1984 4863 
L 2841 4863 
z
" transform="scale(0.015625)"/>
      <path id="DejaVuSans-Bold-28" d="M 2413 -844 
L 1484 -844 
Q 1006 -72 778 623 
Q 550 1319 550 2003 
Q 550 2688 779 3389 
Q 1009 4091 1484 4856 
L 2413 4856 
Q 2013 4116 1813 3408 
Q 1613 2700 1613 2009 
Q 1613 1319 1811 609 
Q 2009 -100 2413 -844 
z
" transform="scale(0.015625)"/>
      <path id="DejaVuSans-Bold-29" d="M 513 -844 
Q 913 -100 1113 609 
Q 1313 1319 1313 2009 
Q 1313 2700 1113 3408 
Q 913 4116 513 4856 
L 1441 4856 
Q 1916 4091 2145 3389 
Q 2375 2688 2375 2003 
Q 2375 1319 2147 623 
Q 1919 -72 1441 -844 
L 513 -844 
z
" transform="scale(0.015625)"/>
     </defs>
     <use xlink:href="#DejaVuSans-Bold-70"/>
     <use xlink:href="#DejaVuSans-Bold-61" transform="translate(71.582031 0)"/>
     <use xlink:href="#DejaVuSans-Bold-72" transform="translate(139.0625 0)"/>
     <use xlink:href="#DejaVuSans-Bold-73" transform="translate(188.378906 0)"/>
     <use xlink:href="#DejaVuSans-Bold-65" transform="translate(247.900391 0)"/>
     <use xlink:href="#DejaVuSans-Bold-5f" transform="translate(315.722656 0)"/>
     <use xlink:href="#DejaVuSans-Bold-63" transform="translate(365.722656 0)"/>
     <use xlink:href="#DejaVuSans-Bold-69" transform="translate(425 0)"/>
     <use xlink:href="#DejaVuSans-Bold-66" transform="translate(459.277344 0)"/>
     <use xlink:href="#DejaVuSans-Bold-28" transform="translate(502.783203 0)"/>
     <use xlink:href="#DejaVuSans-Bold-29" transform="translate(548.486328 0)"/>
    </g>
   </g>
   <g id="text_3">
    <!-- CrystalStructure -->
    <g transform="translate(322.149625 118.034125) scale(0.1 -0.1)">
     <defs>
      <path id="DejaVuSans-Bold-79" d="M 78 3500 
L 1197 3500 
L 2138 1125 
L 2938 3500 
L 4056 3500 
L 2584 -331 
Q 2363 -916 2067 -1148 
Q 1772 -1381 1288 -1381 
L 641 -1381 
L 641 -647 
L 991 -647 
Q 1275 -647 1404 -556 
Q 1534 -466 1606 -231 
L 1638 -134 
L 78 3500 
z
" transform="scale(0.015625)"/>
      <path id="DejaVuSans-Bold-74" d="M 1759 4494 
L 1759 3500 
L 2913 3500 
L 2913 2700 
L 1759 2700 
L 1759 1216 
Q 1759 972 1856 886 
Q 1953 800 2241 800 
L 2816 800 
L 2816 0 
L 1856 0 
Q 1194 0 917 276 
Q 641 553 641 1216 
L 641 2700 
L 84 2700 
L 84 3500 
L 641 3500 
L 641 4494 
L 1759 4494 
z
" transform="scale(0.015625)"/>
      <path id="DejaVuSans-Bold-53" d="M 3834 4519 
L 3834 3531 
Q 3450 3703 3084 3790 
Q 2719 3878 2394 3878 
Q 1963 3878 1756 3759 
Q 1550 3641 1550 3391 
Q 1550 3203 1689 3098 
Q 1828 2994 2194 2919 
L 2706 2816 
Q 3484 2659 3812 2340 
Q 4141 2022 4141 1434 
Q 4141 663 3683 286 
Q 3225 -91 2284 -91 
Q 1841 -91 1394 -6 
Q 947 78 500 244 
L 500 1259 
Q 947 1022 1364 901 
Q 1781 781 2169 781 
Q 2563 781 2772 912 
Q 2981 1044 2981 1288 
Q 2981 1506 2839 1625 
Q 2697 1744 2272 1838 
L 1806 1941 
Q 1106 2091 782 2419 
Q 459 2747 459 3303 
Q 459 4000 909 4375 
Q 1359 4750 2203 4750 
Q 2588 4750 2994 4692 
Q 3400 4634 3834 4519 
z
" transform="scale(0.015625)"/>
      <path id="DejaVuSans-Bold-75" d="M 500 1363 
L 500 3500 
L 1625 3500 
L 1625 3150 
Q 1625 2866 1622 2436 
Q 1619 2006 1619 1863 
Q 1619 1441 1641 1255 
Q 1663 1069 1716 984 
Q 1784 875 1895 815 
Q 2006 756 2150 756 
Q 2500 756 2700 1025 
Q 2900 1294 2900 1772 
L 2900 3500 
L 4019 3500 
L 4019 0 
L 2900 0 
L 2900 506 
Q 2647 200 2364 54 
Q 2081 -91 1741 -91 
Q 1134 -91 817 281 
Q 500 653 500 1363 
z
" transform="scale(0.015625)"/>
     </defs>
     <use xlink:href="#DejaVuSans-Bold-43"/>
     <use xlink:href="#DejaVuSans-Bold-72" transform="translate(73.388672 0)"/>
     <use xlink:href="#DejaVuSans-Bold-79" transform="translate(122.705078 0)"/>
     <use xlink:href="#DejaVuSans-Bold-73" transform="translate(187.890625 0)"/>
     <use xlink:href="#DejaVuSans-Bold-74" transform="translate(247.412109 0)"/>
     <use xlink:href="#DejaVuSans-Bold-61" transform="translate(295.214844 0)"/>
     <use xlink:href="#DejaVuSans-Bold-6c" transform="translate(362.695312 0)"/>
     <use xlink:href="#DejaVuSans-Bold-53" transform="translate(396.972656 0)"/>
     <use xlink:href="#DejaVuSans-Bold-74" transform="translate(468.994141 0)"/>
     <use xlink:href="#DejaVuSans-Bold-72" transform="translate(516.796875 0)"/>
     <use xlink:href="#DejaVuSans-Bold-75" transform="translate(566.113281 0)"/>
     <use xlink:href="#DejaVuSans-Bold-63" transform="translate(637.304688 0)"/>
     <use xlink:href="#DejaVuSans-Bold-74" transform="translate(696.582031 0)"/>
     <use xlink:href="#DejaVuSans-Bold-75" transform="translate(744.384766 0)"/>
     <use xlink:href="#DejaVuSans-Bold-72" transform="translate(815.576172 0)"/>
     <use xlink:href="#DejaVuSans-Bold-65" transform="translate(864.892578 0)"/>
    </g>
   </g>
   <g id="text_4">
    <!-- build_ewald_data() -->
    <g transform="translate(459.637063 117.934125) scale(0.1 -0.1)">
     <defs>
      <path id="DejaVuSans-Bold-62" d="M 2400 722 
Q 2759 722 2948 984 
Q 3138 1247 3138 1747 
Q 3138 2247 2948 2509 
Q 2759 2772 2400 2772 
Q 2041 2772 1848 2508 
Q 1656 2244 1656 1747 
Q 1656 1250 1848 986 
Q 2041 722 2400 722 
z
M 1656 2988 
Q 1888 3294 2169 3439 
Q 2450 3584 2816 3584 
Q 3463 3584 3878 3070 
Q 4294 2556 4294 1747 
Q 4294 938 3878 423 
Q 3463 -91 2816 -91 
Q 2450 -91 2169 54 
Q 1888 200 1656 506 
L 1656 0 
L 538 0 
L 538 4863 
L 1656 4863 
L 1656 2988 
z
" transform="scale(0.015625)"/>
      <path id="DejaVuSans-Bold-64" d="M 2919 2988 
L 2919 4863 
L 4044 4863 
L 4044 0 
L 2919 0 
L 2919 506 
Q 2688 197 2409 53 
Q 2131 -91 1766 -91 
Q 1119 -91 703 423 
Q 288 938 288 1747 
Q 288 2556 703 3070 
Q 1119 3584 1766 3584 
Q 2128 3584 2408 3439 
Q 2688 3294 2919 2988 
z
M 2181 722 
Q 2541 722 2730 984 
Q 2919 1247 2919 1747 
Q 2919 2247 2730 2509 
Q 2541 2772 2181 2772 
Q 1825 2772 1636 2509 
Q 1447 2247 1447 1747 
Q 1447 1247 1636 984 
Q 1825 722 2181 722 
z
" transform="scale(0.015625)"/>
      <path id="DejaVuSans-Bold-77" d="M 225 3500 
L 1313 3500 
L 1900 1088 
L 2491 3500 
L 3425 3500 
L 4013 1113 
L 4603 3500 
L 5691 3500 
L 4769 0 
L 3547 0 
L 2956 2406 
L 2369 0 
L 1147 0 
L 225 3500 
z
" transform="scale(0.015625)"/>
     </defs>
     <use xlink:href="#DejaVuSans-Bold-62"/>
     <use xlink:href="#DejaVuSans-Bold-75" transform="translate(71.582031 0)"/>
     <use xlink:href="#DejaVuSans-Bold-69" transform="translate(142.773438 0)"/>
     <use xlink:href="#DejaVuSans-Bold-6c" transform="translate(177.050781 0)"/>
     <use xlink:href="#DejaVuSans-Bold-64" transform="translate(211.328125 0)"/>
     <use xlink:href="#DejaVuSans-Bold-5f" transform="translate(282.910156 0)"/>
     <use xlink:href="#DejaVuSans-Bold-65" transform="translate(332.910156 0)"/>
     <use xlink:href="#DejaVuSans-Bold-77" transform="translate(400.732422 0)"/>
     <use xlink:href="#DejaVuSans-Bold-61" transform="translate(493.115234 0)"/>
     <use xlink:href="#DejaVuSans-Bold-6c" transform="translate(560.595703 0)"/>
     <use xlink:href="#DejaVuSans-Bold-64" transform="translate(594.873047 0)"/>
     <use xlink:href="#DejaVuSans-Bold-5f" transform="translate(666.455078 0)"/>
     <use xlink:href="#DejaVuSans-Bold-64" transform="translate(716.455078 0)"/>
     <use xlink:href="#DejaVuSans-Bold-61" transform="translate(788.037109 0)"/>
     <use xlink:href="#DejaVuSans-Bold-74" transform="translate(855.517578 0)"/>
     <use xlink:href="#DejaVuSans-Bold-61" transform="translate(903.320312 0)"/>
     <use xlink:href="#DejaVuSans-Bold-28" transform="translate(970.800781 0)"/>
     <use xlink:href="#DejaVuSans-Bold-29" transform="translate(1016.503906 0)"/>
    </g>
   </g>
   <g id="text_5">
    <!-- EwaldData -->
    <g transform="translate(599.936594 118.073187) scale(0.1 -0.1)">
     <defs>
      <path id="DejaVuSans-Bold-45" d="M 588 4666 
L 3834 4666 
L 3834 3756 
L 1791 3756 
L 1791 2888 
L 3713 2888 
L 3713 1978 
L 1791 1978 
L 1791 909 
L 3903 909 
L 3903 0 
L 588 0 
L 588 4666 
z
" transform="scale(0.015625)"/>
      <path id="DejaVuSans-Bold-44" d="M 1791 3756 
L 1791 909 
L 2222 909 
Q 2959 909 3348 1275 
Q 3738 1641 3738 2338 
Q 3738 3031 3350 3393 
Q 2963 3756 2222 3756 
L 1791 3756 
z
M 588 4666 
L 1856 4666 
Q 2919 4666 3439 4514 
Q 3959 4363 4331 4000 
Q 4659 3684 4818 3271 
Q 4978 2859 4978 2338 
Q 4978 1809 4818 1395 
Q 4659 981 4331 666 
Q 3956 303 3431 151 
Q 2906 0 1856 0 
L 588 0 
L 588 4666 
z
" transform="scale(0.015625)"/>
     </defs>
     <use xlink:href="#DejaVuSans-Bold-45"/>
     <use xlink:href="#DejaVuSans-Bold-77" transform="translate(68.310547 0)"/>
     <use xlink:href="#DejaVuSans-Bold-61" transform="translate(160.693359 0)"/>
     <use xlink:href="#DejaVuSans-Bold-6c" transform="translate(228.173828 0)"/>
     <use xlink:href="#DejaVuSans-Bold-64" transform="translate(262.451172 0)"/>
     <use xlink:href="#DejaVuSans-Bold-44" transform="translate(334.033203 0)"/>
     <use xlink:href="#DejaVuSans-Bold-61" transform="translate(417.041016 0)"/>
     <use xlink:href="#DejaVuSans-Bold-74" transform="translate(484.521484 0)"/>
     <use xlink:href="#DejaVuSans-Bold-61" transform="translate(532.324219 0)"/>
    </g>
   </g>
   <g id="text_6">
    <!-- XYZ File -->
    <g transform="translate(67.823438 267.761187) scale(0.1 -0.1)">
     <defs>
      <path id="DejaVuSans-Bold-58" d="M 3188 2381 
L 4806 0 
L 3553 0 
L 2463 1594 
L 1381 0 
L 122 0 
L 1741 2381 
L 184 4666 
L 1441 4666 
L 2463 3163 
L 3481 4666 
L 4744 4666 
L 3188 2381 
z
" transform="scale(0.015625)"/>
      <path id="DejaVuSans-Bold-59" d="M -63 4666 
L 1253 4666 
L 2316 3003 
L 3378 4666 
L 4697 4666 
L 2919 1966 
L 2919 0 
L 1716 0 
L 1716 1966 
L -63 4666 
z
" transform="scale(0.015625)"/>
      <path id="DejaVuSans-Bold-5a" d="M 359 4666 
L 4281 4666 
L 4281 3938 
L 1778 909 
L 4353 909 
L 4353 0 
L 288 0 
L 288 728 
L 2791 3756 
L 359 3756 
L 359 4666 
z
" transform="scale(0.015625)"/>
     </defs>
     <use xlink:href="#DejaVuSans-Bold-58"/>
     <use xlink:href="#DejaVuSans-Bold-59" transform="translate(77.099609 0)"/>
     <use xlink:href="#DejaVuSans-Bold-5a" transform="translate(149.511719 0)"/>
     <use xlink:href="#DejaVuSans-Bold-20" transform="translate(222.021484 0)"/>
     <use xlink:href="#DejaVuSans-Bold-46" transform="translate(256.835938 0)"/>
     <use xlink:href="#DejaVuSans-Bold-69" transform="translate(325.146484 0)"/>
     <use xlink:href="#DejaVuSans-Bold-6c" transform="translate(359.423828 0)"/>
     <use xlink:href="#DejaVuSans-Bold-65" transform="translate(393.701172 0)"/>
    </g>
   </g>
   <g id="text_7">
    <!-- parse_xyz() -->
    <g transform="translate(192.569219 267.616656) scale(0.1 -0.1)">
     <defs>
      <path id="DejaVuSans-Bold-78" d="M 1422 1791 
L 159 3500 
L 1344 3500 
L 2059 2463 
L 2784 3500 
L 3969 3500 
L 2706 1797 
L 4031 0 
L 2847 0 
L 2059 1106 
L 1281 0 
L 97 0 
L 1422 1791 
z
" transform="scale(0.015625)"/>
      <path id="DejaVuSans-Bold-7a" d="M 366 3500 
L 3419 3500 
L 3419 2719 
L 1575 800 
L 3419 800 
L 3419 0 
L 288 0 
L 288 781 
L 2131 2700 
L 366 2700 
L 366 3500 
z
" transform="scale(0.015625)"/>
     </defs>
     <use xlink:href="#DejaVuSans-Bold-70"/>
     <use xlink:href="#DejaVuSans-Bold-61" transform="translate(71.582031 0)"/>
     <use xlink:href="#DejaVuSans-Bold-72" transform="translate(139.0625 0)"/>
     <use xlink:href="#DejaVuSans-Bold-73" transform="translate(188.378906 0)"/>
     <use xlink:href="#DejaVuSans-Bold-65" transform="translate(247.900391 0)"/>
     <use xlink:href="#DejaVuSans-Bold-5f" transform="translate(315.722656 0)"/>
     <use xlink:href="#DejaVuSans-Bold-78" transform="translate(365.722656 0)"/>
     <use xlink:href="#DejaVuSans-Bold-79" transform="translate(430.224609 0)"/>
     <use xlink:href="#DejaVuSans-Bold-7a" transform="translate(495.410156 0)"/>
     <use xlink:href="#DejaVuSans-Bold-28" transform="translate(553.613281 0)"/>
     <use xlink:href="#DejaVuSans-Bold-29" transform="translate(599.316406 0)"/>
    </g>
   </g>
   <g id="text_8">
    <!-- XYZData -->
    <g transform="translate(334.350156 267.761187) scale(0.1 -0.1)">
     <use xlink:href="#DejaVuSans-Bold-58"/>
     <use xlink:href="#DejaVuSans-Bold-59" transform="translate(77.099609 0)"/>
     <use xlink:href="#DejaVuSans-Bold-5a" transform="translate(149.511719 0)"/>
     <use xlink:href="#DejaVuSans-Bold-44" transform="translate(222.021484 0)"/>
     <use xlink:href="#DejaVuSans-Bold-61" transform="translate(305.029297 0)"/>
     <use xlink:href="#DejaVuSans-Bold-74" transform="translate(372.509766 0)"/>
     <use xlink:href="#DejaVuSans-Bold-61" transform="translate(420.3125 0)"/>
    </g>
   </g>
   <g id="text_9">
    <!-- xyz_to_crystal() -->
    <g transform="translate(458.771187 267.622125) scale(0.1 -0.1)">
     <defs>
      <path id="DejaVuSans-Bold-6f" d="M 2203 2784 
Q 1831 2784 1636 2517 
Q 1441 2250 1441 1747 
Q 1441 1244 1636 976 
Q 1831 709 2203 709 
Q 2569 709 2762 976 
Q 2956 1244 2956 1747 
Q 2956 2250 2762 2517 
Q 2569 2784 2203 2784 
z
M 2203 3584 
Q 3106 3584 3614 3096 
Q 4122 2609 4122 1747 
Q 4122 884 3614 396 
Q 3106 -91 2203 -91 
Q 1297 -91 786 396 
Q 275 884 275 1747 
Q 275 2609 786 3096 
Q 1297 3584 2203 3584 
z
" transform="scale(0.015625)"/>
     </defs>
     <use xlink:href="#DejaVuSans-Bold-78"/>
     <use xlink:href="#DejaVuSans-Bold-79" transform="translate(64.501953 0)"/>
     <use xlink:href="#DejaVuSans-Bold-7a" transform="translate(129.6875 0)"/>
     <use xlink:href="#DejaVuSans-Bold-5f" transform="translate(187.890625 0)"/>
     <use xlink:href="#DejaVuSans-Bold-74" transform="translate(237.890625 0)"/>
     <use xlink:href="#DejaVuSans-Bold-6f" transform="translate(285.693359 0)"/>
     <use xlink:href="#DejaVuSans-Bold-5f" transform="translate(354.394531 0)"/>
     <use xlink:href="#DejaVuSans-Bold-63" transform="translate(404.394531 0)"/>
     <use xlink:href="#DejaVuSans-Bold-72" transform="translate(463.671875 0)"/>
     <use xlink:href="#DejaVuSans-Bold-79" transform="translate(512.988281 0)"/>
     <use xlink:href="#DejaVuSans-Bold-73" transform="translate(578.173828 0)"/>
     <use xlink:href="#DejaVuSans-Bold-74" transform="translate(637.695312 0)"/>
     <use xlink:href="#DejaVuSans-Bold-61" transform="translate(685.498047 0)"/>
     <use xlink:href="#DejaVuSans-Bold-6c" transform="translate(752.978516 0)"/>
     <use xlink:href="#DejaVuSans-Bold-28" transform="translate(787.255859 0)"/>
     <use xlink:href="#DejaVuSans-Bold-29" transform="translate(832.958984 0)"/>
    </g>
   </g>
   <g id="patch_11">
    <path d="M 143.118501 115.313812 
Q 157.85816 115.313812 170.920769 115.313812 
" style="fill: none; stroke: #000000; stroke-width: 1.5; stroke-linecap: round"/>
    <path d="M 166.920769 113.313812 
L 170.920769 115.313812 
L 166.920769 117.313812 
" style="fill: none; stroke: #000000; stroke-width: 1.5; stroke-linecap: round"/>
   </g>
   <g id="patch_12">
    <path d="M 277.038501 115.313812 
Q 291.77816 115.313812 304.840769 115.313812 
" style="fill: none; stroke: #000000; stroke-width: 1.5; stroke-linecap: round"/>
    <path d="M 300.840769 113.313812 
L 304.840769 115.313812 
L 300.840769 117.313812 
" style="fill: none; stroke: #000000; stroke-width: 1.5; stroke-linecap: round"/>
   </g>
   <g id="patch_13">
    <path d="M 431.046501 115.313812 
Q 445.78616 115.313812 458.848769 115.313812 
" style="fill: none; stroke: #000000; stroke-width: 1.5; stroke-linecap: round"/>
    <path d="M 454.848769 113.313812 
L 458.848769 115.313812 
L 454.848769 117.313812 
" style="fill: none; stroke: #000000; stroke-width: 1.5; stroke-linecap: round"/>
   </g>
   <g id="patch_14">
    <path d="M 564.966501 115.313812 
Q 579.70616 115.313812 592.768769 115.313812 
" style="fill: none; stroke: #000000; stroke-width: 1.5; stroke-linecap: round"/>
    <path d="M 588.768769 113.313812 
L 592.768769 115.313812 
L 588.768769 117.313812 
" style="fill: none; stroke: #000000; stroke-width: 1.5; stroke-linecap: round"/>
   </g>
   <g id="patch_15">
    <path d="M 143.118501 265.001812 
Q 157.85816 265.001812 170.920769 265.001812 
" style="fill: none; stroke: #000000; stroke-width: 1.5; stroke-linecap: round"/>
    <path d="M 166.920769 263.001812 
L 170.920769 265.001812 
L 166.920769 267.001812 
" style="fill: none; stroke: #000000; stroke-width: 1.5; stroke-linecap: round"/>
   </g>
   <g id="patch_16">
    <path d="M 277.038501 265.001812 
Q 291.77816 265.001812 304.840769 265.001812 
" style="fill: none; stroke: #000000; stroke-width: 1.5; stroke-linecap: round"/>
    <path d="M 300.840769 263.001812 
L 304.840769 265.001812 
L 300.840769 267.001812 
" style="fill: none; stroke: #000000; stroke-width: 1.5; stroke-linecap: round"/>
   </g>
   <g id="patch_17">
    <path d="M 410.958501 265.001812 
Q 425.69816 265.001812 438.760769 265.001812 
" style="fill: none; stroke: #000000; stroke-width: 1.5; stroke-linecap: round"/>
    <path d="M 434.760769 263.001812 
L 438.760769 265.001812 
L 434.760769 267.001812 
" style="fill: none; stroke: #000000; stroke-width: 1.5; stroke-linecap: round"/>
   </g>
   <g id="patch_18">
    <path d="M 368.784 221.420978 
Q 368.784 198.474622 368.784 177.205316 
" style="fill: none; stroke: #000000; stroke-width: 1.5; stroke-linecap: round"/>
    <path d="M 366.784 181.205316 
L 368.784 177.205316 
L 370.784 181.205316 
" style="fill: none; stroke: #000000; stroke-width: 1.5; stroke-linecap: round"/>
   </g>
   <g id="text_10">
    <!-- Data Processing Pipeline -->
    <g transform="translate(243.687187 17.837812) scale(0.14 -0.14)">
     <defs>
      <path id="DejaVuSans-Bold-50" d="M 588 4666 
L 2584 4666 
Q 3475 4666 3951 4270 
Q 4428 3875 4428 3144 
Q 4428 2409 3951 2014 
Q 3475 1619 2584 1619 
L 1791 1619 
L 1791 0 
L 588 0 
L 588 4666 
z
M 1791 3794 
L 1791 2491 
L 2456 2491 
Q 2806 2491 2997 2661 
Q 3188 2831 3188 3144 
Q 3188 3456 2997 3625 
Q 2806 3794 2456 3794 
L 1791 3794 
z
" transform="scale(0.015625)"/>
      <path id="DejaVuSans-Bold-6e" d="M 4056 2131 
L 4056 0 
L 2931 0 
L 2931 347 
L 2931 1631 
Q 2931 2084 2911 2256 
Q 2891 2428 2841 2509 
Q 2775 2619 2662 2680 
Q 2550 2741 2406 2741 
Q 2056 2741 1856 2470 
Q 1656 2200 1656 1722 
L 1656 0 
L 538 0 
L 538 3500 
L 1656 3500 
L 1656 2988 
Q 1909 3294 2193 3439 
Q 2478 3584 2822 3584 
Q 3428 3584 3742 3212 
Q 4056 2841 4056 2131 
z
" transform="scale(0.015625)"/>
      <path id="DejaVuSans-Bold-67" d="M 2919 594 
Q 2688 288 2409 144 
Q 2131 0 1766 0 
Q 1125 0 706 504 
Q 288 1009 288 1791 
Q 288 2575 706 3076 
Q 1125 3578 1766 3578 
Q 2131 3578 2409 3434 
Q 2688 3291 2919 2981 
L 2919 3500 
L 4044 3500 
L 4044 353 
Q 4044 -491 3511 -936 
Q 2978 -1381 1966 -1381 
Q 1638 -1381 1331 -1331 
Q 1025 -1281 716 -1178 
L 716 -306 
Q 1009 -475 1290 -558 
Q 1572 -641 1856 -641 
Q 2406 -641 2662 -400 
Q 2919 -159 2919 353 
L 2919 594 
z
M 2181 2772 
Q 1834 2772 1640 2515 
Q 1447 2259 1447 1791 
Q 1447 1309 1634 1061 
Q 1822 813 2181 813 
Q 2531 813 2725 1069 
Q 2919 1325 2919 1791 
Q 2919 2259 2725 2515 
Q 2531 2772 2181 2772 
z
" transform="scale(0.015625)"/>
     </defs>
     <use xlink:href="#DejaVuSans-Bold-44"/>
     <use xlink:href="#DejaVuSans-Bold-61" transform="translate(83.007812 0)"/>
     <use xlink:href="#DejaVuSans-Bold-74" transform="translate(150.488281 0)"/>
     <use xlink:href="#DejaVuSans-Bold-61" transform="translate(198.291016 0)"/>
     <use xlink:href="#DejaVuSans-Bold-20" transform="translate(265.771484 0)"/>
     <use xlink:href="#DejaVuSans-Bold-50" transform="translate(300.585938 0)"/>
     <use xlink:href="#DejaVuSans-Bold-72" transform="translate(373.876953 0)"/>
     <use xlink:href="#DejaVuSans-Bold-6f" transform="translate(423.193359 0)"/>
     <use xlink:href="#DejaVuSans-Bold-63" transform="translate(491.894531 0)"/>
     <use xlink:href="#DejaVuSans-Bold-65" transform="translate(551.171875 0)"/>
     <use xlink:href="#DejaVuSans-Bold-73" transform="translate(618.994141 0)"/>
     <use xlink:href="#DejaVuSans-Bold-73" transform="translate(678.515625 0)"/>
     <use xlink:href="#DejaVuSans-Bold-69" transform="translate(738.037109 0)"/>
     <use xlink:href="#DejaVuSans-Bold-6e" transform="translate(772.314453 0)"/>
     <use xlink:href="#DejaVuSans-Bold-67" transform="translate(843.505859 0)"/>
     <use xlink:href="#DejaVuSans-Bold-20" transform="translate(915.087891 0)"/>
     <use xlink:href="#DejaVuSans-Bold-50" transform="translate(949.902344 0)"/>
     <use xlink:href="#DejaVuSans-Bold-69" transform="translate(1023.193359 0)"/>
     <use xlink:href="#DejaVuSans-Bold-70" transform="translate(1057.470703 0)"/>
     <use xlink:href="#DejaVuSans-Bold-65" transform="translate(1129.052734 0)"/>
     <use xlink:href="#DejaVuSans-Bold-6c" transform="translate(1196.875 0)"/>
     <use xlink:href="#DejaVuSans-Bold-69" transform="translate(1231.152344 0)"/>
     <use xlink:href="#DejaVuSans-Bold-6e" transform="translate(1265.429688 0)"/>
     <use xlink:href="#DejaVuSans-Bold-65" transform="translate(1336.621094 0)"/>
    </g>
   </g>
  </g>
 </g>
 <defs>
  <clipPath id="pe1b4615a2e">
   <rect x="7.2" y="23.837812" width="669.6" height="332.64"/>
  </clipPath>
 </defs>
</svg>
