<?xml version="1.0" encoding="utf-8" standalone="no"?>
<!DOCTYPE svg PUBLIC "-//W3C//DTD SVG 1.1//EN"
  "http://www.w3.org/Graphics/SVG/1.1/DTD/svg11.dtd">
<svg xmlns:xlink="http://www.w3.org/1999/xlink" width="795.6pt" height="488.557812pt" viewBox="0 0 795.6 488.557812" xmlns="http://www.w3.org/2000/svg" version="1.1">
 <metadata>
  <rdf:RDF xmlns:dc="http://purl.org/dc/elements/1.1/" xmlns:cc="http://creativecommons.org/ns#" xmlns:rdf="http://www.w3.org/1999/02/22-rdf-syntax-ns#">
   <cc:Work>
    <dc:type rdf:resource="http://purl.org/dc/dcmitype/StillImage"/>
    <dc:date>2025-12-29T00:17:29.470253</dc:date>
    <dc:format>image/svg+xml</dc:format>
    <dc:creator>
     <cc:Agent>
      <dc:title>Matplotlib v3.10.3, https://matplotlib.org/</dc:title>
     </cc:Agent>
    </dc:creator>
   </cc:Work>
  </rdf:RDF>
 </metadata>
 <defs>
  <style type="text/css">*{stroke-linejoin: round; stroke-linecap: butt}</style>
 </defs>
 <g id="figure_1">
  <g id="patch_1">
   <path d="M 0 488.557812 
L 795.6 488.557812 
L 795.6 0 
L 0 0 
z
" style="fill: #ffffff"/>
  </g>
  <g id="axes_1">
   <g id="patch_2">
    <path d="M 100.944 153.153012 
L 225.936 153.153012 
L 225.936 117.671412 
L 100.944 117.671412 
z
" clip-path="url(#pbc7f8c3235)" style="fill: #e8f4fd; stroke: #000000; stroke-width: 2; stroke-linejoin: miter"/>
   </g>
   <g id="patch_3">
    <path d="M 335.304 153.153012 
L 460.296 153.153012 
L 460.296 117.671412 
L 335.304 117.671412 
z
" clip-path="url(#pbc7f8c3235)" style="fill: #e8f4fd; stroke: #000000; stroke-width: 2; stroke-linejoin: miter"/>
   </g>
   <g id="patch_4">
    <path d="M 569.664 153.153012 
L 694.656 153.153012 
L 694.656 117.671412 
L 569.664 117.671412 
z
" clip-path="url(#pbc7f8c3235)" style="fill: #e8f4fd; stroke: #000000; stroke-width: 2; stroke-linejoin: miter"/>
   </g>
   <g id="patch_5">
    <path d="M 46.26 241.857012 
L 155.628 241.857012 
L 155.628 206.375412 
L 46.26 206.375412 
z
" clip-path="url(#pbc7f8c3235)" style="fill: #fff3cd; stroke: #000000; stroke-width: 1.5; stroke-linejoin: miter"/>
   </g>
   <g id="patch_6">
    <path d="M 171.252 241.857012 
L 280.62 241.857012 
L 280.62 206.375412 
L 171.252 206.375412 
z
" clip-path="url(#pbc7f8c3235)" style="fill: #fff3cd; stroke: #000000; stroke-width: 1.5; stroke-linejoin: miter"/>
   </g>
   <g id="patch_7">
    <path d="M 280.62 241.857012 
L 389.988 241.857012 
L 389.988 206.375412 
L 280.62 206.375412 
z
" clip-path="url(#pbc7f8c3235)" style="fill: #d4edda; stroke: #000000; stroke-width: 1.5; stroke-linejoin: miter"/>
   </g>
   <g id="patch_8">
    <path d="M 405.612 241.857012 
L 514.98 241.857012 
L 514.98 206.375412 
L 405.612 206.375412 
z
" clip-path="url(#pbc7f8c3235)" style="fill: #d4edda; stroke: #000000; stroke-width: 1.5; stroke-linejoin: miter"/>
   </g>
   <g id="patch_9">
    <path d="M 514.98 241.857012 
L 624.348 241.857012 
L 624.348 206.375412 
L 514.98 206.375412 
z
" clip-path="url(#pbc7f8c3235)" style="fill: #f8d7da; stroke: #000000; stroke-width: 1.5; stroke-linejoin: miter"/>
   </g>
   <g id="patch_10">
    <path d="M 639.972 241.857012 
L 749.34 241.857012 
L 749.34 206.375412 
L 639.972 206.375412 
z
" clip-path="url(#pbc7f8c3235)" style="fill: #f8d7da; stroke: #000000; stroke-width: 1.5; stroke-linejoin: miter"/>
   </g>
   <g id="line2d_1">
    <path d="M 163.44 153.153012 
L 100.944 206.375412 
" clip-path="url(#pbc7f8c3235)" style="fill: none; stroke: #000000; stroke-linecap: square"/>
   </g>
   <g id="line2d_2">
    <path d="M 163.44 153.153012 
L 225.936 206.375412 
" clip-path="url(#pbc7f8c3235)" style="fill: none; stroke: #000000; stroke-linecap: square"/>
   </g>
   <g id="line2d_3">
    <path d="M 397.8 153.153012 
L 335.304 206.375412 
" clip-path="url(#pbc7f8c3235)" style="fill: none; stroke: #000000; stroke-linecap: square"/>
   </g>
   <g id="line2d_4">
    <path d="M 397.8 153.153012 
L 460.296 206.375412 
" clip-path="url(#pbc7f8c3235)" style="fill: none; stroke: #000000; stroke-linecap: square"/>
   </g>
   <g id="line2d_5">
    <path d="M 632.16 153.153012 
L 569.664 206.375412 
" clip-path="url(#pbc7f8c3235)" style="fill: none; stroke: #000000; stroke-linecap: square"/>
   </g>
   <g id="line2d_6">
    <path d="M 632.16 153.153012 
L 694.656 206.375412 
" clip-path="url(#pbc7f8c3235)" style="fill: none; stroke: #000000; stroke-linecap: square"/>
   </g>
   <g id="text_1">
    <!-- rheedium Data Structures -->
    <g transform="translate(280.35625 64.428812) scale(0.16 -0.16)">
     <defs>
      <path id="DejaVuSans-Bold-72" d="M 3138 2547 
Q 2991 2616 2845 2648 
Q 2700 2681 2553 2681 
Q 2122 2681 1889 2404 
Q 1656 2128 1656 1613 
L 1656 0 
L 538 0 
L 538 3500 
L 1656 3500 
L 1656 2925 
Q 1872 3269 2151 3426 
Q 2431 3584 2822 3584 
Q 2878 3584 2943 3579 
Q 3009 3575 3134 3559 
L 3138 2547 
z
" transform="scale(0.015625)"/>
      <path id="DejaVuSans-Bold-68" d="M 4056 2131 
L 4056 0 
L 2931 0 
L 2931 347 
L 2931 1625 
Q 2931 2084 2911 2256 
Q 2891 2428 2841 2509 
Q 2775 2619 2662 2680 
Q 2550 2741 2406 2741 
Q 2056 2741 1856 2470 
Q 1656 2200 1656 1722 
L 1656 0 
L 538 0 
L 538 4863 
L 1656 4863 
L 1656 2988 
Q 1909 3294 2193 3439 
Q 2478 3584 2822 3584 
Q 3428 3584 3742 3212 
Q 4056 2841 4056 2131 
z
" transform="scale(0.015625)"/>
      <path id="DejaVuSans-Bold-65" d="M 4031 1759 
L 4031 1441 
L 1416 1441 
Q 1456 1047 1700 850 
Q 1944 653 2381 653 
Q 2734 653 3104 758 
Q 3475 863 3866 1075 
L 3866 213 
Q 3469 63 3072 -14 
Q 2675 -91 2278 -91 
Q 1328 -91 801 392 
Q 275 875 275 1747 
Q 275 2603 792 3093 
Q 1309 3584 2216 3584 
Q 3041 3584 3536 3087 
Q 4031 2591 4031 1759 
z
M 2881 2131 
Q 2881 2450 2695 2645 
Q 2509 2841 2209 2841 
Q 1884 2841 1681 2658 
Q 1478 2475 1428 2131 
L 2881 2131 
z
" transform="scale(0.015625)"/>
      <path id="DejaVuSans-Bold-64" d="M 2919 2988 
L 2919 4863 
L 4044 4863 
L 4044 0 
L 2919 0 
L 2919 506 
Q 2688 197 2409 53 
Q 2131 -91 1766 -91 
Q 1119 -91 703 423 
Q 288 938 288 1747 
Q 288 2556 703 3070 
Q 1119 3584 1766 3584 
Q 2128 3584 2408 3439 
Q 2688 3294 2919 2988 
z
M 2181 722 
Q 2541 722 2730 984 
Q 2919 1247 2919 1747 
Q 2919 2247 2730 2509 
Q 2541 2772 2181 2772 
Q 1825 2772 1636 2509 
Q 1447 2247 1447 1747 
Q 1447 1247 1636 984 
Q 1825 722 2181 722 
z
" transform="scale(0.015625)"/>
      <path id="DejaVuSans-Bold-69" d="M 538 3500 
L 1656 3500 
L 1656 0 
L 538 0 
L 538 3500 
z
M 538 4863 
L 1656 4863 
L 1656 3950 
L 538 3950 
L 538 4863 
z
" transform="scale(0.015625)"/>
      <path id="DejaVuSans-Bold-75" d="M 500 1363 
L 500 3500 
L 1625 3500 
L 1625 3150 
Q 1625 2866 1622 2436 
Q 1619 2006 1619 1863 
Q 1619 1441 1641 1255 
Q 1663 1069 1716 984 
Q 1784 875 1895 815 
Q 2006 756 2150 756 
Q 2500 756 2700 1025 
Q 2900 1294 2900 1772 
L 2900 3500 
L 4019 3500 
L 4019 0 
L 2900 0 
L 2900 506 
Q 2647 200 2364 54 
Q 2081 -91 1741 -91 
Q 1134 -91 817 281 
Q 500 653 500 1363 
z
" transform="scale(0.015625)"/>
      <path id="DejaVuSans-Bold-6d" d="M 3781 2919 
Q 3994 3244 4286 3414 
Q 4578 3584 4928 3584 
Q 5531 3584 5847 3212 
Q 6163 2841 6163 2131 
L 6163 0 
L 5038 0 
L 5038 1825 
Q 5041 1866 5042 1909 
Q 5044 1953 5044 2034 
Q 5044 2406 4934 2573 
Q 4825 2741 4581 2741 
Q 4263 2741 4089 2478 
Q 3916 2216 3909 1719 
L 3909 0 
L 2784 0 
L 2784 1825 
Q 2784 2406 2684 2573 
Q 2584 2741 2328 2741 
Q 2006 2741 1831 2477 
Q 1656 2213 1656 1722 
L 1656 0 
L 531 0 
L 531 3500 
L 1656 3500 
L 1656 2988 
Q 1863 3284 2130 3434 
Q 2397 3584 2719 3584 
Q 3081 3584 3359 3409 
Q 3638 3234 3781 2919 
z
" transform="scale(0.015625)"/>
      <path id="DejaVuSans-Bold-20" transform="scale(0.015625)"/>
      <path id="DejaVuSans-Bold-44" d="M 1791 3756 
L 1791 909 
L 2222 909 
Q 2959 909 3348 1275 
Q 3738 1641 3738 2338 
Q 3738 3031 3350 3393 
Q 2963 3756 2222 3756 
L 1791 3756 
z
M 588 4666 
L 1856 4666 
Q 2919 4666 3439 4514 
Q 3959 4363 4331 4000 
Q 4659 3684 4818 3271 
Q 4978 2859 4978 2338 
Q 4978 1809 4818 1395 
Q 4659 981 4331 666 
Q 3956 303 3431 151 
Q 2906 0 1856 0 
L 588 0 
L 588 4666 
z
" transform="scale(0.015625)"/>
      <path id="DejaVuSans-Bold-61" d="M 2106 1575 
Q 1756 1575 1579 1456 
Q 1403 1338 1403 1106 
Q 1403 894 1545 773 
Q 1688 653 1941 653 
Q 2256 653 2472 879 
Q 2688 1106 2688 1447 
L 2688 1575 
L 2106 1575 
z
M 3816 1997 
L 3816 0 
L 2688 0 
L 2688 519 
Q 2463 200 2181 54 
Q 1900 -91 1497 -91 
Q 953 -91 614 226 
Q 275 544 275 1050 
Q 275 1666 698 1953 
Q 1122 2241 2028 2241 
L 2688 2241 
L 2688 2328 
Q 2688 2594 2478 2717 
Q 2269 2841 1825 2841 
Q 1466 2841 1156 2769 
Q 847 2697 581 2553 
L 581 3406 
Q 941 3494 1303 3539 
Q 1666 3584 2028 3584 
Q 2975 3584 3395 3211 
Q 3816 2838 3816 1997 
z
" transform="scale(0.015625)"/>
      <path id="DejaVuSans-Bold-74" d="M 1759 4494 
L 1759 3500 
L 2913 3500 
L 2913 2700 
L 1759 2700 
L 1759 1216 
Q 1759 972 1856 886 
Q 1953 800 2241 800 
L 2816 800 
L 2816 0 
L 1856 0 
Q 1194 0 917 276 
Q 641 553 641 1216 
L 641 2700 
L 84 2700 
L 84 3500 
L 641 3500 
L 641 4494 
L 1759 4494 
z
" transform="scale(0.015625)"/>
      <path id="DejaVuSans-Bold-53" d="M 3834 4519 
L 3834 3531 
Q 3450 3703 3084 3790 
Q 2719 3878 2394 3878 
Q 1963 3878 1756 3759 
Q 1550 3641 1550 3391 
Q 1550 3203 1689 3098 
Q 1828 2994 2194 2919 
L 2706 2816 
Q 3484 2659 3812 2340 
Q 4141 2022 4141 1434 
Q 4141 663 3683 286 
Q 3225 -91 2284 -91 
Q 1841 -91 1394 -6 
Q 947 78 500 244 
L 500 1259 
Q 947 1022 1364 901 
Q 1781 781 2169 781 
Q 2563 781 2772 912 
Q 2981 1044 2981 1288 
Q 2981 1506 2839 1625 
Q 2697 1744 2272 1838 
L 1806 1941 
Q 1106 2091 782 2419 
Q 459 2747 459 3303 
Q 459 4000 909 4375 
Q 1359 4750 2203 4750 
Q 2588 4750 2994 4692 
Q 3400 4634 3834 4519 
z
" transform="scale(0.015625)"/>
      <path id="DejaVuSans-Bold-63" d="M 3366 3391 
L 3366 2478 
Q 3138 2634 2908 2709 
Q 2678 2784 2431 2784 
Q 1963 2784 1702 2511 
Q 1441 2238 1441 1747 
Q 1441 1256 1702 982 
Q 1963 709 2431 709 
Q 2694 709 2930 787 
Q 3166 866 3366 1019 
L 3366 103 
Q 3103 6 2833 -42 
Q 2563 -91 2291 -91 
Q 1344 -91 809 395 
Q 275 881 275 1747 
Q 275 2613 809 3098 
Q 1344 3584 2291 3584 
Q 2566 3584 2833 3536 
Q 3100 3488 3366 3391 
z
" transform="scale(0.015625)"/>
      <path id="DejaVuSans-Bold-73" d="M 3272 3391 
L 3272 2541 
Q 2913 2691 2578 2766 
Q 2244 2841 1947 2841 
Q 1628 2841 1473 2761 
Q 1319 2681 1319 2516 
Q 1319 2381 1436 2309 
Q 1553 2238 1856 2203 
L 2053 2175 
Q 2913 2066 3209 1816 
Q 3506 1566 3506 1031 
Q 3506 472 3093 190 
Q 2681 -91 1863 -91 
Q 1516 -91 1145 -36 
Q 775 19 384 128 
L 384 978 
Q 719 816 1070 734 
Q 1422 653 1784 653 
Q 2113 653 2278 743 
Q 2444 834 2444 1013 
Q 2444 1163 2330 1236 
Q 2216 1309 1875 1350 
L 1678 1375 
Q 931 1469 631 1722 
Q 331 1975 331 2491 
Q 331 3047 712 3315 
Q 1094 3584 1881 3584 
Q 2191 3584 2531 3537 
Q 2872 3491 3272 3391 
z
" transform="scale(0.015625)"/>
     </defs>
     <use xlink:href="#DejaVuSans-Bold-72"/>
     <use xlink:href="#DejaVuSans-Bold-68" transform="translate(49.316406 0)"/>
     <use xlink:href="#DejaVuSans-Bold-65" transform="translate(120.507812 0)"/>
     <use xlink:href="#DejaVuSans-Bold-65" transform="translate(188.330078 0)"/>
     <use xlink:href="#DejaVuSans-Bold-64" transform="translate(256.152344 0)"/>
     <use xlink:href="#DejaVuSans-Bold-69" transform="translate(327.734375 0)"/>
     <use xlink:href="#DejaVuSans-Bold-75" transform="translate(362.011719 0)"/>
     <use xlink:href="#DejaVuSans-Bold-6d" transform="translate(433.203125 0)"/>
     <use xlink:href="#DejaVuSans-Bold-20" transform="translate(537.402344 0)"/>
     <use xlink:href="#DejaVuSans-Bold-44" transform="translate(572.216797 0)"/>
     <use xlink:href="#DejaVuSans-Bold-61" transform="translate(655.224609 0)"/>
     <use xlink:href="#DejaVuSans-Bold-74" transform="translate(722.705078 0)"/>
     <use xlink:href="#DejaVuSans-Bold-61" transform="translate(770.507812 0)"/>
     <use xlink:href="#DejaVuSans-Bold-20" transform="translate(837.988281 0)"/>
     <use xlink:href="#DejaVuSans-Bold-53" transform="translate(872.802734 0)"/>
     <use xlink:href="#DejaVuSans-Bold-74" transform="translate(944.824219 0)"/>
     <use xlink:href="#DejaVuSans-Bold-72" transform="translate(992.626953 0)"/>
     <use xlink:href="#DejaVuSans-Bold-75" transform="translate(1041.943359 0)"/>
     <use xlink:href="#DejaVuSans-Bold-63" transform="translate(1113.134766 0)"/>
     <use xlink:href="#DejaVuSans-Bold-74" transform="translate(1172.412109 0)"/>
     <use xlink:href="#DejaVuSans-Bold-75" transform="translate(1220.214844 0)"/>
     <use xlink:href="#DejaVuSans-Bold-72" transform="translate(1291.40625 0)"/>
     <use xlink:href="#DejaVuSans-Bold-65" transform="translate(1340.722656 0)"/>
     <use xlink:href="#DejaVuSans-Bold-73" transform="translate(1408.544922 0)"/>
    </g>
   </g>
   <g id="text_2">
    <!-- Input Data -->
    <g transform="translate(130.464922 138.447525) scale(0.11 -0.11)">
     <defs>
      <path id="DejaVuSans-Bold-49" d="M 588 4666 
L 1791 4666 
L 1791 0 
L 588 0 
L 588 4666 
z
" transform="scale(0.015625)"/>
      <path id="DejaVuSans-Bold-6e" d="M 4056 2131 
L 4056 0 
L 2931 0 
L 2931 347 
L 2931 1631 
Q 2931 2084 2911 2256 
Q 2891 2428 2841 2509 
Q 2775 2619 2662 2680 
Q 2550 2741 2406 2741 
Q 2056 2741 1856 2470 
Q 1656 2200 1656 1722 
L 1656 0 
L 538 0 
L 538 3500 
L 1656 3500 
L 1656 2988 
Q 1909 3294 2193 3439 
Q 2478 3584 2822 3584 
Q 3428 3584 3742 3212 
Q 4056 2841 4056 2131 
z
" transform="scale(0.015625)"/>
      <path id="DejaVuSans-Bold-70" d="M 1656 506 
L 1656 -1331 
L 538 -1331 
L 538 3500 
L 1656 3500 
L 1656 2988 
Q 1888 3294 2169 3439 
Q 2450 3584 2816 3584 
Q 3463 3584 3878 3070 
Q 4294 2556 4294 1747 
Q 4294 938 3878 423 
Q 3463 -91 2816 -91 
Q 2450 -91 2169 54 
Q 1888 200 1656 506 
z
M 2400 2772 
Q 2041 2772 1848 2508 
Q 1656 2244 1656 1747 
Q 1656 1250 1848 986 
Q 2041 722 2400 722 
Q 2759 722 2948 984 
Q 3138 1247 3138 1747 
Q 3138 2247 2948 2509 
Q 2759 2772 2400 2772 
z
" transform="scale(0.015625)"/>
     </defs>
     <use xlink:href="#DejaVuSans-Bold-49"/>
     <use xlink:href="#DejaVuSans-Bold-6e" transform="translate(37.207031 0)"/>
     <use xlink:href="#DejaVuSans-Bold-70" transform="translate(108.398438 0)"/>
     <use xlink:href="#DejaVuSans-Bold-75" transform="translate(179.980469 0)"/>
     <use xlink:href="#DejaVuSans-Bold-74" transform="translate(251.171875 0)"/>
     <use xlink:href="#DejaVuSans-Bold-20" transform="translate(298.974609 0)"/>
     <use xlink:href="#DejaVuSans-Bold-44" transform="translate(333.789062 0)"/>
     <use xlink:href="#DejaVuSans-Bold-61" transform="translate(416.796875 0)"/>
     <use xlink:href="#DejaVuSans-Bold-74" transform="translate(484.277344 0)"/>
     <use xlink:href="#DejaVuSans-Bold-61" transform="translate(532.080078 0)"/>
    </g>
   </g>
   <g id="text_3">
    <!-- Crystal Data -->
    <g transform="translate(359.434062 138.404556) scale(0.11 -0.11)">
     <defs>
      <path id="DejaVuSans-Bold-43" d="M 4288 256 
Q 3956 84 3597 -3 
Q 3238 -91 2847 -91 
Q 1681 -91 1000 561 
Q 319 1213 319 2328 
Q 319 3447 1000 4098 
Q 1681 4750 2847 4750 
Q 3238 4750 3597 4662 
Q 3956 4575 4288 4403 
L 4288 3438 
Q 3953 3666 3628 3772 
Q 3303 3878 2944 3878 
Q 2300 3878 1931 3465 
Q 1563 3053 1563 2328 
Q 1563 1606 1931 1193 
Q 2300 781 2944 781 
Q 3303 781 3628 887 
Q 3953 994 4288 1222 
L 4288 256 
z
" transform="scale(0.015625)"/>
      <path id="DejaVuSans-Bold-79" d="M 78 3500 
L 1197 3500 
L 2138 1125 
L 2938 3500 
L 4056 3500 
L 2584 -331 
Q 2363 -916 2067 -1148 
Q 1772 -1381 1288 -1381 
L 641 -1381 
L 641 -647 
L 991 -647 
Q 1275 -647 1404 -556 
Q 1534 -466 1606 -231 
L 1638 -134 
L 78 3500 
z
" transform="scale(0.015625)"/>
      <path id="DejaVuSans-Bold-6c" d="M 538 4863 
L 1656 4863 
L 1656 0 
L 538 0 
L 538 4863 
z
" transform="scale(0.015625)"/>
     </defs>
     <use xlink:href="#DejaVuSans-Bold-43"/>
     <use xlink:href="#DejaVuSans-Bold-72" transform="translate(73.388672 0)"/>
     <use xlink:href="#DejaVuSans-Bold-79" transform="translate(122.705078 0)"/>
     <use xlink:href="#DejaVuSans-Bold-73" transform="translate(187.890625 0)"/>
     <use xlink:href="#DejaVuSans-Bold-74" transform="translate(247.412109 0)"/>
     <use xlink:href="#DejaVuSans-Bold-61" transform="translate(295.214844 0)"/>
     <use xlink:href="#DejaVuSans-Bold-6c" transform="translate(362.695312 0)"/>
     <use xlink:href="#DejaVuSans-Bold-20" transform="translate(396.972656 0)"/>
     <use xlink:href="#DejaVuSans-Bold-44" transform="translate(431.787109 0)"/>
     <use xlink:href="#DejaVuSans-Bold-61" transform="translate(514.794922 0)"/>
     <use xlink:href="#DejaVuSans-Bold-74" transform="translate(582.275391 0)"/>
     <use xlink:href="#DejaVuSans-Bold-61" transform="translate(630.078125 0)"/>
    </g>
   </g>
   <g id="text_4">
    <!-- Output Data -->
    <g transform="translate(593.926406 138.447525) scale(0.11 -0.11)">
     <defs>
      <path id="DejaVuSans-Bold-4f" d="M 2719 3878 
Q 2169 3878 1866 3472 
Q 1563 3066 1563 2328 
Q 1563 1594 1866 1187 
Q 2169 781 2719 781 
Q 3272 781 3575 1187 
Q 3878 1594 3878 2328 
Q 3878 3066 3575 3472 
Q 3272 3878 2719 3878 
z
M 2719 4750 
Q 3844 4750 4481 4106 
Q 5119 3463 5119 2328 
Q 5119 1197 4481 553 
Q 3844 -91 2719 -91 
Q 1597 -91 958 553 
Q 319 1197 319 2328 
Q 319 3463 958 4106 
Q 1597 4750 2719 4750 
z
" transform="scale(0.015625)"/>
     </defs>
     <use xlink:href="#DejaVuSans-Bold-4f"/>
     <use xlink:href="#DejaVuSans-Bold-75" transform="translate(85.009766 0)"/>
     <use xlink:href="#DejaVuSans-Bold-74" transform="translate(156.201172 0)"/>
     <use xlink:href="#DejaVuSans-Bold-70" transform="translate(204.003906 0)"/>
     <use xlink:href="#DejaVuSans-Bold-75" transform="translate(275.585938 0)"/>
     <use xlink:href="#DejaVuSans-Bold-74" transform="translate(346.777344 0)"/>
     <use xlink:href="#DejaVuSans-Bold-20" transform="translate(394.580078 0)"/>
     <use xlink:href="#DejaVuSans-Bold-44" transform="translate(429.394531 0)"/>
     <use xlink:href="#DejaVuSans-Bold-61" transform="translate(512.402344 0)"/>
     <use xlink:href="#DejaVuSans-Bold-74" transform="translate(579.882812 0)"/>
     <use xlink:href="#DejaVuSans-Bold-61" transform="translate(627.685547 0)"/>
    </g>
   </g>
   <g id="text_5">
    <!-- XYZData -->
    <g transform="translate(81.286031 226.59965) scale(0.09 -0.09)">
     <defs>
      <path id="DejaVuSans-58" d="M 403 4666 
L 1081 4666 
L 2241 2931 
L 3406 4666 
L 4084 4666 
L 2584 2425 
L 4184 0 
L 3506 0 
L 2194 1984 
L 872 0 
L 191 0 
L 1856 2491 
L 403 4666 
z
" transform="scale(0.015625)"/>
      <path id="DejaVuSans-59" d="M -13 4666 
L 666 4666 
L 1959 2747 
L 3244 4666 
L 3922 4666 
L 2272 2222 
L 2272 0 
L 1638 0 
L 1638 2222 
L -13 4666 
z
" transform="scale(0.015625)"/>
      <path id="DejaVuSans-5a" d="M 359 4666 
L 4025 4666 
L 4025 4184 
L 1075 531 
L 4097 531 
L 4097 0 
L 288 0 
L 288 481 
L 3238 4134 
L 359 4134 
L 359 4666 
z
" transform="scale(0.015625)"/>
      <path id="DejaVuSans-44" d="M 1259 4147 
L 1259 519 
L 2022 519 
Q 2988 519 3436 956 
Q 3884 1394 3884 2338 
Q 3884 3275 3436 3711 
Q 2988 4147 2022 4147 
L 1259 4147 
z
M 628 4666 
L 1925 4666 
Q 3281 4666 3915 4102 
Q 4550 3538 4550 2338 
Q 4550 1131 3912 565 
Q 3275 0 1925 0 
L 628 0 
L 628 4666 
z
" transform="scale(0.015625)"/>
      <path id="DejaVuSans-61" d="M 2194 1759 
Q 1497 1759 1228 1600 
Q 959 1441 959 1056 
Q 959 750 1161 570 
Q 1363 391 1709 391 
Q 2188 391 2477 730 
Q 2766 1069 2766 1631 
L 2766 1759 
L 2194 1759 
z
M 3341 1997 
L 3341 0 
L 2766 0 
L 2766 531 
Q 2569 213 2275 61 
Q 1981 -91 1556 -91 
Q 1019 -91 701 211 
Q 384 513 384 1019 
Q 384 1609 779 1909 
Q 1175 2209 1959 2209 
L 2766 2209 
L 2766 2266 
Q 2766 2663 2505 2880 
Q 2244 3097 1772 3097 
Q 1472 3097 1187 3025 
Q 903 2953 641 2809 
L 641 3341 
Q 956 3463 1253 3523 
Q 1550 3584 1831 3584 
Q 2591 3584 2966 3190 
Q 3341 2797 3341 1997 
z
" transform="scale(0.015625)"/>
      <path id="DejaVuSans-74" d="M 1172 4494 
L 1172 3500 
L 2356 3500 
L 2356 3053 
L 1172 3053 
L 1172 1153 
Q 1172 725 1289 603 
Q 1406 481 1766 481 
L 2356 481 
L 2356 0 
L 1766 0 
Q 1100 0 847 248 
Q 594 497 594 1153 
L 594 3053 
L 172 3053 
L 172 3500 
L 594 3500 
L 594 4494 
L 1172 4494 
z
" transform="scale(0.015625)"/>
     </defs>
     <use xlink:href="#DejaVuSans-58"/>
     <use xlink:href="#DejaVuSans-59" transform="translate(68.505859 0)"/>
     <use xlink:href="#DejaVuSans-5a" transform="translate(129.589844 0)"/>
     <use xlink:href="#DejaVuSans-44" transform="translate(198.095703 0)"/>
     <use xlink:href="#DejaVuSans-61" transform="translate(275.097656 0)"/>
     <use xlink:href="#DejaVuSans-74" transform="translate(336.376953 0)"/>
     <use xlink:href="#DejaVuSans-61" transform="translate(375.585938 0)"/>
    </g>
   </g>
   <g id="text_6">
    <!-- RHEEDImage -->
    <g transform="translate(196.179047 226.59965) scale(0.09 -0.09)">
     <defs>
      <path id="DejaVuSans-52" d="M 2841 2188 
Q 3044 2119 3236 1894 
Q 3428 1669 3622 1275 
L 4263 0 
L 3584 0 
L 2988 1197 
Q 2756 1666 2539 1819 
Q 2322 1972 1947 1972 
L 1259 1972 
L 1259 0 
L 628 0 
L 628 4666 
L 2053 4666 
Q 2853 4666 3247 4331 
Q 3641 3997 3641 3322 
Q 3641 2881 3436 2590 
Q 3231 2300 2841 2188 
z
M 1259 4147 
L 1259 2491 
L 2053 2491 
Q 2509 2491 2742 2702 
Q 2975 2913 2975 3322 
Q 2975 3731 2742 3939 
Q 2509 4147 2053 4147 
L 1259 4147 
z
" transform="scale(0.015625)"/>
      <path id="DejaVuSans-48" d="M 628 4666 
L 1259 4666 
L 1259 2753 
L 3553 2753 
L 3553 4666 
L 4184 4666 
L 4184 0 
L 3553 0 
L 3553 2222 
L 1259 2222 
L 1259 0 
L 628 0 
L 628 4666 
z
" transform="scale(0.015625)"/>
      <path id="DejaVuSans-45" d="M 628 4666 
L 3578 4666 
L 3578 4134 
L 1259 4134 
L 1259 2753 
L 3481 2753 
L 3481 2222 
L 1259 2222 
L 1259 531 
L 3634 531 
L 3634 0 
L 628 0 
L 628 4666 
z
" transform="scale(0.015625)"/>
      <path id="DejaVuSans-49" d="M 628 4666 
L 1259 4666 
L 1259 0 
L 628 0 
L 628 4666 
z
" transform="scale(0.015625)"/>
      <path id="DejaVuSans-6d" d="M 3328 2828 
Q 3544 3216 3844 3400 
Q 4144 3584 4550 3584 
Q 5097 3584 5394 3201 
Q 5691 2819 5691 2113 
L 5691 0 
L 5113 0 
L 5113 2094 
Q 5113 2597 4934 2840 
Q 4756 3084 4391 3084 
Q 3944 3084 3684 2787 
Q 3425 2491 3425 1978 
L 3425 0 
L 2847 0 
L 2847 2094 
Q 2847 2600 2669 2842 
Q 2491 3084 2119 3084 
Q 1678 3084 1418 2786 
Q 1159 2488 1159 1978 
L 1159 0 
L 581 0 
L 581 3500 
L 1159 3500 
L 1159 2956 
Q 1356 3278 1631 3431 
Q 1906 3584 2284 3584 
Q 2666 3584 2933 3390 
Q 3200 3197 3328 2828 
z
" transform="scale(0.015625)"/>
      <path id="DejaVuSans-67" d="M 2906 1791 
Q 2906 2416 2648 2759 
Q 2391 3103 1925 3103 
Q 1463 3103 1205 2759 
Q 947 2416 947 1791 
Q 947 1169 1205 825 
Q 1463 481 1925 481 
Q 2391 481 2648 825 
Q 2906 1169 2906 1791 
z
M 3481 434 
Q 3481 -459 3084 -895 
Q 2688 -1331 1869 -1331 
Q 1566 -1331 1297 -1286 
Q 1028 -1241 775 -1147 
L 775 -588 
Q 1028 -725 1275 -790 
Q 1522 -856 1778 -856 
Q 2344 -856 2625 -561 
Q 2906 -266 2906 331 
L 2906 616 
Q 2728 306 2450 153 
Q 2172 0 1784 0 
Q 1141 0 747 490 
Q 353 981 353 1791 
Q 353 2603 747 3093 
Q 1141 3584 1784 3584 
Q 2172 3584 2450 3431 
Q 2728 3278 2906 2969 
L 2906 3500 
L 3481 3500 
L 3481 434 
z
" transform="scale(0.015625)"/>
      <path id="DejaVuSans-65" d="M 3597 1894 
L 3597 1613 
L 953 1613 
Q 991 1019 1311 708 
Q 1631 397 2203 397 
Q 2534 397 2845 478 
Q 3156 559 3463 722 
L 3463 178 
Q 3153 47 2828 -22 
Q 2503 -91 2169 -91 
Q 1331 -91 842 396 
Q 353 884 353 1716 
Q 353 2575 817 3079 
Q 1281 3584 2069 3584 
Q 2775 3584 3186 3129 
Q 3597 2675 3597 1894 
z
M 3022 2063 
Q 3016 2534 2758 2815 
Q 2500 3097 2075 3097 
Q 1594 3097 1305 2825 
Q 1016 2553 972 2059 
L 3022 2063 
z
" transform="scale(0.015625)"/>
     </defs>
     <use xlink:href="#DejaVuSans-52"/>
     <use xlink:href="#DejaVuSans-48" transform="translate(69.482422 0)"/>
     <use xlink:href="#DejaVuSans-45" transform="translate(144.677734 0)"/>
     <use xlink:href="#DejaVuSans-45" transform="translate(207.861328 0)"/>
     <use xlink:href="#DejaVuSans-44" transform="translate(271.044922 0)"/>
     <use xlink:href="#DejaVuSans-49" transform="translate(348.046875 0)"/>
     <use xlink:href="#DejaVuSans-6d" transform="translate(377.539062 0)"/>
     <use xlink:href="#DejaVuSans-61" transform="translate(474.951172 0)"/>
     <use xlink:href="#DejaVuSans-67" transform="translate(536.230469 0)"/>
     <use xlink:href="#DejaVuSans-65" transform="translate(599.707031 0)"/>
    </g>
   </g>
   <g id="text_7">
    <!-- CrystalStructure -->
    <g transform="translate(298.601578 226.59965) scale(0.09 -0.09)">
     <defs>
      <path id="DejaVuSans-43" d="M 4122 4306 
L 4122 3641 
Q 3803 3938 3442 4084 
Q 3081 4231 2675 4231 
Q 1875 4231 1450 3742 
Q 1025 3253 1025 2328 
Q 1025 1406 1450 917 
Q 1875 428 2675 428 
Q 3081 428 3442 575 
Q 3803 722 4122 1019 
L 4122 359 
Q 3791 134 3420 21 
Q 3050 -91 2638 -91 
Q 1578 -91 968 557 
Q 359 1206 359 2328 
Q 359 3453 968 4101 
Q 1578 4750 2638 4750 
Q 3056 4750 3426 4639 
Q 3797 4528 4122 4306 
z
" transform="scale(0.015625)"/>
      <path id="DejaVuSans-72" d="M 2631 2963 
Q 2534 3019 2420 3045 
Q 2306 3072 2169 3072 
Q 1681 3072 1420 2755 
Q 1159 2438 1159 1844 
L 1159 0 
L 581 0 
L 581 3500 
L 1159 3500 
L 1159 2956 
Q 1341 3275 1631 3429 
Q 1922 3584 2338 3584 
Q 2397 3584 2469 3576 
Q 2541 3569 2628 3553 
L 2631 2963 
z
" transform="scale(0.015625)"/>
      <path id="DejaVuSans-79" d="M 2059 -325 
Q 1816 -950 1584 -1140 
Q 1353 -1331 966 -1331 
L 506 -1331 
L 506 -850 
L 844 -850 
Q 1081 -850 1212 -737 
Q 1344 -625 1503 -206 
L 1606 56 
L 191 3500 
L 800 3500 
L 1894 763 
L 2988 3500 
L 3597 3500 
L 2059 -325 
z
" transform="scale(0.015625)"/>
      <path id="DejaVuSans-73" d="M 2834 3397 
L 2834 2853 
Q 2591 2978 2328 3040 
Q 2066 3103 1784 3103 
Q 1356 3103 1142 2972 
Q 928 2841 928 2578 
Q 928 2378 1081 2264 
Q 1234 2150 1697 2047 
L 1894 2003 
Q 2506 1872 2764 1633 
Q 3022 1394 3022 966 
Q 3022 478 2636 193 
Q 2250 -91 1575 -91 
Q 1294 -91 989 -36 
Q 684 19 347 128 
L 347 722 
Q 666 556 975 473 
Q 1284 391 1588 391 
Q 1994 391 2212 530 
Q 2431 669 2431 922 
Q 2431 1156 2273 1281 
Q 2116 1406 1581 1522 
L 1381 1569 
Q 847 1681 609 1914 
Q 372 2147 372 2553 
Q 372 3047 722 3315 
Q 1072 3584 1716 3584 
Q 2034 3584 2315 3537 
Q 2597 3491 2834 3397 
z
" transform="scale(0.015625)"/>
      <path id="DejaVuSans-6c" d="M 603 4863 
L 1178 4863 
L 1178 0 
L 603 0 
L 603 4863 
z
" transform="scale(0.015625)"/>
      <path id="DejaVuSans-53" d="M 3425 4513 
L 3425 3897 
Q 3066 4069 2747 4153 
Q 2428 4238 2131 4238 
Q 1616 4238 1336 4038 
Q 1056 3838 1056 3469 
Q 1056 3159 1242 3001 
Q 1428 2844 1947 2747 
L 2328 2669 
Q 3034 2534 3370 2195 
Q 3706 1856 3706 1288 
Q 3706 609 3251 259 
Q 2797 -91 1919 -91 
Q 1588 -91 1214 -16 
Q 841 59 441 206 
L 441 856 
Q 825 641 1194 531 
Q 1563 422 1919 422 
Q 2459 422 2753 634 
Q 3047 847 3047 1241 
Q 3047 1584 2836 1778 
Q 2625 1972 2144 2069 
L 1759 2144 
Q 1053 2284 737 2584 
Q 422 2884 422 3419 
Q 422 4038 858 4394 
Q 1294 4750 2059 4750 
Q 2388 4750 2728 4690 
Q 3069 4631 3425 4513 
z
" transform="scale(0.015625)"/>
      <path id="DejaVuSans-75" d="M 544 1381 
L 544 3500 
L 1119 3500 
L 1119 1403 
Q 1119 906 1312 657 
Q 1506 409 1894 409 
Q 2359 409 2629 706 
Q 2900 1003 2900 1516 
L 2900 3500 
L 3475 3500 
L 3475 0 
L 2900 0 
L 2900 538 
Q 2691 219 2414 64 
Q 2138 -91 1772 -91 
Q 1169 -91 856 284 
Q 544 659 544 1381 
z
M 1991 3584 
L 1991 3584 
z
" transform="scale(0.015625)"/>
      <path id="DejaVuSans-63" d="M 3122 3366 
L 3122 2828 
Q 2878 2963 2633 3030 
Q 2388 3097 2138 3097 
Q 1578 3097 1268 2742 
Q 959 2388 959 1747 
Q 959 1106 1268 751 
Q 1578 397 2138 397 
Q 2388 397 2633 464 
Q 2878 531 3122 666 
L 3122 134 
Q 2881 22 2623 -34 
Q 2366 -91 2075 -91 
Q 1284 -91 818 406 
Q 353 903 353 1747 
Q 353 2603 823 3093 
Q 1294 3584 2113 3584 
Q 2378 3584 2631 3529 
Q 2884 3475 3122 3366 
z
" transform="scale(0.015625)"/>
     </defs>
     <use xlink:href="#DejaVuSans-43"/>
     <use xlink:href="#DejaVuSans-72" transform="translate(69.824219 0)"/>
     <use xlink:href="#DejaVuSans-79" transform="translate(110.9375 0)"/>
     <use xlink:href="#DejaVuSans-73" transform="translate(170.117188 0)"/>
     <use xlink:href="#DejaVuSans-74" transform="translate(222.216797 0)"/>
     <use xlink:href="#DejaVuSans-61" transform="translate(261.425781 0)"/>
     <use xlink:href="#DejaVuSans-6c" transform="translate(322.705078 0)"/>
     <use xlink:href="#DejaVuSans-53" transform="translate(350.488281 0)"/>
     <use xlink:href="#DejaVuSans-74" transform="translate(413.964844 0)"/>
     <use xlink:href="#DejaVuSans-72" transform="translate(453.173828 0)"/>
     <use xlink:href="#DejaVuSans-75" transform="translate(494.287109 0)"/>
     <use xlink:href="#DejaVuSans-63" transform="translate(557.666016 0)"/>
     <use xlink:href="#DejaVuSans-74" transform="translate(612.646484 0)"/>
     <use xlink:href="#DejaVuSans-75" transform="translate(651.855469 0)"/>
     <use xlink:href="#DejaVuSans-72" transform="translate(715.234375 0)"/>
     <use xlink:href="#DejaVuSans-65" transform="translate(754.097656 0)"/>
    </g>
   </g>
   <g id="text_8">
    <!-- EwaldData -->
    <g transform="translate(436.163344 226.59965) scale(0.09 -0.09)">
     <defs>
      <path id="DejaVuSans-77" d="M 269 3500 
L 844 3500 
L 1563 769 
L 2278 3500 
L 2956 3500 
L 3675 769 
L 4391 3500 
L 4966 3500 
L 4050 0 
L 3372 0 
L 2619 2869 
L 1863 0 
L 1184 0 
L 269 3500 
z
" transform="scale(0.015625)"/>
      <path id="DejaVuSans-64" d="M 2906 2969 
L 2906 4863 
L 3481 4863 
L 3481 0 
L 2906 0 
L 2906 525 
Q 2725 213 2448 61 
Q 2172 -91 1784 -91 
Q 1150 -91 751 415 
Q 353 922 353 1747 
Q 353 2572 751 3078 
Q 1150 3584 1784 3584 
Q 2172 3584 2448 3432 
Q 2725 3281 2906 2969 
z
M 947 1747 
Q 947 1113 1208 752 
Q 1469 391 1925 391 
Q 2381 391 2643 752 
Q 2906 1113 2906 1747 
Q 2906 2381 2643 2742 
Q 2381 3103 1925 3103 
Q 1469 3103 1208 2742 
Q 947 2381 947 1747 
z
" transform="scale(0.015625)"/>
     </defs>
     <use xlink:href="#DejaVuSans-45"/>
     <use xlink:href="#DejaVuSans-77" transform="translate(63.183594 0)"/>
     <use xlink:href="#DejaVuSans-61" transform="translate(144.970703 0)"/>
     <use xlink:href="#DejaVuSans-6c" transform="translate(206.25 0)"/>
     <use xlink:href="#DejaVuSans-64" transform="translate(234.033203 0)"/>
     <use xlink:href="#DejaVuSans-44" transform="translate(297.509766 0)"/>
     <use xlink:href="#DejaVuSans-61" transform="translate(374.511719 0)"/>
     <use xlink:href="#DejaVuSans-74" transform="translate(435.791016 0)"/>
     <use xlink:href="#DejaVuSans-61" transform="translate(475 0)"/>
    </g>
   </g>
   <g id="text_9">
    <!-- RHEEDPattern -->
    <g transform="translate(537.812438 226.59965) scale(0.09 -0.09)">
     <defs>
      <path id="DejaVuSans-50" d="M 1259 4147 
L 1259 2394 
L 2053 2394 
Q 2494 2394 2734 2622 
Q 2975 2850 2975 3272 
Q 2975 3691 2734 3919 
Q 2494 4147 2053 4147 
L 1259 4147 
z
M 628 4666 
L 2053 4666 
Q 2838 4666 3239 4311 
Q 3641 3956 3641 3272 
Q 3641 2581 3239 2228 
Q 2838 1875 2053 1875 
L 1259 1875 
L 1259 0 
L 628 0 
L 628 4666 
z
" transform="scale(0.015625)"/>
      <path id="DejaVuSans-6e" d="M 3513 2113 
L 3513 0 
L 2938 0 
L 2938 2094 
Q 2938 2591 2744 2837 
Q 2550 3084 2163 3084 
Q 1697 3084 1428 2787 
Q 1159 2491 1159 1978 
L 1159 0 
L 581 0 
L 581 3500 
L 1159 3500 
L 1159 2956 
Q 1366 3272 1645 3428 
Q 1925 3584 2291 3584 
Q 2894 3584 3203 3211 
Q 3513 2838 3513 2113 
z
" transform="scale(0.015625)"/>
     </defs>
     <use xlink:href="#DejaVuSans-52"/>
     <use xlink:href="#DejaVuSans-48" transform="translate(69.482422 0)"/>
     <use xlink:href="#DejaVuSans-45" transform="translate(144.677734 0)"/>
     <use xlink:href="#DejaVuSans-45" transform="translate(207.861328 0)"/>
     <use xlink:href="#DejaVuSans-44" transform="translate(271.044922 0)"/>
     <use xlink:href="#DejaVuSans-50" transform="translate(348.046875 0)"/>
     <use xlink:href="#DejaVuSans-61" transform="translate(403.849609 0)"/>
     <use xlink:href="#DejaVuSans-74" transform="translate(465.128906 0)"/>
     <use xlink:href="#DejaVuSans-74" transform="translate(504.337891 0)"/>
     <use xlink:href="#DejaVuSans-65" transform="translate(543.546875 0)"/>
     <use xlink:href="#DejaVuSans-72" transform="translate(605.070312 0)"/>
     <use xlink:href="#DejaVuSans-6e" transform="translate(644.433594 0)"/>
    </g>
   </g>
   <g id="text_10">
    <!-- SlicedCrystal -->
    <g transform="translate(665.427094 226.59965) scale(0.09 -0.09)">
     <defs>
      <path id="DejaVuSans-69" d="M 603 3500 
L 1178 3500 
L 1178 0 
L 603 0 
L 603 3500 
z
M 603 4863 
L 1178 4863 
L 1178 4134 
L 603 4134 
L 603 4863 
z
" transform="scale(0.015625)"/>
     </defs>
     <use xlink:href="#DejaVuSans-53"/>
     <use xlink:href="#DejaVuSans-6c" transform="translate(63.476562 0)"/>
     <use xlink:href="#DejaVuSans-69" transform="translate(91.259766 0)"/>
     <use xlink:href="#DejaVuSans-63" transform="translate(119.042969 0)"/>
     <use xlink:href="#DejaVuSans-65" transform="translate(174.023438 0)"/>
     <use xlink:href="#DejaVuSans-64" transform="translate(235.546875 0)"/>
     <use xlink:href="#DejaVuSans-43" transform="translate(299.023438 0)"/>
     <use xlink:href="#DejaVuSans-72" transform="translate(368.847656 0)"/>
     <use xlink:href="#DejaVuSans-79" transform="translate(409.960938 0)"/>
     <use xlink:href="#DejaVuSans-73" transform="translate(469.140625 0)"/>
     <use xlink:href="#DejaVuSans-74" transform="translate(521.240234 0)"/>
     <use xlink:href="#DejaVuSans-61" transform="translate(560.449219 0)"/>
     <use xlink:href="#DejaVuSans-6c" transform="translate(621.728516 0)"/>
    </g>
   </g>
   <g id="text_11">
    <!-- positions -->
    <g transform="translate(79.270875 301.200662) scale(0.08 -0.08)">
     <defs>
      <path id="DejaVuSansMono-70" d="M 1172 441 
L 1172 -1331 
L 594 -1331 
L 594 3500 
L 1172 3500 
L 1172 3053 
Q 1316 3313 1555 3448 
Q 1794 3584 2106 3584 
Q 2741 3584 3102 3093 
Q 3463 2603 3463 1734 
Q 3463 881 3100 395 
Q 2738 -91 2106 -91 
Q 1788 -91 1548 45 
Q 1309 181 1172 441 
z
M 2859 1747 
Q 2859 2416 2648 2756 
Q 2438 3097 2022 3097 
Q 1603 3097 1387 2755 
Q 1172 2413 1172 1747 
Q 1172 1084 1387 740 
Q 1603 397 2022 397 
Q 2438 397 2648 737 
Q 2859 1078 2859 1747 
z
" transform="scale(0.015625)"/>
      <path id="DejaVuSansMono-6f" d="M 1925 3097 
Q 1488 3097 1263 2756 
Q 1038 2416 1038 1747 
Q 1038 1081 1263 739 
Q 1488 397 1925 397 
Q 2366 397 2591 739 
Q 2816 1081 2816 1747 
Q 2816 2416 2591 2756 
Q 2366 3097 1925 3097 
z
M 1925 3584 
Q 2653 3584 3039 3112 
Q 3425 2641 3425 1747 
Q 3425 850 3040 379 
Q 2656 -91 1925 -91 
Q 1197 -91 812 379 
Q 428 850 428 1747 
Q 428 2641 812 3112 
Q 1197 3584 1925 3584 
z
" transform="scale(0.015625)"/>
      <path id="DejaVuSansMono-73" d="M 3041 3378 
L 3041 2816 
Q 2794 2959 2544 3031 
Q 2294 3103 2034 3103 
Q 1644 3103 1451 2976 
Q 1259 2850 1259 2591 
Q 1259 2356 1403 2240 
Q 1547 2125 2119 2016 
L 2350 1972 
Q 2778 1891 2998 1647 
Q 3219 1403 3219 1013 
Q 3219 494 2850 201 
Q 2481 -91 1825 -91 
Q 1566 -91 1281 -36 
Q 997 19 666 128 
L 666 722 
Q 988 556 1281 473 
Q 1575 391 1838 391 
Q 2219 391 2428 545 
Q 2638 700 2638 978 
Q 2638 1378 1872 1531 
L 1847 1538 
L 1631 1581 
Q 1134 1678 906 1908 
Q 678 2138 678 2534 
Q 678 3038 1018 3311 
Q 1359 3584 1991 3584 
Q 2272 3584 2531 3532 
Q 2791 3481 3041 3378 
z
" transform="scale(0.015625)"/>
      <path id="DejaVuSansMono-69" d="M 800 3500 
L 2272 3500 
L 2272 447 
L 3413 447 
L 3413 0 
L 556 0 
L 556 447 
L 1697 447 
L 1697 3053 
L 800 3053 
L 800 3500 
z
M 1697 4863 
L 2272 4863 
L 2272 4134 
L 1697 4134 
L 1697 4863 
z
" transform="scale(0.015625)"/>
      <path id="DejaVuSansMono-74" d="M 1919 4494 
L 1919 3500 
L 3225 3500 
L 3225 3053 
L 1919 3053 
L 1919 1153 
Q 1919 766 2066 612 
Q 2213 459 2578 459 
L 3225 459 
L 3225 0 
L 2522 0 
Q 1875 0 1609 259 
Q 1344 519 1344 1153 
L 1344 3053 
L 409 3053 
L 409 3500 
L 1344 3500 
L 1344 4494 
L 1919 4494 
z
" transform="scale(0.015625)"/>
      <path id="DejaVuSansMono-6e" d="M 3284 2169 
L 3284 0 
L 2706 0 
L 2706 2169 
Q 2706 2641 2540 2862 
Q 2375 3084 2022 3084 
Q 1619 3084 1401 2798 
Q 1184 2513 1184 1978 
L 1184 0 
L 609 0 
L 609 3500 
L 1184 3500 
L 1184 2975 
Q 1338 3275 1600 3429 
Q 1863 3584 2222 3584 
Q 2756 3584 3020 3232 
Q 3284 2881 3284 2169 
z
" transform="scale(0.015625)"/>
     </defs>
     <use xlink:href="#DejaVuSansMono-70"/>
     <use xlink:href="#DejaVuSansMono-6f" transform="translate(60.205078 0)"/>
     <use xlink:href="#DejaVuSansMono-73" transform="translate(120.410156 0)"/>
     <use xlink:href="#DejaVuSansMono-69" transform="translate(180.615234 0)"/>
     <use xlink:href="#DejaVuSansMono-74" transform="translate(240.820312 0)"/>
     <use xlink:href="#DejaVuSansMono-69" transform="translate(301.025391 0)"/>
     <use xlink:href="#DejaVuSansMono-6f" transform="translate(361.230469 0)"/>
     <use xlink:href="#DejaVuSansMono-6e" transform="translate(421.435547 0)"/>
     <use xlink:href="#DejaVuSansMono-73" transform="translate(481.640625 0)"/>
    </g>
    <!-- atomic_numbers -->
    <g transform="translate(67.23025 312.046287) scale(0.08 -0.08)">
     <defs>
      <path id="DejaVuSansMono-61" d="M 2194 1759 
L 2003 1759 
Q 1500 1759 1245 1582 
Q 991 1406 991 1056 
Q 991 741 1181 566 
Q 1372 391 1709 391 
Q 2184 391 2456 720 
Q 2728 1050 2731 1631 
L 2731 1759 
L 2194 1759 
z
M 3309 1997 
L 3309 0 
L 2731 0 
L 2731 519 
Q 2547 206 2267 57 
Q 1988 -91 1588 -91 
Q 1053 -91 734 211 
Q 416 513 416 1019 
Q 416 1603 808 1906 
Q 1200 2209 1959 2209 
L 2731 2209 
L 2731 2300 
Q 2728 2719 2518 2908 
Q 2309 3097 1850 3097 
Q 1556 3097 1256 3012 
Q 956 2928 672 2766 
L 672 3341 
Q 991 3463 1283 3523 
Q 1575 3584 1850 3584 
Q 2284 3584 2592 3456 
Q 2900 3328 3091 3072 
Q 3209 2916 3259 2686 
Q 3309 2456 3309 1997 
z
" transform="scale(0.015625)"/>
      <path id="DejaVuSansMono-6d" d="M 2113 3144 
Q 2219 3369 2383 3476 
Q 2547 3584 2778 3584 
Q 3200 3584 3373 3257 
Q 3547 2931 3547 2028 
L 3547 0 
L 3022 0 
L 3022 2003 
Q 3022 2744 2939 2923 
Q 2856 3103 2638 3103 
Q 2388 3103 2295 2911 
Q 2203 2719 2203 2003 
L 2203 0 
L 1678 0 
L 1678 2003 
Q 1678 2753 1589 2928 
Q 1500 3103 1269 3103 
Q 1041 3103 952 2911 
Q 863 2719 863 2003 
L 863 0 
L 341 0 
L 341 3500 
L 863 3500 
L 863 3200 
Q 966 3388 1120 3486 
Q 1275 3584 1472 3584 
Q 1709 3584 1867 3475 
Q 2025 3366 2113 3144 
z
" transform="scale(0.015625)"/>
      <path id="DejaVuSansMono-63" d="M 3316 178 
Q 3084 44 2839 -23 
Q 2594 -91 2338 -91 
Q 1525 -91 1067 396 
Q 609 884 609 1747 
Q 609 2609 1067 3096 
Q 1525 3584 2338 3584 
Q 2591 3584 2831 3518 
Q 3072 3453 3316 3316 
L 3316 2713 
Q 3088 2916 2858 3006 
Q 2628 3097 2338 3097 
Q 1797 3097 1506 2747 
Q 1216 2397 1216 1747 
Q 1216 1100 1508 748 
Q 1800 397 2338 397 
Q 2638 397 2875 489 
Q 3113 581 3316 775 
L 3316 178 
z
" transform="scale(0.015625)"/>
      <path id="DejaVuSansMono-5f" d="M 3853 -1259 
L 3853 -1509 
L 0 -1509 
L 0 -1259 
L 3853 -1259 
z
" transform="scale(0.015625)"/>
      <path id="DejaVuSansMono-75" d="M 609 1325 
L 609 3494 
L 1184 3494 
L 1184 1325 
Q 1184 853 1351 631 
Q 1519 409 1869 409 
Q 2275 409 2490 695 
Q 2706 981 2706 1516 
L 2706 3494 
L 3284 3494 
L 3284 0 
L 2706 0 
L 2706 525 
Q 2553 222 2289 65 
Q 2025 -91 1672 -91 
Q 1134 -91 871 261 
Q 609 613 609 1325 
z
" transform="scale(0.015625)"/>
      <path id="DejaVuSansMono-62" d="M 2869 1747 
Q 2869 2416 2656 2756 
Q 2444 3097 2028 3097 
Q 1609 3097 1393 2755 
Q 1178 2413 1178 1747 
Q 1178 1084 1393 740 
Q 1609 397 2028 397 
Q 2444 397 2656 737 
Q 2869 1078 2869 1747 
z
M 1178 3053 
Q 1316 3309 1558 3446 
Q 1800 3584 2119 3584 
Q 2750 3584 3112 3098 
Q 3475 2613 3475 1759 
Q 3475 894 3111 401 
Q 2747 -91 2113 -91 
Q 1800 -91 1561 45 
Q 1322 181 1178 441 
L 1178 0 
L 603 0 
L 603 4863 
L 1178 4863 
L 1178 3053 
z
" transform="scale(0.015625)"/>
      <path id="DejaVuSansMono-65" d="M 3475 1894 
L 3475 1613 
L 984 1613 
L 984 1594 
Q 984 1022 1282 709 
Q 1581 397 2125 397 
Q 2400 397 2700 484 
Q 3000 572 3341 750 
L 3341 178 
Q 3013 44 2708 -23 
Q 2403 -91 2119 -91 
Q 1303 -91 843 398 
Q 384 888 384 1747 
Q 384 2584 834 3084 
Q 1284 3584 2034 3584 
Q 2703 3584 3089 3131 
Q 3475 2678 3475 1894 
z
M 2900 2063 
Q 2888 2569 2661 2833 
Q 2434 3097 2009 3097 
Q 1594 3097 1325 2822 
Q 1056 2547 1006 2059 
L 2900 2063 
z
" transform="scale(0.015625)"/>
      <path id="DejaVuSansMono-72" d="M 3609 2778 
Q 3425 2922 3234 2987 
Q 3044 3053 2816 3053 
Q 2278 3053 1993 2715 
Q 1709 2378 1709 1741 
L 1709 0 
L 1131 0 
L 1131 3500 
L 1709 3500 
L 1709 2816 
Q 1853 3188 2151 3386 
Q 2450 3584 2859 3584 
Q 3072 3584 3256 3531 
Q 3441 3478 3609 3366 
L 3609 2778 
z
" transform="scale(0.015625)"/>
     </defs>
     <use xlink:href="#DejaVuSansMono-61"/>
     <use xlink:href="#DejaVuSansMono-74" transform="translate(60.205078 0)"/>
     <use xlink:href="#DejaVuSansMono-6f" transform="translate(120.410156 0)"/>
     <use xlink:href="#DejaVuSansMono-6d" transform="translate(180.615234 0)"/>
     <use xlink:href="#DejaVuSansMono-69" transform="translate(240.820312 0)"/>
     <use xlink:href="#DejaVuSansMono-63" transform="translate(301.025391 0)"/>
     <use xlink:href="#DejaVuSansMono-5f" transform="translate(361.230469 0)"/>
     <use xlink:href="#DejaVuSansMono-6e" transform="translate(421.435547 0)"/>
     <use xlink:href="#DejaVuSansMono-75" transform="translate(481.640625 0)"/>
     <use xlink:href="#DejaVuSansMono-6d" transform="translate(541.845703 0)"/>
     <use xlink:href="#DejaVuSansMono-62" transform="translate(602.050781 0)"/>
     <use xlink:href="#DejaVuSansMono-65" transform="translate(662.255859 0)"/>
     <use xlink:href="#DejaVuSansMono-72" transform="translate(722.460938 0)"/>
     <use xlink:href="#DejaVuSansMono-73" transform="translate(782.666016 0)"/>
    </g>
    <!-- lattice -->
    <g transform="translate(84.087125 323.114412) scale(0.08 -0.08)">
     <defs>
      <path id="DejaVuSansMono-6c" d="M 1997 1269 
Q 1997 881 2139 684 
Q 2281 488 2559 488 
L 3231 488 
L 3231 0 
L 2503 0 
Q 1988 0 1705 331 
Q 1422 663 1422 1269 
L 1422 4447 
L 500 4447 
L 500 4897 
L 1997 4897 
L 1997 1269 
z
" transform="scale(0.015625)"/>
     </defs>
     <use xlink:href="#DejaVuSansMono-6c"/>
     <use xlink:href="#DejaVuSansMono-61" transform="translate(60.205078 0)"/>
     <use xlink:href="#DejaVuSansMono-74" transform="translate(120.410156 0)"/>
     <use xlink:href="#DejaVuSansMono-74" transform="translate(180.615234 0)"/>
     <use xlink:href="#DejaVuSansMono-69" transform="translate(240.820312 0)"/>
     <use xlink:href="#DejaVuSansMono-63" transform="translate(301.025391 0)"/>
     <use xlink:href="#DejaVuSansMono-65" transform="translate(361.230469 0)"/>
    </g>
   </g>
   <g id="text_12">
    <!-- frac_positions -->
    <g transform="translate(301.59025 301.158162) scale(0.08 -0.08)">
     <defs>
      <path id="DejaVuSansMono-66" d="M 3322 4863 
L 3322 4384 
L 2669 4384 
Q 2359 4384 2239 4257 
Q 2119 4131 2119 3809 
L 2119 3500 
L 3322 3500 
L 3322 3053 
L 2119 3053 
L 2119 0 
L 1544 0 
L 1544 3053 
L 609 3053 
L 609 3500 
L 1544 3500 
L 1544 3744 
Q 1544 4319 1808 4591 
Q 2072 4863 2631 4863 
L 3322 4863 
z
" transform="scale(0.015625)"/>
     </defs>
     <use xlink:href="#DejaVuSansMono-66"/>
     <use xlink:href="#DejaVuSansMono-72" transform="translate(60.205078 0)"/>
     <use xlink:href="#DejaVuSansMono-61" transform="translate(120.410156 0)"/>
     <use xlink:href="#DejaVuSansMono-63" transform="translate(180.615234 0)"/>
     <use xlink:href="#DejaVuSansMono-5f" transform="translate(240.820312 0)"/>
     <use xlink:href="#DejaVuSansMono-70" transform="translate(301.025391 0)"/>
     <use xlink:href="#DejaVuSansMono-6f" transform="translate(361.230469 0)"/>
     <use xlink:href="#DejaVuSansMono-73" transform="translate(421.435547 0)"/>
     <use xlink:href="#DejaVuSansMono-69" transform="translate(481.640625 0)"/>
     <use xlink:href="#DejaVuSansMono-74" transform="translate(541.845703 0)"/>
     <use xlink:href="#DejaVuSansMono-69" transform="translate(602.050781 0)"/>
     <use xlink:href="#DejaVuSansMono-6f" transform="translate(662.255859 0)"/>
     <use xlink:href="#DejaVuSansMono-6e" transform="translate(722.460938 0)"/>
     <use xlink:href="#DejaVuSansMono-73" transform="translate(782.666016 0)"/>
    </g>
    <!-- cart_positions -->
    <g transform="translate(301.59025 312.226287) scale(0.08 -0.08)">
     <use xlink:href="#DejaVuSansMono-63"/>
     <use xlink:href="#DejaVuSansMono-61" transform="translate(60.205078 0)"/>
     <use xlink:href="#DejaVuSansMono-72" transform="translate(120.410156 0)"/>
     <use xlink:href="#DejaVuSansMono-74" transform="translate(180.615234 0)"/>
     <use xlink:href="#DejaVuSansMono-5f" transform="translate(240.820312 0)"/>
     <use xlink:href="#DejaVuSansMono-70" transform="translate(301.025391 0)"/>
     <use xlink:href="#DejaVuSansMono-6f" transform="translate(361.230469 0)"/>
     <use xlink:href="#DejaVuSansMono-73" transform="translate(421.435547 0)"/>
     <use xlink:href="#DejaVuSansMono-69" transform="translate(481.640625 0)"/>
     <use xlink:href="#DejaVuSansMono-74" transform="translate(541.845703 0)"/>
     <use xlink:href="#DejaVuSansMono-69" transform="translate(602.050781 0)"/>
     <use xlink:href="#DejaVuSansMono-6f" transform="translate(662.255859 0)"/>
     <use xlink:href="#DejaVuSansMono-6e" transform="translate(722.460938 0)"/>
     <use xlink:href="#DejaVuSansMono-73" transform="translate(782.666016 0)"/>
    </g>
    <!-- cell_lengths -->
    <g transform="translate(306.4065 323.294412) scale(0.08 -0.08)">
     <defs>
      <path id="DejaVuSansMono-67" d="M 2681 1778 
Q 2681 2425 2470 2761 
Q 2259 3097 1856 3097 
Q 1434 3097 1212 2761 
Q 991 2425 991 1778 
Q 991 1131 1214 792 
Q 1438 453 1863 453 
Q 2259 453 2470 793 
Q 2681 1134 2681 1778 
z
M 3256 225 
Q 3256 -563 2884 -969 
Q 2513 -1375 1791 -1375 
Q 1553 -1375 1293 -1331 
Q 1034 -1288 775 -1203 
L 775 -634 
Q 1081 -778 1331 -847 
Q 1581 -916 1791 -916 
Q 2256 -916 2468 -662 
Q 2681 -409 2681 141 
L 2681 166 
L 2681 556 
Q 2544 263 2306 119 
Q 2069 -25 1728 -25 
Q 1116 -25 750 465 
Q 384 956 384 1778 
Q 384 2603 750 3093 
Q 1116 3584 1728 3584 
Q 2066 3584 2300 3450 
Q 2534 3316 2681 3034 
L 2681 3488 
L 3256 3488 
L 3256 225 
z
" transform="scale(0.015625)"/>
      <path id="DejaVuSansMono-68" d="M 3284 2169 
L 3284 0 
L 2706 0 
L 2706 2169 
Q 2706 2641 2540 2862 
Q 2375 3084 2022 3084 
Q 1619 3084 1401 2798 
Q 1184 2513 1184 1978 
L 1184 0 
L 609 0 
L 609 4863 
L 1184 4863 
L 1184 2975 
Q 1338 3275 1600 3429 
Q 1863 3584 2222 3584 
Q 2756 3584 3020 3232 
Q 3284 2881 3284 2169 
z
" transform="scale(0.015625)"/>
     </defs>
     <use xlink:href="#DejaVuSansMono-63"/>
     <use xlink:href="#DejaVuSansMono-65" transform="translate(60.205078 0)"/>
     <use xlink:href="#DejaVuSansMono-6c" transform="translate(120.410156 0)"/>
     <use xlink:href="#DejaVuSansMono-6c" transform="translate(180.615234 0)"/>
     <use xlink:href="#DejaVuSansMono-5f" transform="translate(240.820312 0)"/>
     <use xlink:href="#DejaVuSansMono-6c" transform="translate(301.025391 0)"/>
     <use xlink:href="#DejaVuSansMono-65" transform="translate(361.230469 0)"/>
     <use xlink:href="#DejaVuSansMono-6e" transform="translate(421.435547 0)"/>
     <use xlink:href="#DejaVuSansMono-67" transform="translate(481.640625 0)"/>
     <use xlink:href="#DejaVuSansMono-74" transform="translate(541.845703 0)"/>
     <use xlink:href="#DejaVuSansMono-68" transform="translate(602.050781 0)"/>
     <use xlink:href="#DejaVuSansMono-73" transform="translate(662.255859 0)"/>
    </g>
    <!-- cell_angles -->
    <g transform="translate(308.814625 334.362537) scale(0.08 -0.08)">
     <use xlink:href="#DejaVuSansMono-63"/>
     <use xlink:href="#DejaVuSansMono-65" transform="translate(60.205078 0)"/>
     <use xlink:href="#DejaVuSansMono-6c" transform="translate(120.410156 0)"/>
     <use xlink:href="#DejaVuSansMono-6c" transform="translate(180.615234 0)"/>
     <use xlink:href="#DejaVuSansMono-5f" transform="translate(240.820312 0)"/>
     <use xlink:href="#DejaVuSansMono-61" transform="translate(301.025391 0)"/>
     <use xlink:href="#DejaVuSansMono-6e" transform="translate(361.230469 0)"/>
     <use xlink:href="#DejaVuSansMono-67" transform="translate(421.435547 0)"/>
     <use xlink:href="#DejaVuSansMono-6c" transform="translate(481.640625 0)"/>
     <use xlink:href="#DejaVuSansMono-65" transform="translate(541.845703 0)"/>
     <use xlink:href="#DejaVuSansMono-73" transform="translate(602.050781 0)"/>
    </g>
   </g>
   <g id="text_13">
    <!-- wavelength -->
    <g transform="translate(436.21475 301.200662) scale(0.08 -0.08)">
     <defs>
      <path id="DejaVuSansMono-77" d="M 0 3500 
L 569 3500 
L 1178 672 
L 1678 2478 
L 2169 2478 
L 2675 672 
L 3284 3500 
L 3853 3500 
L 3034 0 
L 2484 0 
L 1925 1919 
L 1369 0 
L 819 0 
L 0 3500 
z
" transform="scale(0.015625)"/>
      <path id="DejaVuSansMono-76" d="M 313 3500 
L 909 3500 
L 1925 563 
L 2944 3500 
L 3541 3500 
L 2297 0 
L 1556 0 
L 313 3500 
z
" transform="scale(0.015625)"/>
     </defs>
     <use xlink:href="#DejaVuSansMono-77"/>
     <use xlink:href="#DejaVuSansMono-61" transform="translate(60.205078 0)"/>
     <use xlink:href="#DejaVuSansMono-76" transform="translate(120.410156 0)"/>
     <use xlink:href="#DejaVuSansMono-65" transform="translate(180.615234 0)"/>
     <use xlink:href="#DejaVuSansMono-6c" transform="translate(240.820312 0)"/>
     <use xlink:href="#DejaVuSansMono-65" transform="translate(301.025391 0)"/>
     <use xlink:href="#DejaVuSansMono-6e" transform="translate(361.230469 0)"/>
     <use xlink:href="#DejaVuSansMono-67" transform="translate(421.435547 0)"/>
     <use xlink:href="#DejaVuSansMono-74" transform="translate(481.640625 0)"/>
     <use xlink:href="#DejaVuSansMono-68" transform="translate(541.845703 0)"/>
    </g>
    <!-- g_vectors -->
    <g transform="translate(438.622875 312.101287) scale(0.08 -0.08)">
     <use xlink:href="#DejaVuSansMono-67"/>
     <use xlink:href="#DejaVuSansMono-5f" transform="translate(60.205078 0)"/>
     <use xlink:href="#DejaVuSansMono-76" transform="translate(120.410156 0)"/>
     <use xlink:href="#DejaVuSansMono-65" transform="translate(180.615234 0)"/>
     <use xlink:href="#DejaVuSansMono-63" transform="translate(240.820312 0)"/>
     <use xlink:href="#DejaVuSansMono-74" transform="translate(301.025391 0)"/>
     <use xlink:href="#DejaVuSansMono-6f" transform="translate(361.230469 0)"/>
     <use xlink:href="#DejaVuSansMono-72" transform="translate(421.435547 0)"/>
     <use xlink:href="#DejaVuSansMono-73" transform="translate(481.640625 0)"/>
    </g>
    <!-- structure_factors -->
    <g transform="translate(419.357875 323.169412) scale(0.08 -0.08)">
     <use xlink:href="#DejaVuSansMono-73"/>
     <use xlink:href="#DejaVuSansMono-74" transform="translate(60.205078 0)"/>
     <use xlink:href="#DejaVuSansMono-72" transform="translate(120.410156 0)"/>
     <use xlink:href="#DejaVuSansMono-75" transform="translate(180.615234 0)"/>
     <use xlink:href="#DejaVuSansMono-63" transform="translate(240.820312 0)"/>
     <use xlink:href="#DejaVuSansMono-74" transform="translate(301.025391 0)"/>
     <use xlink:href="#DejaVuSansMono-75" transform="translate(361.230469 0)"/>
     <use xlink:href="#DejaVuSansMono-72" transform="translate(421.435547 0)"/>
     <use xlink:href="#DejaVuSansMono-65" transform="translate(481.640625 0)"/>
     <use xlink:href="#DejaVuSansMono-5f" transform="translate(541.845703 0)"/>
     <use xlink:href="#DejaVuSansMono-66" transform="translate(602.050781 0)"/>
     <use xlink:href="#DejaVuSansMono-61" transform="translate(662.255859 0)"/>
     <use xlink:href="#DejaVuSansMono-63" transform="translate(722.460938 0)"/>
     <use xlink:href="#DejaVuSansMono-74" transform="translate(782.666016 0)"/>
     <use xlink:href="#DejaVuSansMono-6f" transform="translate(842.871094 0)"/>
     <use xlink:href="#DejaVuSansMono-72" transform="translate(903.076172 0)"/>
     <use xlink:href="#DejaVuSansMono-73" transform="translate(963.28125 0)"/>
    </g>
   </g>
   <g id="text_14">
    <!-- G_indices -->
    <g transform="translate(547.990875 301.158162) scale(0.08 -0.08)">
     <defs>
      <path id="DejaVuSansMono-47" d="M 3450 384 
Q 3197 150 2880 29 
Q 2563 -91 2194 -91 
Q 1306 -91 812 545 
Q 319 1181 319 2328 
Q 319 3472 819 4111 
Q 1319 4750 2209 4750 
Q 2503 4750 2772 4667 
Q 3041 4584 3291 4416 
L 3291 3769 
Q 3038 4009 2772 4123 
Q 2506 4238 2209 4238 
Q 1594 4238 1286 3761 
Q 978 3284 978 2328 
Q 978 1356 1276 889 
Q 1575 422 2194 422 
Q 2403 422 2561 470 
Q 2719 519 2847 622 
L 2847 1875 
L 2169 1875 
L 2169 2394 
L 3450 2394 
L 3450 384 
z
" transform="scale(0.015625)"/>
      <path id="DejaVuSansMono-64" d="M 2681 3053 
L 2681 4863 
L 3256 4863 
L 3256 0 
L 2681 0 
L 2681 441 
Q 2538 181 2298 45 
Q 2059 -91 1747 -91 
Q 1113 -91 748 401 
Q 384 894 384 1759 
Q 384 2613 750 3098 
Q 1116 3584 1747 3584 
Q 2063 3584 2303 3448 
Q 2544 3313 2681 3053 
z
M 991 1747 
Q 991 1078 1203 737 
Q 1416 397 1831 397 
Q 2247 397 2464 740 
Q 2681 1084 2681 1747 
Q 2681 2413 2464 2755 
Q 2247 3097 1831 3097 
Q 1416 3097 1203 2756 
Q 991 2416 991 1747 
z
" transform="scale(0.015625)"/>
     </defs>
     <use xlink:href="#DejaVuSansMono-47"/>
     <use xlink:href="#DejaVuSansMono-5f" transform="translate(60.205078 0)"/>
     <use xlink:href="#DejaVuSansMono-69" transform="translate(120.410156 0)"/>
     <use xlink:href="#DejaVuSansMono-6e" transform="translate(180.615234 0)"/>
     <use xlink:href="#DejaVuSansMono-64" transform="translate(240.820312 0)"/>
     <use xlink:href="#DejaVuSansMono-69" transform="translate(301.025391 0)"/>
     <use xlink:href="#DejaVuSansMono-63" transform="translate(361.230469 0)"/>
     <use xlink:href="#DejaVuSansMono-65" transform="translate(421.435547 0)"/>
     <use xlink:href="#DejaVuSansMono-73" transform="translate(481.640625 0)"/>
    </g>
    <!-- k_out -->
    <g transform="translate(557.623375 312.226287) scale(0.08 -0.08)">
     <defs>
      <path id="DejaVuSansMono-6b" d="M 738 4863 
L 1331 4863 
L 1331 2047 
L 2841 3500 
L 3541 3500 
L 2163 2181 
L 3756 0 
L 3053 0 
L 1759 1806 
L 1331 1403 
L 1331 0 
L 738 0 
L 738 4863 
z
" transform="scale(0.015625)"/>
     </defs>
     <use xlink:href="#DejaVuSansMono-6b"/>
     <use xlink:href="#DejaVuSansMono-5f" transform="translate(60.205078 0)"/>
     <use xlink:href="#DejaVuSansMono-6f" transform="translate(120.410156 0)"/>
     <use xlink:href="#DejaVuSansMono-75" transform="translate(180.615234 0)"/>
     <use xlink:href="#DejaVuSansMono-74" transform="translate(240.820312 0)"/>
    </g>
    <!-- detector_points -->
    <g transform="translate(533.542125 323.294412) scale(0.08 -0.08)">
     <use xlink:href="#DejaVuSansMono-64"/>
     <use xlink:href="#DejaVuSansMono-65" transform="translate(60.205078 0)"/>
     <use xlink:href="#DejaVuSansMono-74" transform="translate(120.410156 0)"/>
     <use xlink:href="#DejaVuSansMono-65" transform="translate(180.615234 0)"/>
     <use xlink:href="#DejaVuSansMono-63" transform="translate(240.820312 0)"/>
     <use xlink:href="#DejaVuSansMono-74" transform="translate(301.025391 0)"/>
     <use xlink:href="#DejaVuSansMono-6f" transform="translate(361.230469 0)"/>
     <use xlink:href="#DejaVuSansMono-72" transform="translate(421.435547 0)"/>
     <use xlink:href="#DejaVuSansMono-5f" transform="translate(481.640625 0)"/>
     <use xlink:href="#DejaVuSansMono-70" transform="translate(541.845703 0)"/>
     <use xlink:href="#DejaVuSansMono-6f" transform="translate(602.050781 0)"/>
     <use xlink:href="#DejaVuSansMono-69" transform="translate(662.255859 0)"/>
     <use xlink:href="#DejaVuSansMono-6e" transform="translate(722.460938 0)"/>
     <use xlink:href="#DejaVuSansMono-74" transform="translate(782.666016 0)"/>
     <use xlink:href="#DejaVuSansMono-73" transform="translate(842.871094 0)"/>
    </g>
    <!-- intensities -->
    <g transform="translate(543.174625 334.362537) scale(0.08 -0.08)">
     <use xlink:href="#DejaVuSansMono-69"/>
     <use xlink:href="#DejaVuSansMono-6e" transform="translate(60.205078 0)"/>
     <use xlink:href="#DejaVuSansMono-74" transform="translate(120.410156 0)"/>
     <use xlink:href="#DejaVuSansMono-65" transform="translate(180.615234 0)"/>
     <use xlink:href="#DejaVuSansMono-6e" transform="translate(240.820312 0)"/>
     <use xlink:href="#DejaVuSansMono-73" transform="translate(301.025391 0)"/>
     <use xlink:href="#DejaVuSansMono-69" transform="translate(361.230469 0)"/>
     <use xlink:href="#DejaVuSansMono-74" transform="translate(421.435547 0)"/>
     <use xlink:href="#DejaVuSansMono-69" transform="translate(481.640625 0)"/>
     <use xlink:href="#DejaVuSansMono-65" transform="translate(541.845703 0)"/>
     <use xlink:href="#DejaVuSansMono-73" transform="translate(602.050781 0)"/>
    </g>
   </g>
   <g id="patch_11">
    <path d="M 227.93525 224.116212 
Q 280.618613 224.116212 331.065909 224.116212 
" style="fill: none; stroke: #0000ff; stroke-width: 2; stroke-linecap: round"/>
    <path d="M 327.065909 222.116212 
L 331.065909 224.116212 
L 327.065909 226.116212 
" style="fill: none; stroke: #0000ff; stroke-width: 2; stroke-linecap: round"/>
   </g>
   <g id="patch_12">
    <path d="M 399.802588 224.116212 
Q 429.050547 224.116212 456.062438 224.116212 
" style="fill: none; stroke: #0000ff; stroke-width: 2; stroke-linecap: round"/>
    <path d="M 452.062438 222.116212 
L 456.062438 224.116212 
L 452.062438 226.116212 
" style="fill: none; stroke: #0000ff; stroke-width: 2; stroke-linecap: round"/>
   </g>
   <g id="patch_13">
    <path d="M 524.791727 224.116212 
Q 546.226837 224.116212 565.425879 224.116212 
" style="fill: none; stroke: #0000ff; stroke-width: 2; stroke-linecap: round"/>
    <path d="M 561.425879 222.116212 
L 565.425879 224.116212 
L 561.425879 226.116212 
" style="fill: none; stroke: #0000ff; stroke-width: 2; stroke-linecap: round"/>
   </g>
   <g id="text_15">
    <!-- Workflow: Parse  Build Crystal  Compute Ewald  Simulate -->
    <g style="fill: #0000ff" transform="translate(226.786094 404.559525) scale(0.11 -0.11)">
     <defs>
      <path id="DejaVuSans-Oblique-57" d="M 616 4666 
L 1228 4666 
L 1453 697 
L 3213 4666 
L 3916 4666 
L 4147 697 
L 5888 4666 
L 6528 4666 
L 4453 0 
L 3659 0 
L 3444 3891 
L 1697 0 
L 903 0 
L 616 4666 
z
" transform="scale(0.015625)"/>
      <path id="DejaVuSans-Oblique-6f" d="M 1625 -91 
Q 1009 -91 651 289 
Q 294 669 294 1325 
Q 294 1706 417 2101 
Q 541 2497 738 2766 
Q 1047 3184 1428 3384 
Q 1809 3584 2291 3584 
Q 2888 3584 3255 3212 
Q 3622 2841 3622 2241 
Q 3622 1825 3500 1412 
Q 3378 1000 3181 728 
Q 2875 309 2494 109 
Q 2113 -91 1625 -91 
z
M 891 1344 
Q 891 869 1089 633 
Q 1288 397 1691 397 
Q 2269 397 2648 901 
Q 3028 1406 3028 2181 
Q 3028 2634 2825 2865 
Q 2622 3097 2228 3097 
Q 1903 3097 1650 2945 
Q 1397 2794 1197 2484 
Q 1050 2253 970 1956 
Q 891 1659 891 1344 
z
" transform="scale(0.015625)"/>
      <path id="DejaVuSans-Oblique-72" d="M 2853 2969 
Q 2766 3016 2653 3041 
Q 2541 3066 2413 3066 
Q 1953 3066 1609 2717 
Q 1266 2369 1153 1784 
L 800 0 
L 225 0 
L 909 3500 
L 1484 3500 
L 1375 2956 
Q 1603 3259 1920 3421 
Q 2238 3584 2597 3584 
Q 2691 3584 2781 3573 
Q 2872 3563 2963 3538 
L 2853 2969 
z
" transform="scale(0.015625)"/>
      <path id="DejaVuSans-Oblique-6b" d="M 1172 4863 
L 1747 4863 
L 1197 2028 
L 3169 3500 
L 3916 3500 
L 1716 1825 
L 3322 0 
L 2625 0 
L 1131 1709 
L 800 0 
L 225 0 
L 1172 4863 
z
" transform="scale(0.015625)"/>
      <path id="DejaVuSans-Oblique-66" d="M 3059 4863 
L 2969 4384 
L 2419 4384 
Q 2106 4384 1964 4261 
Q 1822 4138 1753 3809 
L 1691 3500 
L 2638 3500 
L 2553 3053 
L 1606 3053 
L 1013 0 
L 434 0 
L 1031 3053 
L 481 3053 
L 563 3500 
L 1113 3500 
L 1159 3744 
Q 1278 4363 1576 4613 
Q 1875 4863 2516 4863 
L 3059 4863 
z
" transform="scale(0.015625)"/>
      <path id="DejaVuSans-Oblique-6c" d="M 1172 4863 
L 1747 4863 
L 800 0 
L 225 0 
L 1172 4863 
z
" transform="scale(0.015625)"/>
      <path id="DejaVuSans-Oblique-77" d="M 544 3500 
L 1113 3500 
L 1259 684 
L 2566 3500 
L 3231 3500 
L 3425 684 
L 4666 3500 
L 5241 3500 
L 3641 0 
L 2969 0 
L 2797 2900 
L 1459 0 
L 781 0 
L 544 3500 
z
" transform="scale(0.015625)"/>
      <path id="DejaVuSans-Oblique-3a" d="M 978 3309 
L 1638 3309 
L 1484 2516 
L 825 2516 
L 978 3309 
z
M 488 794 
L 1147 794 
L 991 0 
L 331 0 
L 488 794 
z
" transform="scale(0.015625)"/>
      <path id="DejaVuSans-Oblique-20" transform="scale(0.015625)"/>
      <path id="DejaVuSans-Oblique-50" d="M 1081 4666 
L 2541 4666 
Q 3178 4666 3512 4369 
Q 3847 4072 3847 3500 
Q 3847 2731 3353 2303 
Q 2859 1875 1966 1875 
L 1172 1875 
L 806 0 
L 172 0 
L 1081 4666 
z
M 1613 4147 
L 1275 2394 
L 2069 2394 
Q 2606 2394 2893 2669 
Q 3181 2944 3181 3456 
Q 3181 3784 2986 3965 
Q 2791 4147 2438 4147 
L 1613 4147 
z
" transform="scale(0.015625)"/>
      <path id="DejaVuSans-Oblique-61" d="M 3438 1997 
L 3047 0 
L 2472 0 
L 2578 531 
Q 2325 219 2001 64 
Q 1678 -91 1281 -91 
Q 834 -91 548 182 
Q 263 456 263 884 
Q 263 1497 752 1853 
Q 1241 2209 2100 2209 
L 2900 2209 
L 2931 2363 
Q 2938 2388 2941 2417 
Q 2944 2447 2944 2509 
Q 2944 2788 2717 2942 
Q 2491 3097 2081 3097 
Q 1800 3097 1504 3025 
Q 1209 2953 897 2809 
L 997 3341 
Q 1322 3463 1633 3523 
Q 1944 3584 2234 3584 
Q 2853 3584 3176 3315 
Q 3500 3047 3500 2534 
Q 3500 2431 3484 2292 
Q 3469 2153 3438 1997 
z
M 2816 1759 
L 2241 1759 
Q 1534 1759 1195 1570 
Q 856 1381 856 984 
Q 856 709 1029 553 
Q 1203 397 1509 397 
Q 1978 397 2328 733 
Q 2678 1069 2791 1631 
L 2816 1759 
z
" transform="scale(0.015625)"/>
      <path id="DejaVuSans-Oblique-73" d="M 3200 3397 
L 3091 2853 
Q 2863 2978 2609 3040 
Q 2356 3103 2088 3103 
Q 1634 3103 1373 2948 
Q 1113 2794 1113 2528 
Q 1113 2219 1719 2053 
Q 1766 2041 1788 2034 
L 1972 1978 
Q 2547 1819 2739 1644 
Q 2931 1469 2931 1166 
Q 2931 609 2489 259 
Q 2047 -91 1331 -91 
Q 1053 -91 747 -37 
Q 441 16 72 128 
L 184 722 
Q 500 559 806 475 
Q 1113 391 1394 391 
Q 1816 391 2080 572 
Q 2344 753 2344 1031 
Q 2344 1331 1650 1516 
L 1591 1531 
L 1394 1581 
Q 956 1697 753 1886 
Q 550 2075 550 2369 
Q 550 2928 970 3256 
Q 1391 3584 2113 3584 
Q 2397 3584 2667 3537 
Q 2938 3491 3200 3397 
z
" transform="scale(0.015625)"/>
      <path id="DejaVuSans-Oblique-65" d="M 3078 2063 
Q 3088 2113 3092 2166 
Q 3097 2219 3097 2272 
Q 3097 2653 2873 2875 
Q 2650 3097 2266 3097 
Q 1838 3097 1509 2826 
Q 1181 2556 1013 2059 
L 3078 2063 
z
M 3578 1613 
L 903 1613 
Q 884 1494 878 1425 
Q 872 1356 872 1306 
Q 872 872 1139 634 
Q 1406 397 1894 397 
Q 2269 397 2603 481 
Q 2938 566 3225 728 
L 3116 159 
Q 2806 34 2476 -28 
Q 2147 -91 1806 -91 
Q 1078 -91 686 257 
Q 294 606 294 1247 
Q 294 1794 489 2264 
Q 684 2734 1063 3103 
Q 1306 3334 1642 3459 
Q 1978 3584 2356 3584 
Q 2950 3584 3301 3228 
Q 3653 2872 3653 2272 
Q 3653 2128 3634 1964 
Q 3616 1800 3578 1613 
z
" transform="scale(0.015625)"/>
      <path id="DejaVuSans-Oblique-2192" d="M 5050 2147 
L 5050 1866 
L 3822 638 
L 3447 1013 
L 4175 1741 
L 366 1741 
L 366 2272 
L 4175 2272 
L 3447 3000 
L 3822 3375 
L 5050 2147 
z
" transform="scale(0.015625)"/>
      <path id="DejaVuSans-Oblique-42" d="M 1081 4666 
L 2694 4666 
Q 3350 4666 3675 4422 
Q 4000 4178 4000 3688 
Q 4000 3238 3720 2911 
Q 3441 2584 2988 2516 
Q 3375 2428 3569 2181 
Q 3763 1934 3763 1522 
Q 3763 819 3242 409 
Q 2722 0 1819 0 
L 172 0 
L 1081 4666 
z
M 1234 2228 
L 903 519 
L 1919 519 
Q 2491 519 2800 781 
Q 3109 1044 3109 1522 
Q 3109 1891 2904 2059 
Q 2700 2228 2247 2228 
L 1234 2228 
z
M 1606 4147 
L 1331 2741 
L 2272 2741 
Q 2775 2741 3058 2959 
Q 3341 3178 3341 3566 
Q 3341 3869 3150 4008 
Q 2959 4147 2541 4147 
L 1606 4147 
z
" transform="scale(0.015625)"/>
      <path id="DejaVuSans-Oblique-75" d="M 428 1388 
L 838 3500 
L 1416 3500 
L 1006 1409 
Q 975 1256 961 1147 
Q 947 1038 947 966 
Q 947 700 1109 554 
Q 1272 409 1569 409 
Q 2031 409 2368 721 
Q 2706 1034 2809 1563 
L 3194 3500 
L 3769 3500 
L 3091 0 
L 2516 0 
L 2631 550 
Q 2388 244 2052 76 
Q 1716 -91 1338 -91 
Q 878 -91 622 161 
Q 366 413 366 863 
Q 366 956 381 1097 
Q 397 1238 428 1388 
z
" transform="scale(0.015625)"/>
      <path id="DejaVuSans-Oblique-69" d="M 1172 4863 
L 1747 4863 
L 1606 4134 
L 1031 4134 
L 1172 4863 
z
M 909 3500 
L 1484 3500 
L 800 0 
L 225 0 
L 909 3500 
z
" transform="scale(0.015625)"/>
      <path id="DejaVuSans-Oblique-64" d="M 2675 525 
Q 2444 222 2128 65 
Q 1813 -91 1428 -91 
Q 903 -91 598 267 
Q 294 625 294 1247 
Q 294 1766 478 2236 
Q 663 2706 1013 3078 
Q 1244 3325 1534 3454 
Q 1825 3584 2144 3584 
Q 2481 3584 2739 3421 
Q 2997 3259 3138 2956 
L 3513 4863 
L 4091 4863 
L 3144 0 
L 2566 0 
L 2675 525 
z
M 891 1350 
Q 891 897 1095 644 
Q 1300 391 1663 391 
Q 1931 391 2161 520 
Q 2391 650 2566 903 
Q 2750 1166 2856 1509 
Q 2963 1853 2963 2188 
Q 2963 2622 2758 2865 
Q 2553 3109 2194 3109 
Q 1922 3109 1687 2981 
Q 1453 2853 1288 2613 
Q 1106 2353 998 2009 
Q 891 1666 891 1350 
z
" transform="scale(0.015625)"/>
      <path id="DejaVuSans-Oblique-43" d="M 4447 4306 
L 4319 3641 
Q 4019 3944 3683 4091 
Q 3347 4238 2956 4238 
Q 2422 4238 2017 3981 
Q 1613 3725 1319 3200 
Q 1131 2863 1032 2486 
Q 934 2109 934 1728 
Q 934 1091 1264 756 
Q 1594 422 2222 422 
Q 2656 422 3056 561 
Q 3456 700 3834 978 
L 3688 231 
Q 3316 72 2936 -9 
Q 2556 -91 2175 -91 
Q 1278 -91 773 396 
Q 269 884 269 1753 
Q 269 2309 461 2846 
Q 653 3384 1013 3828 
Q 1394 4300 1883 4525 
Q 2372 4750 3022 4750 
Q 3422 4750 3780 4639 
Q 4138 4528 4447 4306 
z
" transform="scale(0.015625)"/>
      <path id="DejaVuSans-Oblique-79" d="M 1588 -325 
Q 1188 -997 936 -1164 
Q 684 -1331 294 -1331 
L -159 -1331 
L -63 -850 
L 269 -850 
Q 509 -850 678 -719 
Q 847 -588 1056 -206 
L 1234 128 
L 459 3500 
L 1069 3500 
L 1650 819 
L 3256 3500 
L 3859 3500 
L 1588 -325 
z
" transform="scale(0.015625)"/>
      <path id="DejaVuSans-Oblique-74" d="M 2706 3500 
L 2619 3053 
L 1472 3053 
L 1100 1153 
Q 1081 1047 1072 975 
Q 1063 903 1063 863 
Q 1063 663 1183 572 
Q 1303 481 1569 481 
L 2150 481 
L 2053 0 
L 1503 0 
Q 991 0 739 200 
Q 488 400 488 806 
Q 488 878 497 964 
Q 506 1050 525 1153 
L 897 3053 
L 409 3053 
L 500 3500 
L 978 3500 
L 1172 4494 
L 1747 4494 
L 1556 3500 
L 2706 3500 
z
" transform="scale(0.015625)"/>
      <path id="DejaVuSans-Oblique-6d" d="M 5747 2113 
L 5338 0 
L 4763 0 
L 5166 2094 
Q 5191 2228 5203 2325 
Q 5216 2422 5216 2491 
Q 5216 2772 5059 2928 
Q 4903 3084 4622 3084 
Q 4203 3084 3875 2770 
Q 3547 2456 3450 1953 
L 3066 0 
L 2491 0 
L 2900 2094 
Q 2925 2209 2937 2307 
Q 2950 2406 2950 2484 
Q 2950 2769 2794 2926 
Q 2638 3084 2363 3084 
Q 1938 3084 1609 2770 
Q 1281 2456 1184 1953 
L 800 0 
L 225 0 
L 909 3500 
L 1484 3500 
L 1375 2956 
Q 1609 3263 1923 3423 
Q 2238 3584 2597 3584 
Q 2978 3584 3223 3384 
Q 3469 3184 3519 2828 
Q 3781 3197 4126 3390 
Q 4472 3584 4856 3584 
Q 5306 3584 5551 3325 
Q 5797 3066 5797 2591 
Q 5797 2488 5784 2364 
Q 5772 2241 5747 2113 
z
" transform="scale(0.015625)"/>
      <path id="DejaVuSans-Oblique-70" d="M 3175 2156 
Q 3175 2616 2975 2859 
Q 2775 3103 2400 3103 
Q 2144 3103 1911 2972 
Q 1678 2841 1497 2591 
Q 1319 2344 1212 1994 
Q 1106 1644 1106 1300 
Q 1106 863 1306 627 
Q 1506 391 1875 391 
Q 2147 391 2380 519 
Q 2613 647 2778 891 
Q 2956 1147 3065 1494 
Q 3175 1841 3175 2156 
z
M 1394 2969 
Q 1625 3272 1939 3428 
Q 2253 3584 2638 3584 
Q 3175 3584 3472 3232 
Q 3769 2881 3769 2247 
Q 3769 1728 3584 1258 
Q 3400 788 3053 416 
Q 2822 169 2531 39 
Q 2241 -91 1919 -91 
Q 1547 -91 1294 64 
Q 1041 219 916 525 
L 556 -1331 
L -19 -1331 
L 922 3500 
L 1497 3500 
L 1394 2969 
z
" transform="scale(0.015625)"/>
      <path id="DejaVuSans-Oblique-45" d="M 1081 4666 
L 4031 4666 
L 3928 4134 
L 1606 4134 
L 1338 2753 
L 3566 2753 
L 3463 2222 
L 1234 2222 
L 909 531 
L 3284 531 
L 3181 0 
L 172 0 
L 1081 4666 
z
" transform="scale(0.015625)"/>
      <path id="DejaVuSans-Oblique-53" d="M 3859 4513 
L 3738 3897 
Q 3422 4066 3111 4152 
Q 2800 4238 2509 4238 
Q 1944 4238 1609 3991 
Q 1275 3744 1275 3334 
Q 1275 3109 1398 2989 
Q 1522 2869 2034 2731 
L 2413 2638 
Q 3053 2472 3303 2217 
Q 3553 1963 3553 1503 
Q 3553 797 2998 353 
Q 2444 -91 1538 -91 
Q 1166 -91 791 -17 
Q 416 56 38 206 
L 166 856 
Q 513 641 861 531 
Q 1209 422 1556 422 
Q 2147 422 2503 684 
Q 2859 947 2859 1369 
Q 2859 1650 2717 1795 
Q 2575 1941 2106 2059 
L 1728 2156 
Q 1081 2325 845 2545 
Q 609 2766 609 3163 
Q 609 3859 1145 4304 
Q 1681 4750 2541 4750 
Q 2875 4750 3203 4690 
Q 3531 4631 3859 4513 
z
" transform="scale(0.015625)"/>
     </defs>
     <use xlink:href="#DejaVuSans-Oblique-57"/>
     <use xlink:href="#DejaVuSans-Oblique-6f" transform="translate(98.876953 0)"/>
     <use xlink:href="#DejaVuSans-Oblique-72" transform="translate(160.058594 0)"/>
     <use xlink:href="#DejaVuSans-Oblique-6b" transform="translate(201.171875 0)"/>
     <use xlink:href="#DejaVuSans-Oblique-66" transform="translate(259.082031 0)"/>
     <use xlink:href="#DejaVuSans-Oblique-6c" transform="translate(294.287109 0)"/>
     <use xlink:href="#DejaVuSans-Oblique-6f" transform="translate(322.070312 0)"/>
     <use xlink:href="#DejaVuSans-Oblique-77" transform="translate(383.251953 0)"/>
     <use xlink:href="#DejaVuSans-Oblique-3a" transform="translate(465.039062 0)"/>
     <use xlink:href="#DejaVuSans-Oblique-20" transform="translate(498.730469 0)"/>
     <use xlink:href="#DejaVuSans-Oblique-50" transform="translate(530.517578 0)"/>
     <use xlink:href="#DejaVuSans-Oblique-61" transform="translate(590.820312 0)"/>
     <use xlink:href="#DejaVuSans-Oblique-72" transform="translate(652.099609 0)"/>
     <use xlink:href="#DejaVuSans-Oblique-73" transform="translate(693.212891 0)"/>
     <use xlink:href="#DejaVuSans-Oblique-65" transform="translate(745.3125 0)"/>
     <use xlink:href="#DejaVuSans-Oblique-20" transform="translate(806.835938 0)"/>
     <use xlink:href="#DejaVuSans-Oblique-2192" transform="translate(838.623047 0)"/>
     <use xlink:href="#DejaVuSans-Oblique-20" transform="translate(922.412109 0)"/>
     <use xlink:href="#DejaVuSans-Oblique-42" transform="translate(954.199219 0)"/>
     <use xlink:href="#DejaVuSans-Oblique-75" transform="translate(1022.802734 0)"/>
     <use xlink:href="#DejaVuSans-Oblique-69" transform="translate(1086.181641 0)"/>
     <use xlink:href="#DejaVuSans-Oblique-6c" transform="translate(1113.964844 0)"/>
     <use xlink:href="#DejaVuSans-Oblique-64" transform="translate(1141.748047 0)"/>
     <use xlink:href="#DejaVuSans-Oblique-20" transform="translate(1205.224609 0)"/>
     <use xlink:href="#DejaVuSans-Oblique-43" transform="translate(1237.011719 0)"/>
     <use xlink:href="#DejaVuSans-Oblique-72" transform="translate(1306.835938 0)"/>
     <use xlink:href="#DejaVuSans-Oblique-79" transform="translate(1347.949219 0)"/>
     <use xlink:href="#DejaVuSans-Oblique-73" transform="translate(1407.128906 0)"/>
     <use xlink:href="#DejaVuSans-Oblique-74" transform="translate(1459.228516 0)"/>
     <use xlink:href="#DejaVuSans-Oblique-61" transform="translate(1498.4375 0)"/>
     <use xlink:href="#DejaVuSans-Oblique-6c" transform="translate(1559.716797 0)"/>
     <use xlink:href="#DejaVuSans-Oblique-20" transform="translate(1587.5 0)"/>
     <use xlink:href="#DejaVuSans-Oblique-2192" transform="translate(1619.287109 0)"/>
     <use xlink:href="#DejaVuSans-Oblique-20" transform="translate(1703.076172 0)"/>
     <use xlink:href="#DejaVuSans-Oblique-43" transform="translate(1734.863281 0)"/>
     <use xlink:href="#DejaVuSans-Oblique-6f" transform="translate(1804.6875 0)"/>
     <use xlink:href="#DejaVuSans-Oblique-6d" transform="translate(1865.869141 0)"/>
     <use xlink:href="#DejaVuSans-Oblique-70" transform="translate(1963.28125 0)"/>
     <use xlink:href="#DejaVuSans-Oblique-75" transform="translate(2026.757812 0)"/>
     <use xlink:href="#DejaVuSans-Oblique-74" transform="translate(2090.136719 0)"/>
     <use xlink:href="#DejaVuSans-Oblique-65" transform="translate(2129.345703 0)"/>
     <use xlink:href="#DejaVuSans-Oblique-20" transform="translate(2190.869141 0)"/>
     <use xlink:href="#DejaVuSans-Oblique-45" transform="translate(2222.65625 0)"/>
     <use xlink:href="#DejaVuSans-Oblique-77" transform="translate(2285.839844 0)"/>
     <use xlink:href="#DejaVuSans-Oblique-61" transform="translate(2367.626953 0)"/>
     <use xlink:href="#DejaVuSans-Oblique-6c" transform="translate(2428.90625 0)"/>
     <use xlink:href="#DejaVuSans-Oblique-64" transform="translate(2456.689453 0)"/>
     <use xlink:href="#DejaVuSans-Oblique-20" transform="translate(2520.166016 0)"/>
     <use xlink:href="#DejaVuSans-Oblique-2192" transform="translate(2551.953125 0)"/>
     <use xlink:href="#DejaVuSans-Oblique-20" transform="translate(2635.742188 0)"/>
     <use xlink:href="#DejaVuSans-Oblique-53" transform="translate(2667.529297 0)"/>
     <use xlink:href="#DejaVuSans-Oblique-69" transform="translate(2731.005859 0)"/>
     <use xlink:href="#DejaVuSans-Oblique-6d" transform="translate(2758.789062 0)"/>
     <use xlink:href="#DejaVuSans-Oblique-75" transform="translate(2856.201172 0)"/>
     <use xlink:href="#DejaVuSans-Oblique-6c" transform="translate(2919.580078 0)"/>
     <use xlink:href="#DejaVuSans-Oblique-61" transform="translate(2947.363281 0)"/>
     <use xlink:href="#DejaVuSans-Oblique-74" transform="translate(3008.642578 0)"/>
     <use xlink:href="#DejaVuSans-Oblique-65" transform="translate(3047.851562 0)"/>
    </g>
   </g>
   <g id="text_16">
    <!-- PyTree Data Structure Hierarchy -->
    <g transform="translate(285.080312 17.837812) scale(0.14 -0.14)">
     <defs>
      <path id="DejaVuSans-54" d="M -19 4666 
L 3928 4666 
L 3928 4134 
L 2272 4134 
L 2272 0 
L 1638 0 
L 1638 4134 
L -19 4134 
L -19 4666 
z
" transform="scale(0.015625)"/>
      <path id="DejaVuSans-20" transform="scale(0.015625)"/>
      <path id="DejaVuSans-68" d="M 3513 2113 
L 3513 0 
L 2938 0 
L 2938 2094 
Q 2938 2591 2744 2837 
Q 2550 3084 2163 3084 
Q 1697 3084 1428 2787 
Q 1159 2491 1159 1978 
L 1159 0 
L 581 0 
L 581 4863 
L 1159 4863 
L 1159 2956 
Q 1366 3272 1645 3428 
Q 1925 3584 2291 3584 
Q 2894 3584 3203 3211 
Q 3513 2838 3513 2113 
z
" transform="scale(0.015625)"/>
     </defs>
     <use xlink:href="#DejaVuSans-50"/>
     <use xlink:href="#DejaVuSans-79" transform="translate(60.302734 0)"/>
     <use xlink:href="#DejaVuSans-54" transform="translate(119.482422 0)"/>
     <use xlink:href="#DejaVuSans-72" transform="translate(165.816406 0)"/>
     <use xlink:href="#DejaVuSans-65" transform="translate(204.679688 0)"/>
     <use xlink:href="#DejaVuSans-65" transform="translate(266.203125 0)"/>
     <use xlink:href="#DejaVuSans-20" transform="translate(327.726562 0)"/>
     <use xlink:href="#DejaVuSans-44" transform="translate(359.513672 0)"/>
     <use xlink:href="#DejaVuSans-61" transform="translate(436.515625 0)"/>
     <use xlink:href="#DejaVuSans-74" transform="translate(497.794922 0)"/>
     <use xlink:href="#DejaVuSans-61" transform="translate(537.003906 0)"/>
     <use xlink:href="#DejaVuSans-20" transform="translate(598.283203 0)"/>
     <use xlink:href="#DejaVuSans-53" transform="translate(630.070312 0)"/>
     <use xlink:href="#DejaVuSans-74" transform="translate(693.546875 0)"/>
     <use xlink:href="#DejaVuSans-72" transform="translate(732.755859 0)"/>
     <use xlink:href="#DejaVuSans-75" transform="translate(773.869141 0)"/>
     <use xlink:href="#DejaVuSans-63" transform="translate(837.248047 0)"/>
     <use xlink:href="#DejaVuSans-74" transform="translate(892.228516 0)"/>
     <use xlink:href="#DejaVuSans-75" transform="translate(931.4375 0)"/>
     <use xlink:href="#DejaVuSans-72" transform="translate(994.816406 0)"/>
     <use xlink:href="#DejaVuSans-65" transform="translate(1033.679688 0)"/>
     <use xlink:href="#DejaVuSans-20" transform="translate(1095.203125 0)"/>
     <use xlink:href="#DejaVuSans-48" transform="translate(1126.990234 0)"/>
     <use xlink:href="#DejaVuSans-69" transform="translate(1202.185547 0)"/>
     <use xlink:href="#DejaVuSans-65" transform="translate(1229.96875 0)"/>
     <use xlink:href="#DejaVuSans-72" transform="translate(1291.492188 0)"/>
     <use xlink:href="#DejaVuSans-61" transform="translate(1332.605469 0)"/>
     <use xlink:href="#DejaVuSans-72" transform="translate(1393.884766 0)"/>
     <use xlink:href="#DejaVuSans-63" transform="translate(1432.748047 0)"/>
     <use xlink:href="#DejaVuSans-68" transform="translate(1487.728516 0)"/>
     <use xlink:href="#DejaVuSans-79" transform="translate(1551.107422 0)"/>
    </g>
   </g>
  </g>
 </g>
 <defs>
  <clipPath id="pbc7f8c3235">
   <rect x="7.2" y="37.837812" width="781.2" height="443.52"/>
  </clipPath>
 </defs>
</svg>
