<?xml version="1.0" encoding="utf-8" standalone="no"?>
<!DOCTYPE svg PUBLIC "-//W3C//DTD SVG 1.1//EN"
  "http://www.w3.org/Graphics/SVG/1.1/DTD/svg11.dtd">
<svg xmlns:xlink="http://www.w3.org/1999/xlink" width="502.498125pt" height="395.995937pt" viewBox="0 0 502.498125 395.995937" xmlns="http://www.w3.org/2000/svg" version="1.1">
 <metadata>
  <rdf:RDF xmlns:dc="http://purl.org/dc/elements/1.1/" xmlns:cc="http://creativecommons.org/ns#" xmlns:rdf="http://www.w3.org/1999/02/22-rdf-syntax-ns#">
   <cc:Work>
    <dc:type rdf:resource="http://purl.org/dc/dcmitype/StillImage"/>
    <dc:date>2025-12-29T00:17:27.470225</dc:date>
    <dc:format>image/svg+xml</dc:format>
    <dc:creator>
     <cc:Agent>
      <dc:title>Matplotlib v3.10.3, https://matplotlib.org/</dc:title>
     </cc:Agent>
    </dc:creator>
   </cc:Work>
  </rdf:RDF>
 </metadata>
 <defs>
  <style type="text/css">*{stroke-linejoin: round; stroke-linecap: butt}</style>
 </defs>
 <g id="figure_1">
  <g id="patch_1">
   <path d="M 0 395.995937 
L 502.498125 395.995937 
L 502.498125 0 
L 0 0 
z
" style="fill: #ffffff"/>
  </g>
  <g id="axes_1">
   <g id="patch_2">
    <path d="M 45.716875 356.477812 
L 492.116875 356.477812 
L 492.116875 23.837812 
L 45.716875 23.837812 
z
" style="fill: #ffffff"/>
   </g>
   <g id="matplotlib.axis_1">
    <g id="xtick_1">
     <g id="line2d_1">
      <path d="M 45.716875 356.477812 
L 45.716875 23.837812 
" clip-path="url(#p099cca5624)" style="fill: none; stroke: #b0b0b0; stroke-opacity: 0.3; stroke-width: 0.8; stroke-linecap: square"/>
     </g>
     <g id="line2d_2">
      <defs>
       <path id="m484759b671" d="M 0 0 
L 0 3.5 
" style="stroke: #000000; stroke-width: 0.8"/>
      </defs>
      <g>
       <use xlink:href="#m484759b671" x="45.716875" y="356.477812" style="stroke: #000000; stroke-width: 0.8"/>
      </g>
     </g>
     <g id="text_1">
      <!-- 0 -->
      <g transform="translate(42.535625 371.07625) scale(0.1 -0.1)">
       <defs>
        <path id="DejaVuSans-30" d="M 2034 4250 
Q 1547 4250 1301 3770 
Q 1056 3291 1056 2328 
Q 1056 1369 1301 889 
Q 1547 409 2034 409 
Q 2525 409 2770 889 
Q 3016 1369 3016 2328 
Q 3016 3291 2770 3770 
Q 2525 4250 2034 4250 
z
M 2034 4750 
Q 2819 4750 3233 4129 
Q 3647 3509 3647 2328 
Q 3647 1150 3233 529 
Q 2819 -91 2034 -91 
Q 1250 -91 836 529 
Q 422 1150 422 2328 
Q 422 3509 836 4129 
Q 1250 4750 2034 4750 
z
" transform="scale(0.015625)"/>
       </defs>
       <use xlink:href="#DejaVuSans-30"/>
      </g>
     </g>
    </g>
    <g id="xtick_2">
     <g id="line2d_3">
      <path d="M 134.996875 356.477812 
L 134.996875 23.837812 
" clip-path="url(#p099cca5624)" style="fill: none; stroke: #b0b0b0; stroke-opacity: 0.3; stroke-width: 0.8; stroke-linecap: square"/>
     </g>
     <g id="line2d_4">
      <g>
       <use xlink:href="#m484759b671" x="134.996875" y="356.477812" style="stroke: #000000; stroke-width: 0.8"/>
      </g>
     </g>
     <g id="text_2">
      <!-- 1 -->
      <g transform="translate(131.815625 371.07625) scale(0.1 -0.1)">
       <defs>
        <path id="DejaVuSans-31" d="M 794 531 
L 1825 531 
L 1825 4091 
L 703 3866 
L 703 4441 
L 1819 4666 
L 2450 4666 
L 2450 531 
L 3481 531 
L 3481 0 
L 794 0 
L 794 531 
z
" transform="scale(0.015625)"/>
       </defs>
       <use xlink:href="#DejaVuSans-31"/>
      </g>
     </g>
    </g>
    <g id="xtick_3">
     <g id="line2d_5">
      <path d="M 224.276875 356.477812 
L 224.276875 23.837812 
" clip-path="url(#p099cca5624)" style="fill: none; stroke: #b0b0b0; stroke-opacity: 0.3; stroke-width: 0.8; stroke-linecap: square"/>
     </g>
     <g id="line2d_6">
      <g>
       <use xlink:href="#m484759b671" x="224.276875" y="356.477812" style="stroke: #000000; stroke-width: 0.8"/>
      </g>
     </g>
     <g id="text_3">
      <!-- 2 -->
      <g transform="translate(221.095625 371.07625) scale(0.1 -0.1)">
       <defs>
        <path id="DejaVuSans-32" d="M 1228 531 
L 3431 531 
L 3431 0 
L 469 0 
L 469 531 
Q 828 903 1448 1529 
Q 2069 2156 2228 2338 
Q 2531 2678 2651 2914 
Q 2772 3150 2772 3378 
Q 2772 3750 2511 3984 
Q 2250 4219 1831 4219 
Q 1534 4219 1204 4116 
Q 875 4013 500 3803 
L 500 4441 
Q 881 4594 1212 4672 
Q 1544 4750 1819 4750 
Q 2544 4750 2975 4387 
Q 3406 4025 3406 3419 
Q 3406 3131 3298 2873 
Q 3191 2616 2906 2266 
Q 2828 2175 2409 1742 
Q 1991 1309 1228 531 
z
" transform="scale(0.015625)"/>
       </defs>
       <use xlink:href="#DejaVuSans-32"/>
      </g>
     </g>
    </g>
    <g id="xtick_4">
     <g id="line2d_7">
      <path d="M 313.556875 356.477812 
L 313.556875 23.837812 
" clip-path="url(#p099cca5624)" style="fill: none; stroke: #b0b0b0; stroke-opacity: 0.3; stroke-width: 0.8; stroke-linecap: square"/>
     </g>
     <g id="line2d_8">
      <g>
       <use xlink:href="#m484759b671" x="313.556875" y="356.477812" style="stroke: #000000; stroke-width: 0.8"/>
      </g>
     </g>
     <g id="text_4">
      <!-- 3 -->
      <g transform="translate(310.375625 371.07625) scale(0.1 -0.1)">
       <defs>
        <path id="DejaVuSans-33" d="M 2597 2516 
Q 3050 2419 3304 2112 
Q 3559 1806 3559 1356 
Q 3559 666 3084 287 
Q 2609 -91 1734 -91 
Q 1441 -91 1130 -33 
Q 819 25 488 141 
L 488 750 
Q 750 597 1062 519 
Q 1375 441 1716 441 
Q 2309 441 2620 675 
Q 2931 909 2931 1356 
Q 2931 1769 2642 2001 
Q 2353 2234 1838 2234 
L 1294 2234 
L 1294 2753 
L 1863 2753 
Q 2328 2753 2575 2939 
Q 2822 3125 2822 3475 
Q 2822 3834 2567 4026 
Q 2313 4219 1838 4219 
Q 1578 4219 1281 4162 
Q 984 4106 628 3988 
L 628 4550 
Q 988 4650 1302 4700 
Q 1616 4750 1894 4750 
Q 2613 4750 3031 4423 
Q 3450 4097 3450 3541 
Q 3450 3153 3228 2886 
Q 3006 2619 2597 2516 
z
" transform="scale(0.015625)"/>
       </defs>
       <use xlink:href="#DejaVuSans-33"/>
      </g>
     </g>
    </g>
    <g id="xtick_5">
     <g id="line2d_9">
      <path d="M 402.836875 356.477812 
L 402.836875 23.837812 
" clip-path="url(#p099cca5624)" style="fill: none; stroke: #b0b0b0; stroke-opacity: 0.3; stroke-width: 0.8; stroke-linecap: square"/>
     </g>
     <g id="line2d_10">
      <g>
       <use xlink:href="#m484759b671" x="402.836875" y="356.477812" style="stroke: #000000; stroke-width: 0.8"/>
      </g>
     </g>
     <g id="text_5">
      <!-- 4 -->
      <g transform="translate(399.655625 371.07625) scale(0.1 -0.1)">
       <defs>
        <path id="DejaVuSans-34" d="M 2419 4116 
L 825 1625 
L 2419 1625 
L 2419 4116 
z
M 2253 4666 
L 3047 4666 
L 3047 1625 
L 3713 1625 
L 3713 1100 
L 3047 1100 
L 3047 0 
L 2419 0 
L 2419 1100 
L 313 1100 
L 313 1709 
L 2253 4666 
z
" transform="scale(0.015625)"/>
       </defs>
       <use xlink:href="#DejaVuSans-34"/>
      </g>
     </g>
    </g>
    <g id="xtick_6">
     <g id="line2d_11">
      <path d="M 492.116875 356.477812 
L 492.116875 23.837812 
" clip-path="url(#p099cca5624)" style="fill: none; stroke: #b0b0b0; stroke-opacity: 0.3; stroke-width: 0.8; stroke-linecap: square"/>
     </g>
     <g id="line2d_12">
      <g>
       <use xlink:href="#m484759b671" x="492.116875" y="356.477812" style="stroke: #000000; stroke-width: 0.8"/>
      </g>
     </g>
     <g id="text_6">
      <!-- 5 -->
      <g transform="translate(488.935625 371.07625) scale(0.1 -0.1)">
       <defs>
        <path id="DejaVuSans-35" d="M 691 4666 
L 3169 4666 
L 3169 4134 
L 1269 4134 
L 1269 2991 
Q 1406 3038 1543 3061 
Q 1681 3084 1819 3084 
Q 2600 3084 3056 2656 
Q 3513 2228 3513 1497 
Q 3513 744 3044 326 
Q 2575 -91 1722 -91 
Q 1428 -91 1123 -41 
Q 819 9 494 109 
L 494 744 
Q 775 591 1075 516 
Q 1375 441 1709 441 
Q 2250 441 2565 725 
Q 2881 1009 2881 1497 
Q 2881 1984 2565 2268 
Q 2250 2553 1709 2553 
Q 1456 2553 1204 2497 
Q 953 2441 691 2322 
L 691 4666 
z
" transform="scale(0.015625)"/>
       </defs>
       <use xlink:href="#DejaVuSans-35"/>
      </g>
     </g>
    </g>
    <g id="text_7">
     <!-- $q_z$ (1/A) -->
     <g transform="translate(246.176875 386.275937) scale(0.12 -0.12)">
      <defs>
       <path id="DejaVuSans-Oblique-71" d="M 2669 525 
Q 2438 222 2123 65 
Q 1809 -91 1428 -91 
Q 897 -91 595 267 
Q 294 625 294 1253 
Q 294 1759 480 2231 
Q 666 2703 1013 3078 
Q 1238 3322 1530 3453 
Q 1822 3584 2144 3584 
Q 2531 3584 2781 3431 
Q 3031 3278 3144 2969 
L 3244 3494 
L 3822 3494 
L 2888 -1319 
L 2309 -1319 
L 2669 525 
z
M 891 1338 
Q 891 875 1084 633 
Q 1278 391 1644 391 
Q 2188 391 2572 911 
Q 2956 1431 2956 2175 
Q 2956 2625 2757 2864 
Q 2559 3103 2188 3103 
Q 1916 3103 1684 2976 
Q 1453 2850 1281 2606 
Q 1100 2350 995 2006 
Q 891 1663 891 1338 
z
" transform="scale(0.015625)"/>
       <path id="DejaVuSans-Oblique-7a" d="M 744 3500 
L 3475 3500 
L 3372 2975 
L 738 459 
L 2913 459 
L 2822 0 
L -19 0 
L 84 525 
L 2719 3041 
L 653 3041 
L 744 3500 
z
" transform="scale(0.015625)"/>
       <path id="DejaVuSans-20" transform="scale(0.015625)"/>
       <path id="DejaVuSans-28" d="M 1984 4856 
Q 1566 4138 1362 3434 
Q 1159 2731 1159 2009 
Q 1159 1288 1364 580 
Q 1569 -128 1984 -844 
L 1484 -844 
Q 1016 -109 783 600 
Q 550 1309 550 2009 
Q 550 2706 781 3412 
Q 1013 4119 1484 4856 
L 1984 4856 
z
" transform="scale(0.015625)"/>
       <path id="DejaVuSans-2f" d="M 1625 4666 
L 2156 4666 
L 531 -594 
L 0 -594 
L 1625 4666 
z
" transform="scale(0.015625)"/>
       <path id="DejaVuSans-41" d="M 2188 4044 
L 1331 1722 
L 3047 1722 
L 2188 4044 
z
M 1831 4666 
L 2547 4666 
L 4325 0 
L 3669 0 
L 3244 1197 
L 1141 1197 
L 716 0 
L 50 0 
L 1831 4666 
z
" transform="scale(0.015625)"/>
       <path id="DejaVuSans-29" d="M 513 4856 
L 1013 4856 
Q 1481 4119 1714 3412 
Q 1947 2706 1947 2009 
Q 1947 1309 1714 600 
Q 1481 -109 1013 -844 
L 513 -844 
Q 928 -128 1133 580 
Q 1338 1288 1338 2009 
Q 1338 2731 1133 3434 
Q 928 4138 513 4856 
z
" transform="scale(0.015625)"/>
      </defs>
      <use xlink:href="#DejaVuSans-Oblique-71" transform="translate(0 0.125)"/>
      <use xlink:href="#DejaVuSans-Oblique-7a" transform="translate(63.476562 -16.28125) scale(0.7)"/>
      <use xlink:href="#DejaVuSans-20" transform="translate(102.954102 0.125)"/>
      <use xlink:href="#DejaVuSans-28" transform="translate(134.741211 0.125)"/>
      <use xlink:href="#DejaVuSans-31" transform="translate(173.754883 0.125)"/>
      <use xlink:href="#DejaVuSans-2f" transform="translate(237.37793 0.125)"/>
      <use xlink:href="#DejaVuSans-41" transform="translate(271.069336 0.125)"/>
      <use xlink:href="#DejaVuSans-29" transform="translate(339.477539 0.125)"/>
     </g>
    </g>
   </g>
   <g id="matplotlib.axis_2">
    <g id="ytick_1">
     <g id="line2d_13">
      <path d="M 45.716875 356.477812 
L 492.116875 356.477812 
" clip-path="url(#p099cca5624)" style="fill: none; stroke: #b0b0b0; stroke-opacity: 0.3; stroke-width: 0.8; stroke-linecap: square"/>
     </g>
     <g id="line2d_14">
      <defs>
       <path id="m7e43925beb" d="M 0 0 
L -3.5 0 
" style="stroke: #000000; stroke-width: 0.8"/>
      </defs>
      <g>
       <use xlink:href="#m7e43925beb" x="45.716875" y="356.477812" style="stroke: #000000; stroke-width: 0.8"/>
      </g>
     </g>
     <g id="text_8">
      <!-- 0.0 -->
      <g transform="translate(22.81375 360.277031) scale(0.1 -0.1)">
       <defs>
        <path id="DejaVuSans-2e" d="M 684 794 
L 1344 794 
L 1344 0 
L 684 0 
L 684 794 
z
" transform="scale(0.015625)"/>
       </defs>
       <use xlink:href="#DejaVuSans-30"/>
       <use xlink:href="#DejaVuSans-2e" transform="translate(63.623047 0)"/>
       <use xlink:href="#DejaVuSans-30" transform="translate(95.410156 0)"/>
      </g>
     </g>
    </g>
    <g id="ytick_2">
     <g id="line2d_15">
      <path d="M 45.716875 293.117812 
L 492.116875 293.117812 
" clip-path="url(#p099cca5624)" style="fill: none; stroke: #b0b0b0; stroke-opacity: 0.3; stroke-width: 0.8; stroke-linecap: square"/>
     </g>
     <g id="line2d_16">
      <g>
       <use xlink:href="#m7e43925beb" x="45.716875" y="293.117812" style="stroke: #000000; stroke-width: 0.8"/>
      </g>
     </g>
     <g id="text_9">
      <!-- 0.2 -->
      <g transform="translate(22.81375 296.917031) scale(0.1 -0.1)">
       <use xlink:href="#DejaVuSans-30"/>
       <use xlink:href="#DejaVuSans-2e" transform="translate(63.623047 0)"/>
       <use xlink:href="#DejaVuSans-32" transform="translate(95.410156 0)"/>
      </g>
     </g>
    </g>
    <g id="ytick_3">
     <g id="line2d_17">
      <path d="M 45.716875 229.757812 
L 492.116875 229.757812 
" clip-path="url(#p099cca5624)" style="fill: none; stroke: #b0b0b0; stroke-opacity: 0.3; stroke-width: 0.8; stroke-linecap: square"/>
     </g>
     <g id="line2d_18">
      <g>
       <use xlink:href="#m7e43925beb" x="45.716875" y="229.757812" style="stroke: #000000; stroke-width: 0.8"/>
      </g>
     </g>
     <g id="text_10">
      <!-- 0.4 -->
      <g transform="translate(22.81375 233.557031) scale(0.1 -0.1)">
       <use xlink:href="#DejaVuSans-30"/>
       <use xlink:href="#DejaVuSans-2e" transform="translate(63.623047 0)"/>
       <use xlink:href="#DejaVuSans-34" transform="translate(95.410156 0)"/>
      </g>
     </g>
    </g>
    <g id="ytick_4">
     <g id="line2d_19">
      <path d="M 45.716875 166.397812 
L 492.116875 166.397812 
" clip-path="url(#p099cca5624)" style="fill: none; stroke: #b0b0b0; stroke-opacity: 0.3; stroke-width: 0.8; stroke-linecap: square"/>
     </g>
     <g id="line2d_20">
      <g>
       <use xlink:href="#m7e43925beb" x="45.716875" y="166.397812" style="stroke: #000000; stroke-width: 0.8"/>
      </g>
     </g>
     <g id="text_11">
      <!-- 0.6 -->
      <g transform="translate(22.81375 170.197031) scale(0.1 -0.1)">
       <defs>
        <path id="DejaVuSans-36" d="M 2113 2584 
Q 1688 2584 1439 2293 
Q 1191 2003 1191 1497 
Q 1191 994 1439 701 
Q 1688 409 2113 409 
Q 2538 409 2786 701 
Q 3034 994 3034 1497 
Q 3034 2003 2786 2293 
Q 2538 2584 2113 2584 
z
M 3366 4563 
L 3366 3988 
Q 3128 4100 2886 4159 
Q 2644 4219 2406 4219 
Q 1781 4219 1451 3797 
Q 1122 3375 1075 2522 
Q 1259 2794 1537 2939 
Q 1816 3084 2150 3084 
Q 2853 3084 3261 2657 
Q 3669 2231 3669 1497 
Q 3669 778 3244 343 
Q 2819 -91 2113 -91 
Q 1303 -91 875 529 
Q 447 1150 447 2328 
Q 447 3434 972 4092 
Q 1497 4750 2381 4750 
Q 2619 4750 2861 4703 
Q 3103 4656 3366 4563 
z
" transform="scale(0.015625)"/>
       </defs>
       <use xlink:href="#DejaVuSans-30"/>
       <use xlink:href="#DejaVuSans-2e" transform="translate(63.623047 0)"/>
       <use xlink:href="#DejaVuSans-36" transform="translate(95.410156 0)"/>
      </g>
     </g>
    </g>
    <g id="ytick_5">
     <g id="line2d_21">
      <path d="M 45.716875 103.037812 
L 492.116875 103.037812 
" clip-path="url(#p099cca5624)" style="fill: none; stroke: #b0b0b0; stroke-opacity: 0.3; stroke-width: 0.8; stroke-linecap: square"/>
     </g>
     <g id="line2d_22">
      <g>
       <use xlink:href="#m7e43925beb" x="45.716875" y="103.037812" style="stroke: #000000; stroke-width: 0.8"/>
      </g>
     </g>
     <g id="text_12">
      <!-- 0.8 -->
      <g transform="translate(22.81375 106.837031) scale(0.1 -0.1)">
       <defs>
        <path id="DejaVuSans-38" d="M 2034 2216 
Q 1584 2216 1326 1975 
Q 1069 1734 1069 1313 
Q 1069 891 1326 650 
Q 1584 409 2034 409 
Q 2484 409 2743 651 
Q 3003 894 3003 1313 
Q 3003 1734 2745 1975 
Q 2488 2216 2034 2216 
z
M 1403 2484 
Q 997 2584 770 2862 
Q 544 3141 544 3541 
Q 544 4100 942 4425 
Q 1341 4750 2034 4750 
Q 2731 4750 3128 4425 
Q 3525 4100 3525 3541 
Q 3525 3141 3298 2862 
Q 3072 2584 2669 2484 
Q 3125 2378 3379 2068 
Q 3634 1759 3634 1313 
Q 3634 634 3220 271 
Q 2806 -91 2034 -91 
Q 1263 -91 848 271 
Q 434 634 434 1313 
Q 434 1759 690 2068 
Q 947 2378 1403 2484 
z
M 1172 3481 
Q 1172 3119 1398 2916 
Q 1625 2713 2034 2713 
Q 2441 2713 2670 2916 
Q 2900 3119 2900 3481 
Q 2900 3844 2670 4047 
Q 2441 4250 2034 4250 
Q 1625 4250 1398 4047 
Q 1172 3844 1172 3481 
z
" transform="scale(0.015625)"/>
       </defs>
       <use xlink:href="#DejaVuSans-30"/>
       <use xlink:href="#DejaVuSans-2e" transform="translate(63.623047 0)"/>
       <use xlink:href="#DejaVuSans-38" transform="translate(95.410156 0)"/>
      </g>
     </g>
    </g>
    <g id="ytick_6">
     <g id="line2d_23">
      <path d="M 45.716875 39.677812 
L 492.116875 39.677812 
" clip-path="url(#p099cca5624)" style="fill: none; stroke: #b0b0b0; stroke-opacity: 0.3; stroke-width: 0.8; stroke-linecap: square"/>
     </g>
     <g id="line2d_24">
      <g>
       <use xlink:href="#m7e43925beb" x="45.716875" y="39.677812" style="stroke: #000000; stroke-width: 0.8"/>
      </g>
     </g>
     <g id="text_13">
      <!-- 1.0 -->
      <g transform="translate(22.81375 43.477031) scale(0.1 -0.1)">
       <use xlink:href="#DejaVuSans-31"/>
       <use xlink:href="#DejaVuSans-2e" transform="translate(63.623047 0)"/>
       <use xlink:href="#DejaVuSans-30" transform="translate(95.410156 0)"/>
      </g>
     </g>
    </g>
    <g id="text_14">
     <!-- Roughness Damping Factor -->
     <g transform="translate(16.318125 272.299687) rotate(-90) scale(0.12 -0.12)">
      <defs>
       <path id="DejaVuSans-52" d="M 2841 2188 
Q 3044 2119 3236 1894 
Q 3428 1669 3622 1275 
L 4263 0 
L 3584 0 
L 2988 1197 
Q 2756 1666 2539 1819 
Q 2322 1972 1947 1972 
L 1259 1972 
L 1259 0 
L 628 0 
L 628 4666 
L 2053 4666 
Q 2853 4666 3247 4331 
Q 3641 3997 3641 3322 
Q 3641 2881 3436 2590 
Q 3231 2300 2841 2188 
z
M 1259 4147 
L 1259 2491 
L 2053 2491 
Q 2509 2491 2742 2702 
Q 2975 2913 2975 3322 
Q 2975 3731 2742 3939 
Q 2509 4147 2053 4147 
L 1259 4147 
z
" transform="scale(0.015625)"/>
       <path id="DejaVuSans-6f" d="M 1959 3097 
Q 1497 3097 1228 2736 
Q 959 2375 959 1747 
Q 959 1119 1226 758 
Q 1494 397 1959 397 
Q 2419 397 2687 759 
Q 2956 1122 2956 1747 
Q 2956 2369 2687 2733 
Q 2419 3097 1959 3097 
z
M 1959 3584 
Q 2709 3584 3137 3096 
Q 3566 2609 3566 1747 
Q 3566 888 3137 398 
Q 2709 -91 1959 -91 
Q 1206 -91 779 398 
Q 353 888 353 1747 
Q 353 2609 779 3096 
Q 1206 3584 1959 3584 
z
" transform="scale(0.015625)"/>
       <path id="DejaVuSans-75" d="M 544 1381 
L 544 3500 
L 1119 3500 
L 1119 1403 
Q 1119 906 1312 657 
Q 1506 409 1894 409 
Q 2359 409 2629 706 
Q 2900 1003 2900 1516 
L 2900 3500 
L 3475 3500 
L 3475 0 
L 2900 0 
L 2900 538 
Q 2691 219 2414 64 
Q 2138 -91 1772 -91 
Q 1169 -91 856 284 
Q 544 659 544 1381 
z
M 1991 3584 
L 1991 3584 
z
" transform="scale(0.015625)"/>
       <path id="DejaVuSans-67" d="M 2906 1791 
Q 2906 2416 2648 2759 
Q 2391 3103 1925 3103 
Q 1463 3103 1205 2759 
Q 947 2416 947 1791 
Q 947 1169 1205 825 
Q 1463 481 1925 481 
Q 2391 481 2648 825 
Q 2906 1169 2906 1791 
z
M 3481 434 
Q 3481 -459 3084 -895 
Q 2688 -1331 1869 -1331 
Q 1566 -1331 1297 -1286 
Q 1028 -1241 775 -1147 
L 775 -588 
Q 1028 -725 1275 -790 
Q 1522 -856 1778 -856 
Q 2344 -856 2625 -561 
Q 2906 -266 2906 331 
L 2906 616 
Q 2728 306 2450 153 
Q 2172 0 1784 0 
Q 1141 0 747 490 
Q 353 981 353 1791 
Q 353 2603 747 3093 
Q 1141 3584 1784 3584 
Q 2172 3584 2450 3431 
Q 2728 3278 2906 2969 
L 2906 3500 
L 3481 3500 
L 3481 434 
z
" transform="scale(0.015625)"/>
       <path id="DejaVuSans-68" d="M 3513 2113 
L 3513 0 
L 2938 0 
L 2938 2094 
Q 2938 2591 2744 2837 
Q 2550 3084 2163 3084 
Q 1697 3084 1428 2787 
Q 1159 2491 1159 1978 
L 1159 0 
L 581 0 
L 581 4863 
L 1159 4863 
L 1159 2956 
Q 1366 3272 1645 3428 
Q 1925 3584 2291 3584 
Q 2894 3584 3203 3211 
Q 3513 2838 3513 2113 
z
" transform="scale(0.015625)"/>
       <path id="DejaVuSans-6e" d="M 3513 2113 
L 3513 0 
L 2938 0 
L 2938 2094 
Q 2938 2591 2744 2837 
Q 2550 3084 2163 3084 
Q 1697 3084 1428 2787 
Q 1159 2491 1159 1978 
L 1159 0 
L 581 0 
L 581 3500 
L 1159 3500 
L 1159 2956 
Q 1366 3272 1645 3428 
Q 1925 3584 2291 3584 
Q 2894 3584 3203 3211 
Q 3513 2838 3513 2113 
z
" transform="scale(0.015625)"/>
       <path id="DejaVuSans-65" d="M 3597 1894 
L 3597 1613 
L 953 1613 
Q 991 1019 1311 708 
Q 1631 397 2203 397 
Q 2534 397 2845 478 
Q 3156 559 3463 722 
L 3463 178 
Q 3153 47 2828 -22 
Q 2503 -91 2169 -91 
Q 1331 -91 842 396 
Q 353 884 353 1716 
Q 353 2575 817 3079 
Q 1281 3584 2069 3584 
Q 2775 3584 3186 3129 
Q 3597 2675 3597 1894 
z
M 3022 2063 
Q 3016 2534 2758 2815 
Q 2500 3097 2075 3097 
Q 1594 3097 1305 2825 
Q 1016 2553 972 2059 
L 3022 2063 
z
" transform="scale(0.015625)"/>
       <path id="DejaVuSans-73" d="M 2834 3397 
L 2834 2853 
Q 2591 2978 2328 3040 
Q 2066 3103 1784 3103 
Q 1356 3103 1142 2972 
Q 928 2841 928 2578 
Q 928 2378 1081 2264 
Q 1234 2150 1697 2047 
L 1894 2003 
Q 2506 1872 2764 1633 
Q 3022 1394 3022 966 
Q 3022 478 2636 193 
Q 2250 -91 1575 -91 
Q 1294 -91 989 -36 
Q 684 19 347 128 
L 347 722 
Q 666 556 975 473 
Q 1284 391 1588 391 
Q 1994 391 2212 530 
Q 2431 669 2431 922 
Q 2431 1156 2273 1281 
Q 2116 1406 1581 1522 
L 1381 1569 
Q 847 1681 609 1914 
Q 372 2147 372 2553 
Q 372 3047 722 3315 
Q 1072 3584 1716 3584 
Q 2034 3584 2315 3537 
Q 2597 3491 2834 3397 
z
" transform="scale(0.015625)"/>
       <path id="DejaVuSans-44" d="M 1259 4147 
L 1259 519 
L 2022 519 
Q 2988 519 3436 956 
Q 3884 1394 3884 2338 
Q 3884 3275 3436 3711 
Q 2988 4147 2022 4147 
L 1259 4147 
z
M 628 4666 
L 1925 4666 
Q 3281 4666 3915 4102 
Q 4550 3538 4550 2338 
Q 4550 1131 3912 565 
Q 3275 0 1925 0 
L 628 0 
L 628 4666 
z
" transform="scale(0.015625)"/>
       <path id="DejaVuSans-61" d="M 2194 1759 
Q 1497 1759 1228 1600 
Q 959 1441 959 1056 
Q 959 750 1161 570 
Q 1363 391 1709 391 
Q 2188 391 2477 730 
Q 2766 1069 2766 1631 
L 2766 1759 
L 2194 1759 
z
M 3341 1997 
L 3341 0 
L 2766 0 
L 2766 531 
Q 2569 213 2275 61 
Q 1981 -91 1556 -91 
Q 1019 -91 701 211 
Q 384 513 384 1019 
Q 384 1609 779 1909 
Q 1175 2209 1959 2209 
L 2766 2209 
L 2766 2266 
Q 2766 2663 2505 2880 
Q 2244 3097 1772 3097 
Q 1472 3097 1187 3025 
Q 903 2953 641 2809 
L 641 3341 
Q 956 3463 1253 3523 
Q 1550 3584 1831 3584 
Q 2591 3584 2966 3190 
Q 3341 2797 3341 1997 
z
" transform="scale(0.015625)"/>
       <path id="DejaVuSans-6d" d="M 3328 2828 
Q 3544 3216 3844 3400 
Q 4144 3584 4550 3584 
Q 5097 3584 5394 3201 
Q 5691 2819 5691 2113 
L 5691 0 
L 5113 0 
L 5113 2094 
Q 5113 2597 4934 2840 
Q 4756 3084 4391 3084 
Q 3944 3084 3684 2787 
Q 3425 2491 3425 1978 
L 3425 0 
L 2847 0 
L 2847 2094 
Q 2847 2600 2669 2842 
Q 2491 3084 2119 3084 
Q 1678 3084 1418 2786 
Q 1159 2488 1159 1978 
L 1159 0 
L 581 0 
L 581 3500 
L 1159 3500 
L 1159 2956 
Q 1356 3278 1631 3431 
Q 1906 3584 2284 3584 
Q 2666 3584 2933 3390 
Q 3200 3197 3328 2828 
z
" transform="scale(0.015625)"/>
       <path id="DejaVuSans-70" d="M 1159 525 
L 1159 -1331 
L 581 -1331 
L 581 3500 
L 1159 3500 
L 1159 2969 
Q 1341 3281 1617 3432 
Q 1894 3584 2278 3584 
Q 2916 3584 3314 3078 
Q 3713 2572 3713 1747 
Q 3713 922 3314 415 
Q 2916 -91 2278 -91 
Q 1894 -91 1617 61 
Q 1341 213 1159 525 
z
M 3116 1747 
Q 3116 2381 2855 2742 
Q 2594 3103 2138 3103 
Q 1681 3103 1420 2742 
Q 1159 2381 1159 1747 
Q 1159 1113 1420 752 
Q 1681 391 2138 391 
Q 2594 391 2855 752 
Q 3116 1113 3116 1747 
z
" transform="scale(0.015625)"/>
       <path id="DejaVuSans-69" d="M 603 3500 
L 1178 3500 
L 1178 0 
L 603 0 
L 603 3500 
z
M 603 4863 
L 1178 4863 
L 1178 4134 
L 603 4134 
L 603 4863 
z
" transform="scale(0.015625)"/>
       <path id="DejaVuSans-46" d="M 628 4666 
L 3309 4666 
L 3309 4134 
L 1259 4134 
L 1259 2759 
L 3109 2759 
L 3109 2228 
L 1259 2228 
L 1259 0 
L 628 0 
L 628 4666 
z
" transform="scale(0.015625)"/>
       <path id="DejaVuSans-63" d="M 3122 3366 
L 3122 2828 
Q 2878 2963 2633 3030 
Q 2388 3097 2138 3097 
Q 1578 3097 1268 2742 
Q 959 2388 959 1747 
Q 959 1106 1268 751 
Q 1578 397 2138 397 
Q 2388 397 2633 464 
Q 2878 531 3122 666 
L 3122 134 
Q 2881 22 2623 -34 
Q 2366 -91 2075 -91 
Q 1284 -91 818 406 
Q 353 903 353 1747 
Q 353 2603 823 3093 
Q 1294 3584 2113 3584 
Q 2378 3584 2631 3529 
Q 2884 3475 3122 3366 
z
" transform="scale(0.015625)"/>
       <path id="DejaVuSans-74" d="M 1172 4494 
L 1172 3500 
L 2356 3500 
L 2356 3053 
L 1172 3053 
L 1172 1153 
Q 1172 725 1289 603 
Q 1406 481 1766 481 
L 2356 481 
L 2356 0 
L 1766 0 
Q 1100 0 847 248 
Q 594 497 594 1153 
L 594 3053 
L 172 3053 
L 172 3500 
L 594 3500 
L 594 4494 
L 1172 4494 
z
" transform="scale(0.015625)"/>
       <path id="DejaVuSans-72" d="M 2631 2963 
Q 2534 3019 2420 3045 
Q 2306 3072 2169 3072 
Q 1681 3072 1420 2755 
Q 1159 2438 1159 1844 
L 1159 0 
L 581 0 
L 581 3500 
L 1159 3500 
L 1159 2956 
Q 1341 3275 1631 3429 
Q 1922 3584 2338 3584 
Q 2397 3584 2469 3576 
Q 2541 3569 2628 3553 
L 2631 2963 
z
" transform="scale(0.015625)"/>
      </defs>
      <use xlink:href="#DejaVuSans-52"/>
      <use xlink:href="#DejaVuSans-6f" transform="translate(64.982422 0)"/>
      <use xlink:href="#DejaVuSans-75" transform="translate(126.164062 0)"/>
      <use xlink:href="#DejaVuSans-67" transform="translate(189.542969 0)"/>
      <use xlink:href="#DejaVuSans-68" transform="translate(253.019531 0)"/>
      <use xlink:href="#DejaVuSans-6e" transform="translate(316.398438 0)"/>
      <use xlink:href="#DejaVuSans-65" transform="translate(379.777344 0)"/>
      <use xlink:href="#DejaVuSans-73" transform="translate(441.300781 0)"/>
      <use xlink:href="#DejaVuSans-73" transform="translate(493.400391 0)"/>
      <use xlink:href="#DejaVuSans-20" transform="translate(545.5 0)"/>
      <use xlink:href="#DejaVuSans-44" transform="translate(577.287109 0)"/>
      <use xlink:href="#DejaVuSans-61" transform="translate(654.289062 0)"/>
      <use xlink:href="#DejaVuSans-6d" transform="translate(715.568359 0)"/>
      <use xlink:href="#DejaVuSans-70" transform="translate(812.980469 0)"/>
      <use xlink:href="#DejaVuSans-69" transform="translate(876.457031 0)"/>
      <use xlink:href="#DejaVuSans-6e" transform="translate(904.240234 0)"/>
      <use xlink:href="#DejaVuSans-67" transform="translate(967.619141 0)"/>
      <use xlink:href="#DejaVuSans-20" transform="translate(1031.095703 0)"/>
      <use xlink:href="#DejaVuSans-46" transform="translate(1062.882812 0)"/>
      <use xlink:href="#DejaVuSans-61" transform="translate(1111.277344 0)"/>
      <use xlink:href="#DejaVuSans-63" transform="translate(1172.556641 0)"/>
      <use xlink:href="#DejaVuSans-74" transform="translate(1227.537109 0)"/>
      <use xlink:href="#DejaVuSans-6f" transform="translate(1266.746094 0)"/>
      <use xlink:href="#DejaVuSans-72" transform="translate(1327.927734 0)"/>
     </g>
    </g>
   </g>
   <g id="line2d_25">
    <path d="M 45.716875 39.677812 
L 492.116875 39.677812 
L 492.116875 39.677812 
" clip-path="url(#p099cca5624)" style="fill: none; stroke: #440154; stroke-width: 2; stroke-linecap: square"/>
   </g>
   <g id="line2d_26">
    <path d="M 45.716875 39.677812 
L 50.203307 39.777794 
L 54.689739 40.07755 
L 59.176171 40.576513 
L 63.662604 41.273739 
L 68.149036 42.167911 
L 72.635468 43.257345 
L 77.1219 44.539991 
L 81.608332 46.013441 
L 86.094764 47.674939 
L 90.581197 49.521387 
L 95.067629 51.549356 
L 99.554061 53.755095 
L 104.040493 56.134544 
L 110.770141 60.019816 
L 117.49979 64.27018 
L 124.229438 68.868422 
L 130.959086 73.796116 
L 137.688734 79.03375 
L 144.418383 84.560849 
L 151.148031 90.356112 
L 157.877679 96.397549 
L 166.850543 104.796706 
L 175.823408 113.538859 
L 184.796272 122.568763 
L 196.012352 134.176433 
L 209.471649 148.434182 
L 258.822403 201.064435 
L 270.038483 212.573415 
L 281.254563 223.754816 
L 290.227428 232.424003 
L 299.200292 240.819365 
L 308.173156 248.91852 
L 317.146021 256.702789 
L 326.118885 264.157117 
L 335.091749 271.26996 
L 344.064614 278.033133 
L 353.037478 284.441629 
L 362.010342 290.49342 
L 368.739991 294.798515 
L 375.469639 298.904563 
L 382.199287 302.813548 
L 388.928935 306.528129 
L 395.658584 310.051582 
L 404.631448 314.458907 
L 413.604312 318.543748 
L 422.577177 322.317853 
L 431.550041 325.794049 
L 440.522905 328.986008 
L 449.495769 331.908037 
L 458.468634 334.574871 
L 467.441498 337.001486 
L 476.414362 339.202936 
L 485.387227 341.194194 
L 492.116875 342.558592 
L 492.116875 342.558592 
" clip-path="url(#p099cca5624)" style="fill: none; stroke: #3e4a89; stroke-width: 2; stroke-linecap: square"/>
   </g>
   <g id="line2d_27">
    <path d="M 45.716875 39.677812 
L 47.960091 39.777794 
L 50.203307 40.07755 
L 52.446523 40.576513 
L 54.689739 41.273739 
L 56.932955 42.167911 
L 59.176171 43.257345 
L 61.419388 44.539991 
L 63.662604 46.013441 
L 65.90582 47.674939 
L 68.149036 49.521387 
L 70.392252 51.549356 
L 72.635468 53.755095 
L 74.878684 56.134544 
L 79.365116 61.396862 
L 83.851548 67.298135 
L 88.337981 73.796116 
L 92.824413 80.844989 
L 97.310845 88.395906 
L 101.797277 96.397549 
L 106.283709 104.796706 
L 113.013357 118.021308 
L 119.743006 131.831024 
L 128.71587 150.833563 
L 151.148031 198.729167 
L 157.877679 212.573415 
L 164.607327 225.946419 
L 171.336976 238.747483 
L 178.066624 250.894757 
L 182.553056 258.597812 
L 187.039488 265.967718 
L 191.52592 272.993783 
L 196.012352 279.668636 
L 200.498785 285.988035 
L 204.985217 291.950661 
L 209.471649 297.557889 
L 213.958081 302.813548 
L 218.444513 307.723671 
L 222.930945 312.29624 
L 227.417378 316.540932 
L 231.90381 320.468864 
L 236.390242 324.092352 
L 240.876674 327.424676 
L 245.363106 330.479851 
L 249.849538 333.272421 
L 254.33597 335.817265 
L 258.822403 338.129418 
L 263.308835 340.22391 
L 267.795267 342.115626 
L 272.281699 343.819181 
L 276.768131 345.348808 
L 283.49778 347.347106 
L 290.227428 349.029037 
L 296.957076 350.435573 
L 303.686724 351.604285 
L 310.416372 352.569211 
L 319.389237 353.590988 
L 328.362101 354.367083 
L 339.578182 355.070861 
L 350.794262 355.554665 
L 366.496774 355.97945 
L 386.685719 356.262244 
L 415.847528 356.419109 
L 478.657579 356.475332 
L 492.116875 356.476632 
L 492.116875 356.476632 
" clip-path="url(#p099cca5624)" style="fill: none; stroke: #25848e; stroke-width: 2; stroke-linecap: square"/>
   </g>
   <g id="line2d_28">
    <path d="M 45.716875 39.677812 
L 47.960091 40.07755 
L 50.203307 41.273739 
L 52.446523 43.257345 
L 54.689739 46.013441 
L 56.932955 49.521387 
L 59.176171 53.755095 
L 61.419388 58.683347 
L 63.662604 64.27018 
L 65.90582 70.475323 
L 68.149036 77.254679 
L 70.392252 84.560849 
L 72.635468 92.343675 
L 77.1219 109.128351 
L 81.608332 127.174302 
L 88.337981 155.644738 
L 97.310845 194.029767 
L 101.797277 212.573415 
L 106.283709 230.281421 
L 110.770141 246.922585 
L 115.256573 262.325157 
L 119.743006 276.375447 
L 121.986222 282.872916 
L 124.229438 289.013919 
L 126.472654 294.798515 
L 128.71587 300.229336 
L 130.959086 305.311345 
L 133.202302 310.051582 
L 135.445518 314.458907 
L 137.688734 318.543748 
L 139.93195 322.317853 
L 142.175166 325.794049 
L 144.418383 328.986008 
L 146.661599 331.908037 
L 148.904815 334.574871 
L 151.148031 337.001486 
L 153.391247 339.202936 
L 155.634463 341.194194 
L 157.877679 342.990024 
L 160.120895 344.604863 
L 162.364111 346.052722 
L 164.607327 347.347106 
L 166.850543 348.500948 
L 171.336976 350.435573 
L 175.823408 351.946991 
L 180.30984 353.114485 
L 184.796272 354.006232 
L 189.282704 354.679796 
L 196.012352 355.383108 
L 202.742001 355.826289 
L 211.714865 356.162974 
L 225.174161 356.379768 
L 249.849538 356.468692 
L 391.172151 356.477812 
L 492.116875 356.477812 
L 492.116875 356.477812 
" clip-path="url(#p099cca5624)" style="fill: none; stroke: #38b977; stroke-width: 2; stroke-linecap: square"/>
   </g>
   <g id="line2d_29">
    <path d="M 45.716875 39.677812 
L 47.960091 42.167911 
L 50.203307 49.521387 
L 52.446523 61.396862 
L 54.689739 77.254679 
L 56.932955 96.397549 
L 59.176171 118.021308 
L 63.662604 165.294464 
L 68.149036 212.573415 
L 70.392252 234.549452 
L 72.635468 254.787126 
L 74.878684 272.993783 
L 77.1219 289.013919 
L 79.365116 302.813548 
L 81.608332 314.458907 
L 83.851548 324.092352 
L 86.094764 331.908037 
L 88.337981 338.129418 
L 90.581197 342.990024 
L 92.824413 346.718276 
L 95.067629 349.526554 
L 97.310845 351.604285 
L 99.554061 353.114485 
L 101.797277 354.193052 
L 104.040493 354.950042 
L 106.283709 355.472222 
L 108.526925 355.826289 
L 113.013357 356.216966 
L 119.743006 356.419109 
L 135.445518 356.476772 
L 492.116875 356.477812 
L 492.116875 356.477812 
" clip-path="url(#p099cca5624)" style="fill: none; stroke: #bddf26; stroke-width: 2; stroke-linecap: square"/>
   </g>
   <g id="patch_3">
    <path d="M 45.716875 356.477812 
L 45.716875 23.837812 
" style="fill: none; stroke: #000000; stroke-width: 0.8; stroke-linejoin: miter; stroke-linecap: square"/>
   </g>
   <g id="patch_4">
    <path d="M 492.116875 356.477812 
L 492.116875 23.837812 
" style="fill: none; stroke: #000000; stroke-width: 0.8; stroke-linejoin: miter; stroke-linecap: square"/>
   </g>
   <g id="patch_5">
    <path d="M 45.716875 356.477812 
L 492.116875 356.477812 
" style="fill: none; stroke: #000000; stroke-width: 0.8; stroke-linejoin: miter; stroke-linecap: square"/>
   </g>
   <g id="patch_6">
    <path d="M 45.716875 23.837812 
L 492.116875 23.837812 
" style="fill: none; stroke: #000000; stroke-width: 0.8; stroke-linejoin: miter; stroke-linecap: square"/>
   </g>
   <g id="text_15">
    <!-- Surface Roughness Damping of CTR Intensity -->
    <g transform="translate(109.931562 17.837812) scale(0.14 -0.14)">
     <defs>
      <path id="DejaVuSans-53" d="M 3425 4513 
L 3425 3897 
Q 3066 4069 2747 4153 
Q 2428 4238 2131 4238 
Q 1616 4238 1336 4038 
Q 1056 3838 1056 3469 
Q 1056 3159 1242 3001 
Q 1428 2844 1947 2747 
L 2328 2669 
Q 3034 2534 3370 2195 
Q 3706 1856 3706 1288 
Q 3706 609 3251 259 
Q 2797 -91 1919 -91 
Q 1588 -91 1214 -16 
Q 841 59 441 206 
L 441 856 
Q 825 641 1194 531 
Q 1563 422 1919 422 
Q 2459 422 2753 634 
Q 3047 847 3047 1241 
Q 3047 1584 2836 1778 
Q 2625 1972 2144 2069 
L 1759 2144 
Q 1053 2284 737 2584 
Q 422 2884 422 3419 
Q 422 4038 858 4394 
Q 1294 4750 2059 4750 
Q 2388 4750 2728 4690 
Q 3069 4631 3425 4513 
z
" transform="scale(0.015625)"/>
      <path id="DejaVuSans-66" d="M 2375 4863 
L 2375 4384 
L 1825 4384 
Q 1516 4384 1395 4259 
Q 1275 4134 1275 3809 
L 1275 3500 
L 2222 3500 
L 2222 3053 
L 1275 3053 
L 1275 0 
L 697 0 
L 697 3053 
L 147 3053 
L 147 3500 
L 697 3500 
L 697 3744 
Q 697 4328 969 4595 
Q 1241 4863 1831 4863 
L 2375 4863 
z
" transform="scale(0.015625)"/>
      <path id="DejaVuSans-43" d="M 4122 4306 
L 4122 3641 
Q 3803 3938 3442 4084 
Q 3081 4231 2675 4231 
Q 1875 4231 1450 3742 
Q 1025 3253 1025 2328 
Q 1025 1406 1450 917 
Q 1875 428 2675 428 
Q 3081 428 3442 575 
Q 3803 722 4122 1019 
L 4122 359 
Q 3791 134 3420 21 
Q 3050 -91 2638 -91 
Q 1578 -91 968 557 
Q 359 1206 359 2328 
Q 359 3453 968 4101 
Q 1578 4750 2638 4750 
Q 3056 4750 3426 4639 
Q 3797 4528 4122 4306 
z
" transform="scale(0.015625)"/>
      <path id="DejaVuSans-54" d="M -19 4666 
L 3928 4666 
L 3928 4134 
L 2272 4134 
L 2272 0 
L 1638 0 
L 1638 4134 
L -19 4134 
L -19 4666 
z
" transform="scale(0.015625)"/>
      <path id="DejaVuSans-49" d="M 628 4666 
L 1259 4666 
L 1259 0 
L 628 0 
L 628 4666 
z
" transform="scale(0.015625)"/>
      <path id="DejaVuSans-79" d="M 2059 -325 
Q 1816 -950 1584 -1140 
Q 1353 -1331 966 -1331 
L 506 -1331 
L 506 -850 
L 844 -850 
Q 1081 -850 1212 -737 
Q 1344 -625 1503 -206 
L 1606 56 
L 191 3500 
L 800 3500 
L 1894 763 
L 2988 3500 
L 3597 3500 
L 2059 -325 
z
" transform="scale(0.015625)"/>
     </defs>
     <use xlink:href="#DejaVuSans-53"/>
     <use xlink:href="#DejaVuSans-75" transform="translate(63.476562 0)"/>
     <use xlink:href="#DejaVuSans-72" transform="translate(126.855469 0)"/>
     <use xlink:href="#DejaVuSans-66" transform="translate(167.96875 0)"/>
     <use xlink:href="#DejaVuSans-61" transform="translate(203.173828 0)"/>
     <use xlink:href="#DejaVuSans-63" transform="translate(264.453125 0)"/>
     <use xlink:href="#DejaVuSans-65" transform="translate(319.433594 0)"/>
     <use xlink:href="#DejaVuSans-20" transform="translate(380.957031 0)"/>
     <use xlink:href="#DejaVuSans-52" transform="translate(412.744141 0)"/>
     <use xlink:href="#DejaVuSans-6f" transform="translate(477.726562 0)"/>
     <use xlink:href="#DejaVuSans-75" transform="translate(538.908203 0)"/>
     <use xlink:href="#DejaVuSans-67" transform="translate(602.287109 0)"/>
     <use xlink:href="#DejaVuSans-68" transform="translate(665.763672 0)"/>
     <use xlink:href="#DejaVuSans-6e" transform="translate(729.142578 0)"/>
     <use xlink:href="#DejaVuSans-65" transform="translate(792.521484 0)"/>
     <use xlink:href="#DejaVuSans-73" transform="translate(854.044922 0)"/>
     <use xlink:href="#DejaVuSans-73" transform="translate(906.144531 0)"/>
     <use xlink:href="#DejaVuSans-20" transform="translate(958.244141 0)"/>
     <use xlink:href="#DejaVuSans-44" transform="translate(990.03125 0)"/>
     <use xlink:href="#DejaVuSans-61" transform="translate(1067.033203 0)"/>
     <use xlink:href="#DejaVuSans-6d" transform="translate(1128.3125 0)"/>
     <use xlink:href="#DejaVuSans-70" transform="translate(1225.724609 0)"/>
     <use xlink:href="#DejaVuSans-69" transform="translate(1289.201172 0)"/>
     <use xlink:href="#DejaVuSans-6e" transform="translate(1316.984375 0)"/>
     <use xlink:href="#DejaVuSans-67" transform="translate(1380.363281 0)"/>
     <use xlink:href="#DejaVuSans-20" transform="translate(1443.839844 0)"/>
     <use xlink:href="#DejaVuSans-6f" transform="translate(1475.626953 0)"/>
     <use xlink:href="#DejaVuSans-66" transform="translate(1536.808594 0)"/>
     <use xlink:href="#DejaVuSans-20" transform="translate(1572.013672 0)"/>
     <use xlink:href="#DejaVuSans-43" transform="translate(1603.800781 0)"/>
     <use xlink:href="#DejaVuSans-54" transform="translate(1673.625 0)"/>
     <use xlink:href="#DejaVuSans-52" transform="translate(1734.708984 0)"/>
     <use xlink:href="#DejaVuSans-20" transform="translate(1804.191406 0)"/>
     <use xlink:href="#DejaVuSans-49" transform="translate(1835.978516 0)"/>
     <use xlink:href="#DejaVuSans-6e" transform="translate(1865.470703 0)"/>
     <use xlink:href="#DejaVuSans-74" transform="translate(1928.849609 0)"/>
     <use xlink:href="#DejaVuSans-65" transform="translate(1968.058594 0)"/>
     <use xlink:href="#DejaVuSans-6e" transform="translate(2029.582031 0)"/>
     <use xlink:href="#DejaVuSans-73" transform="translate(2092.960938 0)"/>
     <use xlink:href="#DejaVuSans-69" transform="translate(2145.060547 0)"/>
     <use xlink:href="#DejaVuSans-74" transform="translate(2172.84375 0)"/>
     <use xlink:href="#DejaVuSans-79" transform="translate(2212.052734 0)"/>
    </g>
   </g>
   <g id="legend_1">
    <g id="patch_7">
     <path d="M 401.316875 105.228437 
L 485.116875 105.228437 
Q 487.116875 105.228437 487.116875 103.228437 
L 487.116875 30.837812 
Q 487.116875 28.837812 485.116875 28.837812 
L 401.316875 28.837812 
Q 399.316875 28.837812 399.316875 30.837812 
L 399.316875 103.228437 
Q 399.316875 105.228437 401.316875 105.228437 
z
" style="fill: #ffffff; opacity: 0.8; stroke: #cccccc; stroke-linejoin: miter"/>
    </g>
    <g id="line2d_30">
     <path d="M 403.316875 36.93625 
L 413.316875 36.93625 
L 423.316875 36.93625 
" style="fill: none; stroke: #440154; stroke-width: 2; stroke-linecap: square"/>
    </g>
    <g id="text_16">
     <!-- $\sigma_h$ = 0.0 A -->
     <g transform="translate(431.316875 40.43625) scale(0.1 -0.1)">
      <defs>
       <path id="DejaVuSans-Oblique-3c3" d="M 2219 3044 
Q 1744 3044 1422 2700 
Q 1081 2341 969 1747 
Q 844 1119 1044 756 
Q 1241 397 1706 397 
Q 2166 397 2503 759 
Q 2844 1122 2966 1747 
Q 3075 2319 2881 2700 
Q 2700 3044 2219 3044 
z
M 2309 3503 
L 4219 3500 
L 4106 2925 
L 3463 2925 
Q 3706 2438 3575 1747 
Q 3406 888 2884 400 
Q 2359 -91 1609 -91 
Q 856 -91 525 400 
Q 194 888 363 1747 
Q 528 2609 1050 3097 
Q 1484 3503 2309 3503 
z
" transform="scale(0.015625)"/>
       <path id="DejaVuSans-Oblique-68" d="M 3566 2113 
L 3156 0 
L 2578 0 
L 2988 2091 
Q 3016 2238 3031 2350 
Q 3047 2463 3047 2528 
Q 3047 2791 2881 2937 
Q 2716 3084 2419 3084 
Q 1956 3084 1617 2771 
Q 1278 2459 1178 1941 
L 800 0 
L 225 0 
L 1172 4863 
L 1747 4863 
L 1375 2950 
Q 1594 3244 1934 3414 
Q 2275 3584 2650 3584 
Q 3113 3584 3367 3334 
Q 3622 3084 3622 2631 
Q 3622 2519 3608 2391 
Q 3594 2263 3566 2113 
z
" transform="scale(0.015625)"/>
       <path id="DejaVuSans-3d" d="M 678 2906 
L 4684 2906 
L 4684 2381 
L 678 2381 
L 678 2906 
z
M 678 1631 
L 4684 1631 
L 4684 1100 
L 678 1100 
L 678 1631 
z
" transform="scale(0.015625)"/>
      </defs>
      <use xlink:href="#DejaVuSans-Oblique-3c3" transform="translate(0 0.78125)"/>
      <use xlink:href="#DejaVuSans-Oblique-68" transform="translate(63.378906 -15.625) scale(0.7)"/>
      <use xlink:href="#DejaVuSans-20" transform="translate(110.478516 0.78125)"/>
      <use xlink:href="#DejaVuSans-3d" transform="translate(142.265625 0.78125)"/>
      <use xlink:href="#DejaVuSans-20" transform="translate(226.054688 0.78125)"/>
      <use xlink:href="#DejaVuSans-30" transform="translate(257.841797 0.78125)"/>
      <use xlink:href="#DejaVuSans-2e" transform="translate(321.464844 0.78125)"/>
      <use xlink:href="#DejaVuSans-30" transform="translate(353.251953 0.78125)"/>
      <use xlink:href="#DejaVuSans-20" transform="translate(416.875 0.78125)"/>
      <use xlink:href="#DejaVuSans-41" transform="translate(448.662109 0.78125)"/>
     </g>
    </g>
    <g id="line2d_31">
     <path d="M 403.316875 51.614375 
L 413.316875 51.614375 
L 423.316875 51.614375 
" style="fill: none; stroke: #3e4a89; stroke-width: 2; stroke-linecap: square"/>
    </g>
    <g id="text_17">
     <!-- $\sigma_h$ = 0.5 A -->
     <g transform="translate(431.316875 55.114375) scale(0.1 -0.1)">
      <use xlink:href="#DejaVuSans-Oblique-3c3" transform="translate(0 0.78125)"/>
      <use xlink:href="#DejaVuSans-Oblique-68" transform="translate(63.378906 -15.625) scale(0.7)"/>
      <use xlink:href="#DejaVuSans-20" transform="translate(110.478516 0.78125)"/>
      <use xlink:href="#DejaVuSans-3d" transform="translate(142.265625 0.78125)"/>
      <use xlink:href="#DejaVuSans-20" transform="translate(226.054688 0.78125)"/>
      <use xlink:href="#DejaVuSans-30" transform="translate(257.841797 0.78125)"/>
      <use xlink:href="#DejaVuSans-2e" transform="translate(321.464844 0.78125)"/>
      <use xlink:href="#DejaVuSans-35" transform="translate(353.251953 0.78125)"/>
      <use xlink:href="#DejaVuSans-20" transform="translate(416.875 0.78125)"/>
      <use xlink:href="#DejaVuSans-41" transform="translate(448.662109 0.78125)"/>
     </g>
    </g>
    <g id="line2d_32">
     <path d="M 403.316875 66.2925 
L 413.316875 66.2925 
L 423.316875 66.2925 
" style="fill: none; stroke: #25848e; stroke-width: 2; stroke-linecap: square"/>
    </g>
    <g id="text_18">
     <!-- $\sigma_h$ = 1.0 A -->
     <g transform="translate(431.316875 69.7925) scale(0.1 -0.1)">
      <use xlink:href="#DejaVuSans-Oblique-3c3" transform="translate(0 0.78125)"/>
      <use xlink:href="#DejaVuSans-Oblique-68" transform="translate(63.378906 -15.625) scale(0.7)"/>
      <use xlink:href="#DejaVuSans-20" transform="translate(110.478516 0.78125)"/>
      <use xlink:href="#DejaVuSans-3d" transform="translate(142.265625 0.78125)"/>
      <use xlink:href="#DejaVuSans-20" transform="translate(226.054688 0.78125)"/>
      <use xlink:href="#DejaVuSans-31" transform="translate(257.841797 0.78125)"/>
      <use xlink:href="#DejaVuSans-2e" transform="translate(321.464844 0.78125)"/>
      <use xlink:href="#DejaVuSans-30" transform="translate(353.251953 0.78125)"/>
      <use xlink:href="#DejaVuSans-20" transform="translate(416.875 0.78125)"/>
      <use xlink:href="#DejaVuSans-41" transform="translate(448.662109 0.78125)"/>
     </g>
    </g>
    <g id="line2d_33">
     <path d="M 403.316875 80.970625 
L 413.316875 80.970625 
L 423.316875 80.970625 
" style="fill: none; stroke: #38b977; stroke-width: 2; stroke-linecap: square"/>
    </g>
    <g id="text_19">
     <!-- $\sigma_h$ = 2.0 A -->
     <g transform="translate(431.316875 84.470625) scale(0.1 -0.1)">
      <use xlink:href="#DejaVuSans-Oblique-3c3" transform="translate(0 0.78125)"/>
      <use xlink:href="#DejaVuSans-Oblique-68" transform="translate(63.378906 -15.625) scale(0.7)"/>
      <use xlink:href="#DejaVuSans-20" transform="translate(110.478516 0.78125)"/>
      <use xlink:href="#DejaVuSans-3d" transform="translate(142.265625 0.78125)"/>
      <use xlink:href="#DejaVuSans-20" transform="translate(226.054688 0.78125)"/>
      <use xlink:href="#DejaVuSans-32" transform="translate(257.841797 0.78125)"/>
      <use xlink:href="#DejaVuSans-2e" transform="translate(321.464844 0.78125)"/>
      <use xlink:href="#DejaVuSans-30" transform="translate(353.251953 0.78125)"/>
      <use xlink:href="#DejaVuSans-20" transform="translate(416.875 0.78125)"/>
      <use xlink:href="#DejaVuSans-41" transform="translate(448.662109 0.78125)"/>
     </g>
    </g>
    <g id="line2d_34">
     <path d="M 403.316875 95.64875 
L 413.316875 95.64875 
L 423.316875 95.64875 
" style="fill: none; stroke: #bddf26; stroke-width: 2; stroke-linecap: square"/>
    </g>
    <g id="text_20">
     <!-- $\sigma_h$ = 5.0 A -->
     <g transform="translate(431.316875 99.14875) scale(0.1 -0.1)">
      <use xlink:href="#DejaVuSans-Oblique-3c3" transform="translate(0 0.78125)"/>
      <use xlink:href="#DejaVuSans-Oblique-68" transform="translate(63.378906 -15.625) scale(0.7)"/>
      <use xlink:href="#DejaVuSans-20" transform="translate(110.478516 0.78125)"/>
      <use xlink:href="#DejaVuSans-3d" transform="translate(142.265625 0.78125)"/>
      <use xlink:href="#DejaVuSans-20" transform="translate(226.054688 0.78125)"/>
      <use xlink:href="#DejaVuSans-35" transform="translate(257.841797 0.78125)"/>
      <use xlink:href="#DejaVuSans-2e" transform="translate(321.464844 0.78125)"/>
      <use xlink:href="#DejaVuSans-30" transform="translate(353.251953 0.78125)"/>
      <use xlink:href="#DejaVuSans-20" transform="translate(416.875 0.78125)"/>
      <use xlink:href="#DejaVuSans-41" transform="translate(448.662109 0.78125)"/>
     </g>
    </g>
   </g>
  </g>
 </g>
 <defs>
  <clipPath id="p099cca5624">
   <rect x="45.716875" y="23.837812" width="446.4" height="332.64"/>
  </clipPath>
 </defs>
</svg>
